  0
SECTION
  2
HEADER
  9
$ACADVER
  1
AC1014
  9
$ACADMAINTVER
 70
     0
  9
$DWGCODEPAGE
  3
ANSI_1252
  9
$INSBASE
 10
0.0
 20
0.0
 30
0.0
  9
$EXTMIN
 10
0.0
 20
0.0
 30
0.0
  9
$EXTMAX
 10
658.139587
 20
484.139618
 30
2.0
  9
$LIMMIN
 10
0.0
 20
0.0
  9
$LIMMAX
 10
420.0
 20
297.0
  9
$ORTHOMODE
 70
     0
  9
$REGENMODE
 70
     1
  9
$FILLMODE
 70
     1
  9
$QTEXTMODE
 70
     0
  9
$MIRRTEXT
 70
     1
  9
$DRAGMODE
 70
     2
  9
$LTSCALE
 40
1.0
  9
$OSMODE
 70
     0
  9
$ATTMODE
 70
     1
  9
$TEXTSIZE
 40
2.5
  9
$TRACEWID
 40
1.0
  9
$TEXTSTYLE
  7
STANDARD
  9
$CLAYER
  8
0
  9
$CELTYPE
  6
BYLAYER
  9
$CECOLOR
 62
   256
  9
$CELTSCALE
 40
1.0
  9
$DELOBJ
 70
     1
  9
$DISPSILH
 70
     0
  9
$DIMSCALE
 40
1.0
  9
$DIMASZ
 40
2.5
  9
$DIMEXO
 40
0.625
  9
$DIMDLI
 40
3.75
  9
$DIMRND
 40
0.0
  9
$DIMDLE
 40
0.0
  9
$DIMEXE
 40
1.25
  9
$DIMTP
 40
0.0
  9
$DIMTM
 40
0.0
  9
$DIMTXT
 40
2.5
  9
$DIMCEN
 40
2.5
  9
$DIMTSZ
 40
0.0
  9
$DIMTOL
 70
     0
  9
$DIMLIM
 70
     0
  9
$DIMTIH
 70
     0
  9
$DIMTOH
 70
     0
  9
$DIMSE1
 70
     0
  9
$DIMSE2
 70
     0
  9
$DIMTAD
 70
     1
  9
$DIMZIN
 70
     8
  9
$DIMBLK
  1

  9
$DIMASO
 70
     1
  9
$DIMSHO
 70
     1
  9
$DIMPOST
  1

  9
$DIMAPOST
  1

  9
$DIMALT
 70
     0
  9
$DIMALTD
 70
     3
  9
$DIMALTF
 40
0.03937
  9
$DIMLFAC
 40
1.0
  9
$DIMTOFL
 70
     1
  9
$DIMTVP
 40
0.0
  9
$DIMTIX
 70
     0
  9
$DIMSOXD
 70
     0
  9
$DIMSAH
 70
     0
  9
$DIMBLK1
  1

  9
$DIMBLK2
  1

  9
$DIMSTYLE
  2

  9
$DIMCLRD
 70
     0
  9
$DIMCLRE
 70
     0
  9
$DIMCLRT
 70
     0
  9
$DIMTFAC
 40
1.0
  9
$DIMGAP
 40
0.625
  9
$DIMJUST
 70
     0
  9
$DIMSD1
 70
     0
  9
$DIMSD2
 70
     0
  9
$DIMTOLJ
 70
     0
  9
$DIMTZIN
 70
     8
  9
$DIMALTZ
 70
     0
  9
$DIMALTTZ
 70
     0
  9
$DIMFIT
 70
     0
  9
$DIMUPT
 70
     0
  9
$DIMUNIT
 70
     2
  9
$DIMDEC
 70
     2
  9
$DIMTDEC
 70
     2
  9
$DIMALTU
 70
     2
  9
$DIMALTTD
 70
     3
  9
$DIMTXSTY
  7
STANDARD
  9
$DIMAUNIT
 70
     0
  9
$LUNITS
 70
     2
  9
$LUPREC
 70
     4
  9
$SKETCHINC
 40
1.0
  9
$FILLETRAD
 40
2.5
  9
$AUNITS
 70
     0
  9
$AUPREC
 70
     0
  9
$MENU
  1
.
  9
$ELEVATION
 40
0.0
  9
$PELEVATION
 40
0.0
  9
$THICKNESS
 40
0.0
  9
$LIMCHECK
 70
     0
  9
$BLIPMODE
 70
     1
  9
$CHAMFERA
 40
2.5
  9
$CHAMFERB
 40
2.5
  9
$CHAMFERC
 40
0.0
  9
$CHAMFERD
 40
0.0
  9
$SKPOLY
 70
     0
  9
$TDCREATE
 40
0.000000000
  9
$TDUPDATE
 40
0.000000000
  9
$TDINDWG
 40
0.0000000000
  9
$TDUSRTIMER
 40
0.0000000000
  9
$USRTIMER
 70
     1
  9
$ANGBASE
 50
0.0
  9
$ANGDIR
 70
     0
  9
$PDMODE
 70
     0
  9
$PDSIZE
 40
0.0
  9
$PLINEWID
 40
0.0
  9
$COORDS
 70
     0
  9
$SPLFRAME
 70
     0
  9
$SPLINETYPE
 70
     6
  9
$SPLINESEGS
 70
     8
  9
$ATTDIA
 70
     0
  9
$ATTREQ
 70
     1
  9
$HANDLING
 70
     1
  9
$HANDSEED
  5
32A
  9
$SURFTAB1
 70
     6
  9
$SURFTAB2
 70
     6
  9
$SURFTYPE
 70
     6
  9
$SURFU
 70
     6
  9
$SURFV
 70
     6
  9
$UCSNAME
  2

  9
$UCSORG
 10
0.0
 20
0.0
 30
0.0
  9
$UCSXDIR
 10
1.0
 20
0.0
 30
0.0
  9
$UCSYDIR
 10
0.0
 20
1.0
 30
0.0
  9
$PUCSNAME
  2

  9
$PUCSORG
 10
0.0
 20
0.0
 30
0.0
  9
$PUCSXDIR
 10
1.0
 20
0.0
 30
0.0
  9
$PUCSYDIR
 10
0.0
 20
1.0
 30
0.0
  9
$USERI1
 70
     0
  9
$USERI2
 70
     0
  9
$USERI3
 70
     0
  9
$USERI4
 70
     0
  9
$USERI5
 70
     0
  9
$USERR1
 40
0.0
  9
$USERR2
 40
0.0
  9
$USERR3
 40
0.0
  9
$USERR4
 40
0.0
  9
$USERR5
 40
0.0
  9
$WORLDVIEW
 70
     1
  9
$SHADEDGE
 70
     3
  9
$SHADEDIF
 70
    70
  9
$TILEMODE
 70
     1
  9
$MAXACTVP
 70
    48
  9
$PINSBASE
 10
0.0
 20
0.0
 30
0.0
  9
$PLIMCHECK
 70
     0
  9
$PEXTMIN
 10
0.0
 20
0.0
 30
0.0
  9
$PEXTMAX
 10
658.139587
 20
484.139618
 30
2.0
  9
$PLIMMIN
 10
0.0
 20
0.0
  9
$PLIMMAX
 10
420.0
 20
297.0
  9
$UNITMODE
 70
     0
  9
$VISRETAIN
 70
     0
  9
$PLINEGEN
 70
     0
  9
$PSLTSCALE
 70
     1
  9
$TREEDEPTH
 70
  3020
  9
$PICKSTYLE
 70
     1
  9
$CMLSTYLE
  2
STANDARD
  9
$CMLJUST
 70
     0
  9
$CMLSCALE
 40
20.0
  9
$PROXYGRAPHICS
 70
     1
  9
$MEASUREMENT
 70
     1
  0
ENDSEC
  0
SECTION
  2
CLASSES
  0
CLASS
  1
LWPOLYLINE
  2
AcDbPolyline
  3
"AutoCAD"
 90
        0
280
     0
281
     1
  0
CLASS
  1
IMAGE
  2
AcDbRasterImage
  3
ISM
 90
      127
280
     0
281
     1
  0
CLASS
  1
OLE2FRAME
  2
AcDbOle2Frame
  3
""
 90
        0
280
     0
281
     1
  0
CLASS
  1
HATCH
  2
AcDbHatch
  3
"ACAD_SEDONA"
 90
        0
280
     0
281
     1
  0
CLASS
  1
DICTIONARYVAR
  2
AcDbDictionaryVar
  3
"AutoCAD"
 90
        0
280
     0
281
     0
  0
CLASS
  1
RASTERVARIABLES
  2
AcDbRasterVariables
  3
ISM
 90
        0
280
     0
281
     0
  0
CLASS
  1
IMAGEDEF
  2
AcDbRasterImageDef
  3
ISM
 90
        0
280
     0
281
     0
  0
CLASS
  1
IMAGEDEF_REACTOR
  2
AcDbRasterImageDefReactor
  3
ISM
 90
        1
280
     0
281
     0
  0
CLASS
  1
IDBUFFER
  2
AcDbIdBuffer
  3
"Acad"
 90
        0
280
     0
281
     0
  0
CLASS
  1
SPATIAL_FILTER
  2
AcDbSpatialFilter
  3
"Acad"
 90
        0
280
     0
281
     0
  0
CLASS
  1
XRECORD
  2
AcDbXrecord
  3
"<Built In>"
 90
        0
280
     0
281
     0
  0
CLASS
  1
SORTENTSTABLE
  2
AcDbSortentsTable
  3
"AutoCAD"
 90
        0
280
     0
281
     0
  0
CLASS
  1
LAYER_INDEX
  2
AcDbLayerIndex
  3
"Acad"
 90
        0
280
     0
281
     0
  0
CLASS
  1
SPATIAL_INDEX
  2
AcDbSpatialIndex
  3
"Acad"
 90
        0
280
     0
281
     0
  0
CLASS
  1
OBJECT_PTR
  2
CAseDLPNTableRecord
  3
"ASE-LPNTableRecord"
 90
        1
280
     0
281
     0
  0
CLASS
  1
LAYOUT
  2
AcDbLayout
  3
"AutoCAD 2000"
 90
        0
280
     0
281
     0
  0
CLASS
  1
PLOTSETTINGS
  2
AcDbPlotSettings
  3
"AutoCAD 2000"
 90
        0
280
     0
281
     0
  0
CLASS
  1
ACDBDICTIONARYWDFLT
  2
AcDbDictionaryWithDefault
  3
"AutoCAD 2000"
 90
        0
280
     0
281
     0
  0
CLASS
  1
ACDBPLACEHOLDER
  2
AcDbPlaceHolder
  3
"AutoCAD 2000"
 90
        0
280
     0
281
     0
  0
CLASS
  1
VBA_PROJECT
  2
AcDbVbaProject
  3
"acadvba"
 90
        0
280
     0
281
     0
  0
CLASS
  1
WIPEOUT
  2
AcDbWipeout
  3
WipeOut|AutoCAD Express Tool|expresstools@autodesk.com
 90
      127
280
     0
281
     1
  0
CLASS
  1
WIPEOUTVARIABLES
  2
AcDbWipeoutVariables
  3
WipeOut|AutoCAD Express Tool|expresstools@autodesk.com
 90
        0
280
     0
281
     0
  0
CLASS
  1
RTEXT
  2
RText
  3
RText|AutoCAD Express Tool|expresstools@autodesk.com
 90
        0
280
     0
281
     1
  0
CLASS
  1
ARCALIGNEDTEXT
  2
AcDbArcAlignedText
  3
ATEXT|AutoCAD Express Tool|expresstools@autodesk.com
 90
        0
280
     0
281
     1
  0
ENDSEC
  0
SECTION
  2
TABLES
  0
TABLE
  2
VPORT
  5
7
100
AcDbSymbolTable
 70
     1
  0
VPORT
  5
15
100
AcDbSymbolTableRecord
100
AcDbViewportTableRecord
  2
*ACTIVE
 70
     0
 10
0.0
 20
0.0
 11
1.0
 21
1.0
 12
6.591288
 22
4.579184
 13
0.0
 23
0.0
 14
1.0
 24
1.0
 15
0.0
 25
0.0
 16
0.0
 26
0.0
 36
1.0
 17
0.0
 27
0.0
 37
0.0
 40
9.158369
 41
0.688564
 42
50.0
 43
0.0
 44
0.0
 50
0.0
 51
0.0
 71
     0
 72
   100
 73
     1
 74
     1
 75
     0
 76
     0
 77
     0
 78
     0
  0
ENDTAB
  0
TABLE
  2
LTYPE
  5
4
100
AcDbSymbolTable
 70
     3
  0
LTYPE
  5
11
100
AcDbSymbolTableRecord
100
AcDbLinetypeTableRecord
  2
BYBLOCK
 70
    64
  3

 72
    65
 73
     0
 40
0.0
  0
LTYPE
  5
12
100
AcDbSymbolTableRecord
100
AcDbLinetypeTableRecord
  2
BYLAYER
 70
    64
  3

 72
    65
 73
     0
 40
0.0
  0
LTYPE
  5
13
100
AcDbSymbolTableRecord
100
AcDbLinetypeTableRecord
  2
CONTINUOUS
 70
    64
  3
Solid line
 72
    65
 73
     0
 40
0.0
  0
ENDTAB
  0
TABLE
  2
LAYER
  5
2
100
AcDbSymbolTable
 70
     1
  0
LAYER
  5
14
100
AcDbSymbolTableRecord
100
AcDbLayerTableRecord
  2
0
 70
     0
 62
     7
  6
CONTINUOUS
  0
ENDTAB
  0
TABLE
  2
STYLE
  5
3
100
AcDbSymbolTable
 70
     1
  0
STYLE
  5
17
100
AcDbSymbolTableRecord
100
AcDbTextStyleTableRecord
  2
STANDARD
 70
     0
 40
0.0
 41
1.0
 50
0.0
 71
     0
 42
0.0
  3
txt
  4

  0
ENDTAB
  0
TABLE
  2
VIEW
  5
5
100
AcDbSymbolTable
 70
     0
  0
ENDTAB
  0
TABLE
  2
UCS
  5
6
100
AcDbSymbolTable
 70
     0
  0
ENDTAB
  0
TABLE
  2
APPID
  5
8
100
AcDbSymbolTable
 70
     1
  0
APPID
  5
16
100
AcDbSymbolTableRecord
100
AcDbRegAppTableRecord
  2
ACAD
 70
     0
  0
ENDTAB
  0
TABLE
  2
DIMSTYLE
  5
9
100
AcDbSymbolTable
 70
     1
  0
DIMSTYLE
105
18
100
AcDbSymbolTableRecord
100
AcDbDimStyleTableRecord
  2
STANDARD
 70
     0
  3

  4

  5

  6

  7

 40
1.0
 41
0.18
 42
0.0625
 43
0.38
 44
0.18
 45
0.0
 46
0.0
 47
0.0
 48
0.0
 71
     0
 72
     0
 73
     1
 74
     1
 75
     0
 76
     0
 77
     0
 78
     0
140
0.18
141
0.09
142
0.0
143
25.4
144
1.0
145
0.0
146
1.0
147
0.09
170
     0
171
     2
172
     0
173
     0
174
     0
175
     0
176
     0
177
     0
178
     0
270
     2
271
     4
272
     4
273
     2
274
     2
275
     0
280
     0
281
     0
282
     0
283
     1
284
     0
285
     0
286
     0
287
     3
288
     0
340
17
  0
ENDTAB
  0
TABLE
  2
BLOCK_RECORD
  5
1
100
AcDbSymbolTable
 70
     0
  0
BLOCK_RECORD
  5
A
100
AcDbSymbolTableRecord
100
AcDbBlockTableRecord
  2
*MODEL_SPACE
  0
BLOCK_RECORD
  5
B
100
AcDbSymbolTableRecord
100
AcDbBlockTableRecord
  2
*PAPER_SPACE
  0
ENDTAB
  0
ENDSEC
  0
SECTION
  2
BLOCKS
  0
BLOCK
  5
D
100
AcDbEntity
  8
0
100
AcDbBlockBegin
  2
*MODEL_SPACE
 70
     0
 10
0.0
 20
0.0
 30
0.0
  3
*MODEL_SPACE
  1

  0
ENDBLK
  5
E
100
AcDbEntity
  8
0
100
AcDbBlockEnd
  0
BLOCK
  5
F
100
AcDbEntity
 67
     1
  8
0
100
AcDbBlockBegin
  2
*PAPER_SPACE
 70
     0
 10
0.0
 20
0.0
 30
0.0
  3
*PAPER_SPACE
  1

  0
ENDBLK
  5
10
100
AcDbEntity
 67
     1
  8
0
100
AcDbBlockEnd
  0
ENDSEC
  0
SECTION
  2
ENTITIES
  0
VIEWPORT
  5
329
100
AcDbEntity
 67
     1
  8
0
 62
     0
 48
0.0
100
AcDbViewport
 10
0.0
 20
0.0
 30
0.0
 40
1000.0
 41
1000.0
 68
     1
 69
     1
1001
ACAD
1000
MVIEW
1002
{
1070
    16
1010
0.0
1020
0.0
1030
0.0
1010
0.0
1020
0.0
1030
1.0
1040
0.0
1040
1000.0
1040
0.0
1040
0.0
1040
50.0
1040
0.0
1040
0.0
1070
     0
1070
   100
1070
     1
1070
     1
1070
     0
1070
     0
1070
     0
1070
     0
1040
0.0
1040
0.0
1040
0.0
1040
1.0
1040
1.0
1040
1.0
1040
1.0
1070
     0
1002
{
1002
}
1002
}
  0
POLYLINE
  5
1D
100
AcDbEntity
  8
0
 62
     7
100
AcDb2dPolyline
 66
     1
 10
0.0
 20
0.0
 30
0.0
 70
     1
 71
     7
  0
VERTEX
  5
1E
100
AcDbEntity
  8
0
100
AcDbVertex
100
AcDb2dVertex
 10
596.895508
 20
348.508789
 30
0.0
  0
VERTEX
  5
1F
100
AcDbEntity
  8
0
100
AcDbVertex
100
AcDb2dVertex
 10
596.018005
 20
345.528259
 30
0.0
  0
VERTEX
  5
20
100
AcDbEntity
  8
0
100
AcDbVertex
100
AcDb2dVertex
 10
595.115295
 20
348.508789
 30
0.0
  0
VERTEX
  5
21
100
AcDbEntity
  8
0
100
AcDbVertex
100
AcDb2dVertex
 10
594.636169
 20
348.508789
 30
0.0
  0
VERTEX
  5
22
100
AcDbEntity
  8
0
100
AcDbVertex
100
AcDb2dVertex
 10
595.765869
 20
345.003754
 30
0.0
  0
VERTEX
  5
23
100
AcDbEntity
  8
0
100
AcDbVertex
100
AcDb2dVertex
 10
596.270203
 20
345.003754
 30
0.0
  0
VERTEX
  5
24
100
AcDbEntity
  8
0
100
AcDbVertex
100
AcDb2dVertex
 10
597.374634
 20
348.508789
 30
0.0
  0
SEQEND
  5
25
100
AcDbEntity
  8
0
  0
POLYLINE
  5
26
100
AcDbEntity
  8
0
 62
     7
100
AcDb2dPolyline
 66
     1
 10
0.0
 20
0.0
 30
0.0
 70
     1
 71
    16
  0
VERTEX
  5
27
100
AcDbEntity
  8
0
100
AcDbVertex
100
AcDb2dVertex
 10
597.878967
 20
346.355347
 30
0.0
  0
VERTEX
  5
28
100
AcDbEntity
  8
0
100
AcDbVertex
100
AcDb2dVertex
 10
597.959656
 20
345.740051
 30
0.0
  0
VERTEX
  5
29
100
AcDbEntity
  8
0
100
AcDbVertex
100
AcDb2dVertex
 10
598.19165
 20
345.286163
 30
0.0
  0
VERTEX
  5
2A
100
AcDbEntity
  8
0
100
AcDbVertex
100
AcDb2dVertex
 10
598.559814
 20
345.003754
 30
0.0
  0
VERTEX
  5
2B
100
AcDbEntity
  8
0
100
AcDbVertex
100
AcDb2dVertex
 10
599.054016
 20
344.907928
 30
0.0
  0
VERTEX
  5
2C
100
AcDbEntity
  8
0
100
AcDbVertex
100
AcDb2dVertex
 10
599.543213
 20
345.003754
 30
0.0
  0
VERTEX
  5
2D
100
AcDbEntity
  8
0
100
AcDbVertex
100
AcDb2dVertex
 10
599.911377
 20
345.281128
 30
0.0
  0
VERTEX
  5
2E
100
AcDbEntity
  8
0
100
AcDbVertex
100
AcDb2dVertex
 10
600.143372
 20
345.735016
 30
0.0
  0
VERTEX
  5
2F
100
AcDbEntity
  8
0
100
AcDbVertex
100
AcDb2dVertex
 10
600.229126
 20
346.355347
 30
0.0
  0
VERTEX
  5
30
100
AcDbEntity
  8
0
100
AcDbVertex
100
AcDb2dVertex
 10
600.143372
 20
346.970612
 30
0.0
  0
VERTEX
  5
31
100
AcDbEntity
  8
0
100
AcDbVertex
100
AcDb2dVertex
 10
599.911377
 20
347.429535
 30
0.0
  0
VERTEX
  5
32
100
AcDbEntity
  8
0
100
AcDbVertex
100
AcDb2dVertex
 10
599.543213
 20
347.706909
 30
0.0
  0
VERTEX
  5
33
100
AcDbEntity
  8
0
100
AcDbVertex
100
AcDb2dVertex
 10
599.054016
 20
347.8078
 30
0.0
  0
VERTEX
  5
34
100
AcDbEntity
  8
0
100
AcDbVertex
100
AcDb2dVertex
 10
598.559814
 20
347.706909
 30
0.0
  0
VERTEX
  5
35
100
AcDbEntity
  8
0
100
AcDbVertex
100
AcDb2dVertex
 10
598.19165
 20
347.4245
 30
0.0
  0
VERTEX
  5
36
100
AcDbEntity
  8
0
100
AcDbVertex
100
AcDb2dVertex
 10
597.959656
 20
346.970612
 30
0.0
  0
SEQEND
  5
37
100
AcDbEntity
  8
0
  0
POLYLINE
  5
38
100
AcDbEntity
  8
0
 62
     7
100
AcDb2dPolyline
 66
     1
 10
0.0
 20
0.0
 30
0.0
 70
     1
 71
    16
  0
VERTEX
  5
39
100
AcDbEntity
  8
0
100
AcDbVertex
100
AcDb2dVertex
 10
598.332825
 20
346.360382
 30
0.0
  0
VERTEX
  5
3A
100
AcDbEntity
  8
0
100
AcDbVertex
100
AcDb2dVertex
 10
598.378235
 20
346.81427
 30
0.0
  0
VERTEX
  5
3B
100
AcDbEntity
  8
0
100
AcDbVertex
100
AcDb2dVertex
 10
598.51947
 20
347.14209
 30
0.0
  0
VERTEX
  5
3C
100
AcDbEntity
  8
0
100
AcDbVertex
100
AcDb2dVertex
 10
598.746399
 20
347.343811
 30
0.0
  0
VERTEX
  5
3D
100
AcDbEntity
  8
0
100
AcDbVertex
100
AcDb2dVertex
 10
599.054016
 20
347.414429
 30
0.0
  0
VERTEX
  5
3E
100
AcDbEntity
  8
0
100
AcDbVertex
100
AcDb2dVertex
 10
599.356628
 20
347.343811
 30
0.0
  0
VERTEX
  5
3F
100
AcDbEntity
  8
0
100
AcDbVertex
100
AcDb2dVertex
 10
599.583557
 20
347.147125
 30
0.0
  0
VERTEX
  5
40
100
AcDbEntity
  8
0
100
AcDbVertex
100
AcDb2dVertex
 10
599.724792
 20
346.81427
 30
0.0
  0
VERTEX
  5
41
100
AcDbEntity
  8
0
100
AcDbVertex
100
AcDb2dVertex
 10
599.775208
 20
346.360382
 30
0.0
  0
VERTEX
  5
42
100
AcDbEntity
  8
0
100
AcDbVertex
100
AcDb2dVertex
 10
599.724792
 20
345.901459
 30
0.0
  0
VERTEX
  5
43
100
AcDbEntity
  8
0
100
AcDbVertex
100
AcDb2dVertex
 10
599.583557
 20
345.568604
 30
0.0
  0
VERTEX
  5
44
100
AcDbEntity
  8
0
100
AcDbVertex
100
AcDb2dVertex
 10
599.356628
 20
345.366852
 30
0.0
  0
VERTEX
  5
45
100
AcDbEntity
  8
0
100
AcDbVertex
100
AcDb2dVertex
 10
599.054016
 20
345.3013
 30
0.0
  0
VERTEX
  5
46
100
AcDbEntity
  8
0
100
AcDbVertex
100
AcDb2dVertex
 10
598.746399
 20
345.366852
 30
0.0
  0
VERTEX
  5
47
100
AcDbEntity
  8
0
100
AcDbVertex
100
AcDb2dVertex
 10
598.51947
 20
345.568604
 30
0.0
  0
VERTEX
  5
48
100
AcDbEntity
  8
0
100
AcDbVertex
100
AcDb2dVertex
 10
598.378235
 20
345.901459
 30
0.0
  0
SEQEND
  5
49
100
AcDbEntity
  8
0
  0
POLYLINE
  5
4A
100
AcDbEntity
  8
0
 62
     7
100
AcDb2dPolyline
 66
     1
 10
0.0
 20
0.0
 30
0.0
 70
     1
 71
    22
  0
VERTEX
  5
4B
100
AcDbEntity
  8
0
100
AcDbVertex
100
AcDb2dVertex
 10
601.212524
 20
345.003754
 30
0.0
  0
VERTEX
  5
4C
100
AcDbEntity
  8
0
100
AcDbVertex
100
AcDb2dVertex
 10
601.656311
 20
345.003754
 30
0.0
  0
VERTEX
  5
4D
100
AcDbEntity
  8
0
100
AcDbVertex
100
AcDb2dVertex
 10
601.656311
 20
346.552032
 30
0.0
  0
VERTEX
  5
4E
100
AcDbEntity
  8
0
100
AcDbVertex
100
AcDb2dVertex
 10
601.701721
 20
346.925232
 30
0.0
  0
VERTEX
  5
4F
100
AcDbEntity
  8
0
100
AcDbVertex
100
AcDb2dVertex
 10
601.837891
 20
347.192505
 30
0.0
  0
VERTEX
  5
50
100
AcDbEntity
  8
0
100
AcDbVertex
100
AcDb2dVertex
 10
602.059814
 20
347.353912
 30
0.0
  0
VERTEX
  5
51
100
AcDbEntity
  8
0
100
AcDbVertex
100
AcDb2dVertex
 10
602.357361
 20
347.409363
 30
0.0
  0
VERTEX
  5
52
100
AcDbEntity
  8
0
100
AcDbVertex
100
AcDb2dVertex
 10
602.579224
 20
347.374084
 30
0.0
  0
VERTEX
  5
53
100
AcDbEntity
  8
0
100
AcDbVertex
100
AcDb2dVertex
 10
602.745667
 20
347.273193
 30
0.0
  0
VERTEX
  5
54
100
AcDbEntity
  8
0
100
AcDbVertex
100
AcDb2dVertex
 10
602.846558
 20
347.101746
 30
0.0
  0
VERTEX
  5
55
100
AcDbEntity
  8
0
100
AcDbVertex
100
AcDb2dVertex
 10
602.881836
 20
346.869751
 30
0.0
  0
VERTEX
  5
56
100
AcDbEntity
  8
0
100
AcDbVertex
100
AcDb2dVertex
 10
603.330688
 20
346.869751
 30
0.0
  0
VERTEX
  5
57
100
AcDbEntity
  8
0
100
AcDbVertex
100
AcDb2dVertex
 10
603.270203
 20
347.278259
 30
0.0
  0
VERTEX
  5
58
100
AcDbEntity
  8
0
100
AcDbVertex
100
AcDb2dVertex
 10
603.10376
 20
347.57077
 30
0.0
  0
VERTEX
  5
59
100
AcDbEntity
  8
0
100
AcDbVertex
100
AcDb2dVertex
 10
602.826355
 20
347.747284
 30
0.0
  0
VERTEX
  5
5A
100
AcDbEntity
  8
0
100
AcDbVertex
100
AcDb2dVertex
 10
602.44812
 20
347.8078
 30
0.0
  0
VERTEX
  5
5B
100
AcDbEntity
  8
0
100
AcDbVertex
100
AcDb2dVertex
 10
602.190918
 20
347.767456
 30
0.0
  0
VERTEX
  5
5C
100
AcDbEntity
  8
0
100
AcDbVertex
100
AcDb2dVertex
 10
601.968994
 20
347.666565
 30
0.0
  0
VERTEX
  5
5D
100
AcDbEntity
  8
0
100
AcDbVertex
100
AcDb2dVertex
 10
601.772339
 20
347.495117
 30
0.0
  0
VERTEX
  5
5E
100
AcDbEntity
  8
0
100
AcDbVertex
100
AcDb2dVertex
 10
601.615967
 20
347.263123
 30
0.0
  0
VERTEX
  5
5F
100
AcDbEntity
  8
0
100
AcDbVertex
100
AcDb2dVertex
 10
601.615967
 20
347.711975
 30
0.0
  0
VERTEX
  5
60
100
AcDbEntity
  8
0
100
AcDbVertex
100
AcDb2dVertex
 10
601.212524
 20
347.711975
 30
0.0
  0
SEQEND
  5
61
100
AcDbEntity
  8
0
  0
POLYLINE
  5
62
100
AcDbEntity
  8
0
 62
     7
100
AcDb2dPolyline
 66
     1
 10
0.0
 20
0.0
 30
0.0
 70
     1
 71
    19
  0
VERTEX
  5
63
100
AcDbEntity
  8
0
100
AcDbVertex
100
AcDb2dVertex
 10
605.746399
 20
345.422333
 30
0.0
  0
VERTEX
  5
64
100
AcDbEntity
  8
0
100
AcDbVertex
100
AcDb2dVertex
 10
605.746399
 20
345.003754
 30
0.0
  0
VERTEX
  5
65
100
AcDbEntity
  8
0
100
AcDbVertex
100
AcDb2dVertex
 10
606.190186
 20
345.003754
 30
0.0
  0
VERTEX
  5
66
100
AcDbEntity
  8
0
100
AcDbVertex
100
AcDb2dVertex
 10
606.190186
 20
348.624786
 30
0.0
  0
VERTEX
  5
67
100
AcDbEntity
  8
0
100
AcDbVertex
100
AcDb2dVertex
 10
605.751465
 20
348.624786
 30
0.0
  0
VERTEX
  5
68
100
AcDbEntity
  8
0
100
AcDbVertex
100
AcDb2dVertex
 10
605.751465
 20
347.298431
 30
0.0
  0
VERTEX
  5
69
100
AcDbEntity
  8
0
100
AcDbVertex
100
AcDb2dVertex
 10
605.413574
 20
347.681702
 30
0.0
  0
VERTEX
  5
6A
100
AcDbEntity
  8
0
100
AcDbVertex
100
AcDb2dVertex
 10
605.206787
 20
347.772491
 30
0.0
  0
VERTEX
  5
6B
100
AcDbEntity
  8
0
100
AcDbVertex
100
AcDb2dVertex
 10
604.969727
 20
347.8078
 30
0.0
  0
VERTEX
  5
6C
100
AcDbEntity
  8
0
100
AcDbVertex
100
AcDb2dVertex
 10
604.541077
 20
347.706909
 30
0.0
  0
VERTEX
  5
6D
100
AcDbEntity
  8
0
100
AcDbVertex
100
AcDb2dVertex
 10
604.208191
 20
347.4245
 30
0.0
  0
VERTEX
  5
6E
100
AcDbEntity
  8
0
100
AcDbVertex
100
AcDb2dVertex
 10
603.991333
 20
346.970612
 30
0.0
  0
VERTEX
  5
6F
100
AcDbEntity
  8
0
100
AcDbVertex
100
AcDb2dVertex
 10
603.91571
 20
346.360382
 30
0.0
  0
VERTEX
  5
70
100
AcDbEntity
  8
0
100
AcDbVertex
100
AcDb2dVertex
 10
603.991333
 20
345.750153
 30
0.0
  0
VERTEX
  5
71
100
AcDbEntity
  8
0
100
AcDbVertex
100
AcDb2dVertex
 10
604.208191
 20
345.291229
 30
0.0
  0
VERTEX
  5
72
100
AcDbEntity
  8
0
100
AcDbVertex
100
AcDb2dVertex
 10
604.541077
 20
345.003754
 30
0.0
  0
VERTEX
  5
73
100
AcDbEntity
  8
0
100
AcDbVertex
100
AcDb2dVertex
 10
604.969727
 20
344.907928
 30
0.0
  0
VERTEX
  5
74
100
AcDbEntity
  8
0
100
AcDbVertex
100
AcDb2dVertex
 10
605.206787
 20
344.943237
 30
0.0
  0
VERTEX
  5
75
100
AcDbEntity
  8
0
100
AcDbVertex
100
AcDb2dVertex
 10
605.418579
 20
345.034027
 30
0.0
  0
SEQEND
  5
76
100
AcDbEntity
  8
0
  0
POLYLINE
  5
77
100
AcDbEntity
  8
0
 62
     7
100
AcDb2dPolyline
 66
     1
 10
0.0
 20
0.0
 30
0.0
 70
     1
 71
    16
  0
VERTEX
  5
78
100
AcDbEntity
  8
0
100
AcDbVertex
100
AcDb2dVertex
 10
605.04541
 20
347.409363
 30
0.0
  0
VERTEX
  5
79
100
AcDbEntity
  8
0
100
AcDbVertex
100
AcDb2dVertex
 10
605.337891
 20
347.338776
 30
0.0
  0
VERTEX
  5
7A
100
AcDbEntity
  8
0
100
AcDbVertex
100
AcDb2dVertex
 10
605.559814
 20
347.14209
 30
0.0
  0
VERTEX
  5
7B
100
AcDbEntity
  8
0
100
AcDbVertex
100
AcDb2dVertex
 10
605.690918
 20
346.81427
 30
0.0
  0
VERTEX
  5
7C
100
AcDbEntity
  8
0
100
AcDbVertex
100
AcDb2dVertex
 10
605.741333
 20
346.360382
 30
0.0
  0
VERTEX
  5
7D
100
AcDbEntity
  8
0
100
AcDbVertex
100
AcDb2dVertex
 10
605.690918
 20
345.901459
 30
0.0
  0
VERTEX
  5
7E
100
AcDbEntity
  8
0
100
AcDbVertex
100
AcDb2dVertex
 10
605.559814
 20
345.573639
 30
0.0
  0
VERTEX
  5
7F
100
AcDbEntity
  8
0
100
AcDbVertex
100
AcDb2dVertex
 10
605.337891
 20
345.371918
 30
0.0
  0
VERTEX
  5
80
100
AcDbEntity
  8
0
100
AcDbVertex
100
AcDb2dVertex
 10
605.04541
 20
345.306335
 30
0.0
  0
VERTEX
  5
81
100
AcDbEntity
  8
0
100
AcDbVertex
100
AcDb2dVertex
 10
604.768005
 20
345.371918
 30
0.0
  0
VERTEX
  5
82
100
AcDbEntity
  8
0
100
AcDbVertex
100
AcDb2dVertex
 10
604.556213
 20
345.573639
 30
0.0
  0
VERTEX
  5
83
100
AcDbEntity
  8
0
100
AcDbVertex
100
AcDb2dVertex
 10
604.414978
 20
345.906494
 30
0.0
  0
VERTEX
  5
84
100
AcDbEntity
  8
0
100
AcDbVertex
100
AcDb2dVertex
 10
604.369568
 20
346.360382
 30
0.0
  0
VERTEX
  5
85
100
AcDbEntity
  8
0
100
AcDbVertex
100
AcDb2dVertex
 10
604.414978
 20
346.809235
 30
0.0
  0
VERTEX
  5
86
100
AcDbEntity
  8
0
100
AcDbVertex
100
AcDb2dVertex
 10
604.556213
 20
347.137024
 30
0.0
  0
VERTEX
  5
87
100
AcDbEntity
  8
0
100
AcDbVertex
100
AcDb2dVertex
 10
604.768005
 20
347.338776
 30
0.0
  0
SEQEND
  5
88
100
AcDbEntity
  8
0
  0
POLYLINE
  5
89
100
AcDbEntity
  8
0
 62
     7
100
AcDb2dPolyline
 66
     1
 10
0.0
 20
0.0
 30
0.0
 70
     1
 71
    27
  0
VERTEX
  5
8A
100
AcDbEntity
  8
0
100
AcDbVertex
100
AcDb2dVertex
 10
607.50647
 20
346.229248
 30
0.0
  0
VERTEX
  5
8B
100
AcDbEntity
  8
0
100
AcDbVertex
100
AcDb2dVertex
 10
609.281677
 20
346.229248
 30
0.0
  0
VERTEX
  5
8C
100
AcDbEntity
  8
0
100
AcDbVertex
100
AcDb2dVertex
 10
609.286743
 20
346.436035
 30
0.0
  0
VERTEX
  5
8D
100
AcDbEntity
  8
0
100
AcDbVertex
100
AcDb2dVertex
 10
609.206055
 20
347.015991
 30
0.0
  0
VERTEX
  5
8E
100
AcDbEntity
  8
0
100
AcDbVertex
100
AcDb2dVertex
 10
608.984131
 20
347.449707
 30
0.0
  0
VERTEX
  5
8F
100
AcDbEntity
  8
0
100
AcDbVertex
100
AcDb2dVertex
 10
608.631104
 20
347.711975
 30
0.0
  0
VERTEX
  5
90
100
AcDbEntity
  8
0
100
AcDbVertex
100
AcDb2dVertex
 10
608.162109
 20
347.8078
 30
0.0
  0
VERTEX
  5
91
100
AcDbEntity
  8
0
100
AcDbVertex
100
AcDb2dVertex
 10
607.703186
 20
347.706909
 30
0.0
  0
VERTEX
  5
92
100
AcDbEntity
  8
0
100
AcDbVertex
100
AcDb2dVertex
 10
607.350159
 20
347.4245
 30
0.0
  0
VERTEX
  5
93
100
AcDbEntity
  8
0
100
AcDbVertex
100
AcDb2dVertex
 10
607.123169
 20
346.965576
 30
0.0
  0
VERTEX
  5
94
100
AcDbEntity
  8
0
100
AcDbVertex
100
AcDb2dVertex
 10
607.04248
 20
346.360382
 30
0.0
  0
VERTEX
  5
95
100
AcDbEntity
  8
0
100
AcDbVertex
100
AcDb2dVertex
 10
607.118164
 20
345.740051
 30
0.0
  0
VERTEX
  5
96
100
AcDbEntity
  8
0
100
AcDbVertex
100
AcDb2dVertex
 10
607.345093
 20
345.286163
 30
0.0
  0
VERTEX
  5
97
100
AcDbEntity
  8
0
100
AcDbVertex
100
AcDb2dVertex
 10
607.693054
 20
345.003754
 30
0.0
  0
VERTEX
  5
98
100
AcDbEntity
  8
0
100
AcDbVertex
100
AcDb2dVertex
 10
608.146973
 20
344.907928
 30
0.0
  0
VERTEX
  5
99
100
AcDbEntity
  8
0
100
AcDbVertex
100
AcDb2dVertex
 10
608.540344
 20
344.97348
 30
0.0
  0
VERTEX
  5
9A
100
AcDbEntity
  8
0
100
AcDbVertex
100
AcDb2dVertex
 10
608.863098
 20
345.144958
 30
0.0
  0
VERTEX
  5
9B
100
AcDbEntity
  8
0
100
AcDbVertex
100
AcDb2dVertex
 10
609.100159
 20
345.417297
 30
0.0
  0
VERTEX
  5
9C
100
AcDbEntity
  8
0
100
AcDbVertex
100
AcDb2dVertex
 10
609.236328
 20
345.780396
 30
0.0
  0
VERTEX
  5
9D
100
AcDbEntity
  8
0
100
AcDbVertex
100
AcDb2dVertex
 10
608.797546
 20
345.780396
 30
0.0
  0
VERTEX
  5
9E
100
AcDbEntity
  8
0
100
AcDbVertex
100
AcDb2dVertex
 10
608.706787
 20
345.578674
 30
0.0
  0
VERTEX
  5
9F
100
AcDbEntity
  8
0
100
AcDbVertex
100
AcDb2dVertex
 10
608.575623
 20
345.427399
 30
0.0
  0
VERTEX
  5
A0
100
AcDbEntity
  8
0
100
AcDbVertex
100
AcDb2dVertex
 10
608.202454
 20
345.306335
 30
0.0
  0
VERTEX
  5
A1
100
AcDbEntity
  8
0
100
AcDbVertex
100
AcDb2dVertex
 10
607.914978
 20
345.361816
 30
0.0
  0
VERTEX
  5
A2
100
AcDbEntity
  8
0
100
AcDbVertex
100
AcDb2dVertex
 10
607.69812
 20
345.53833
 30
0.0
  0
VERTEX
  5
A3
100
AcDbEntity
  8
0
100
AcDbVertex
100
AcDb2dVertex
 10
607.556946
 20
345.825806
 30
0.0
  0
VERTEX
  5
A4
100
AcDbEntity
  8
0
100
AcDbVertex
100
AcDb2dVertex
 10
607.50647
 20
346.214142
 30
0.0
  0
SEQEND
  5
A5
100
AcDbEntity
  8
0
  0
POLYLINE
  5
A6
100
AcDbEntity
  8
0
 62
     7
100
AcDb2dPolyline
 66
     1
 10
0.0
 20
0.0
 30
0.0
 70
     1
 71
     9
  0
VERTEX
  5
A7
100
AcDbEntity
  8
0
100
AcDbVertex
100
AcDb2dVertex
 10
607.50647
 20
346.602448
 30
0.0
  0
VERTEX
  5
A8
100
AcDbEntity
  8
0
100
AcDbVertex
100
AcDb2dVertex
 10
607.561951
 20
346.950439
 30
0.0
  0
VERTEX
  5
A9
100
AcDbEntity
  8
0
100
AcDbVertex
100
AcDb2dVertex
 10
607.69812
 20
347.207642
 30
0.0
  0
VERTEX
  5
AA
100
AcDbEntity
  8
0
100
AcDbVertex
100
AcDb2dVertex
 10
607.904907
 20
347.363983
 30
0.0
  0
VERTEX
  5
AB
100
AcDbEntity
  8
0
100
AcDbVertex
100
AcDb2dVertex
 10
608.177246
 20
347.419464
 30
0.0
  0
VERTEX
  5
AC
100
AcDbEntity
  8
0
100
AcDbVertex
100
AcDb2dVertex
 10
608.444519
 20
347.363983
 30
0.0
  0
VERTEX
  5
AD
100
AcDbEntity
  8
0
100
AcDbVertex
100
AcDb2dVertex
 10
608.651306
 20
347.207642
 30
0.0
  0
VERTEX
  5
AE
100
AcDbEntity
  8
0
100
AcDbVertex
100
AcDb2dVertex
 10
608.777405
 20
346.950439
 30
0.0
  0
VERTEX
  5
AF
100
AcDbEntity
  8
0
100
AcDbVertex
100
AcDb2dVertex
 10
608.822754
 20
346.602448
 30
0.0
  0
SEQEND
  5
B0
100
AcDbEntity
  8
0
  0
POLYLINE
  5
B1
100
AcDbEntity
  8
0
 62
     7
100
AcDb2dPolyline
 66
     1
 10
0.0
 20
0.0
 30
0.0
 70
     1
 71
    22
  0
VERTEX
  5
B2
100
AcDbEntity
  8
0
100
AcDbVertex
100
AcDb2dVertex
 10
610.320618
 20
345.003754
 30
0.0
  0
VERTEX
  5
B3
100
AcDbEntity
  8
0
100
AcDbVertex
100
AcDb2dVertex
 10
610.764404
 20
345.003754
 30
0.0
  0
VERTEX
  5
B4
100
AcDbEntity
  8
0
100
AcDbVertex
100
AcDb2dVertex
 10
610.764404
 20
346.552032
 30
0.0
  0
VERTEX
  5
B5
100
AcDbEntity
  8
0
100
AcDbVertex
100
AcDb2dVertex
 10
610.809814
 20
346.925232
 30
0.0
  0
VERTEX
  5
B6
100
AcDbEntity
  8
0
100
AcDbVertex
100
AcDb2dVertex
 10
610.945984
 20
347.192505
 30
0.0
  0
VERTEX
  5
B7
100
AcDbEntity
  8
0
100
AcDbVertex
100
AcDb2dVertex
 10
611.167847
 20
347.353912
 30
0.0
  0
VERTEX
  5
B8
100
AcDbEntity
  8
0
100
AcDbVertex
100
AcDb2dVertex
 10
611.465393
 20
347.409363
 30
0.0
  0
VERTEX
  5
B9
100
AcDbEntity
  8
0
100
AcDbVertex
100
AcDb2dVertex
 10
611.687317
 20
347.374084
 30
0.0
  0
VERTEX
  5
BA
100
AcDbEntity
  8
0
100
AcDbVertex
100
AcDb2dVertex
 10
611.85376
 20
347.273193
 30
0.0
  0
VERTEX
  5
BB
100
AcDbEntity
  8
0
100
AcDbVertex
100
AcDb2dVertex
 10
611.95459
 20
347.101746
 30
0.0
  0
VERTEX
  5
BC
100
AcDbEntity
  8
0
100
AcDbVertex
100
AcDb2dVertex
 10
611.989929
 20
346.869751
 30
0.0
  0
VERTEX
  5
BD
100
AcDbEntity
  8
0
100
AcDbVertex
100
AcDb2dVertex
 10
612.438782
 20
346.869751
 30
0.0
  0
VERTEX
  5
BE
100
AcDbEntity
  8
0
100
AcDbVertex
100
AcDb2dVertex
 10
612.378235
 20
347.278259
 30
0.0
  0
VERTEX
  5
BF
100
AcDbEntity
  8
0
100
AcDbVertex
100
AcDb2dVertex
 10
612.211792
 20
347.57077
 30
0.0
  0
VERTEX
  5
C0
100
AcDbEntity
  8
0
100
AcDbVertex
100
AcDb2dVertex
 10
611.934448
 20
347.747284
 30
0.0
  0
VERTEX
  5
C1
100
AcDbEntity
  8
0
100
AcDbVertex
100
AcDb2dVertex
 10
611.556213
 20
347.8078
 30
0.0
  0
VERTEX
  5
C2
100
AcDbEntity
  8
0
100
AcDbVertex
100
AcDb2dVertex
 10
611.299011
 20
347.767456
 30
0.0
  0
VERTEX
  5
C3
100
AcDbEntity
  8
0
100
AcDbVertex
100
AcDb2dVertex
 10
611.077087
 20
347.666565
 30
0.0
  0
VERTEX
  5
C4
100
AcDbEntity
  8
0
100
AcDbVertex
100
AcDb2dVertex
 10
610.880432
 20
347.495117
 30
0.0
  0
VERTEX
  5
C5
100
AcDbEntity
  8
0
100
AcDbVertex
100
AcDb2dVertex
 10
610.72406
 20
347.263123
 30
0.0
  0
VERTEX
  5
C6
100
AcDbEntity
  8
0
100
AcDbVertex
100
AcDb2dVertex
 10
610.72406
 20
347.711975
 30
0.0
  0
VERTEX
  5
C7
100
AcDbEntity
  8
0
100
AcDbVertex
100
AcDb2dVertex
 10
610.320618
 20
347.711975
 30
0.0
  0
SEQEND
  5
C8
100
AcDbEntity
  8
0
  0
POLYLINE
  5
C9
100
AcDbEntity
  8
0
 62
     7
100
AcDb2dPolyline
 66
     1
 10
0.0
 20
0.0
 30
0.0
 70
     1
 71
    42
  0
VERTEX
  5
CA
100
AcDbEntity
  8
0
100
AcDbVertex
100
AcDb2dVertex
 10
614.799011
 20
345.356781
 30
0.0
  0
VERTEX
  5
CB
100
AcDbEntity
  8
0
100
AcDbVertex
100
AcDb2dVertex
 10
614.799011
 20
345.341644
 30
0.0
  0
VERTEX
  5
CC
100
AcDbEntity
  8
0
100
AcDbVertex
100
AcDb2dVertex
 10
614.824219
 20
345.170166
 30
0.0
  0
VERTEX
  5
CD
100
AcDbEntity
  8
0
100
AcDbVertex
100
AcDb2dVertex
 10
614.899841
 20
345.049133
 30
0.0
  0
VERTEX
  5
CE
100
AcDbEntity
  8
0
100
AcDbVertex
100
AcDb2dVertex
 10
615.21759
 20
344.953308
 30
0.0
  0
VERTEX
  5
CF
100
AcDbEntity
  8
0
100
AcDbVertex
100
AcDb2dVertex
 10
615.464722
 20
344.993652
 30
0.0
  0
VERTEX
  5
D0
100
AcDbEntity
  8
0
100
AcDbVertex
100
AcDb2dVertex
 10
615.464722
 20
345.336609
 30
0.0
  0
VERTEX
  5
D1
100
AcDbEntity
  8
0
100
AcDbVertex
100
AcDb2dVertex
 10
615.358765
 20
345.321472
 30
0.0
  0
VERTEX
  5
D2
100
AcDbEntity
  8
0
100
AcDbVertex
100
AcDb2dVertex
 10
615.21759
 20
345.387024
 30
0.0
  0
VERTEX
  5
D3
100
AcDbEntity
  8
0
100
AcDbVertex
100
AcDb2dVertex
 10
615.192383
 20
345.588776
 30
0.0
  0
VERTEX
  5
D4
100
AcDbEntity
  8
0
100
AcDbVertex
100
AcDb2dVertex
 10
615.192383
 20
346.990784
 30
0.0
  0
VERTEX
  5
D5
100
AcDbEntity
  8
0
100
AcDbVertex
100
AcDb2dVertex
 10
615.131836
 20
347.348846
 30
0.0
  0
VERTEX
  5
D6
100
AcDbEntity
  8
0
100
AcDbVertex
100
AcDb2dVertex
 10
614.955322
 20
347.601013
 30
0.0
  0
VERTEX
  5
D7
100
AcDbEntity
  8
0
100
AcDbVertex
100
AcDb2dVertex
 10
614.647705
 20
347.752319
 30
0.0
  0
VERTEX
  5
D8
100
AcDbEntity
  8
0
100
AcDbVertex
100
AcDb2dVertex
 10
614.213989
 20
347.8078
 30
0.0
  0
VERTEX
  5
D9
100
AcDbEntity
  8
0
100
AcDbVertex
100
AcDb2dVertex
 10
613.790344
 20
347.747284
 30
0.0
  0
VERTEX
  5
DA
100
AcDbEntity
  8
0
100
AcDbVertex
100
AcDb2dVertex
 10
613.477661
 20
347.575806
 30
0.0
  0
VERTEX
  5
DB
100
AcDbEntity
  8
0
100
AcDbVertex
100
AcDb2dVertex
 10
613.281006
 20
347.308502
 30
0.0
  0
VERTEX
  5
DC
100
AcDbEntity
  8
0
100
AcDbVertex
100
AcDb2dVertex
 10
613.215393
 20
346.955475
 30
0.0
  0
VERTEX
  5
DD
100
AcDbEntity
  8
0
100
AcDbVertex
100
AcDb2dVertex
 10
613.215393
 20
346.925232
 30
0.0
  0
VERTEX
  5
DE
100
AcDbEntity
  8
0
100
AcDbVertex
100
AcDb2dVertex
 10
613.613831
 20
346.925232
 30
0.0
  0
VERTEX
  5
DF
100
AcDbEntity
  8
0
100
AcDbVertex
100
AcDb2dVertex
 10
613.649109
 20
347.137024
 30
0.0
  0
VERTEX
  5
E0
100
AcDbEntity
  8
0
100
AcDbVertex
100
AcDb2dVertex
 10
613.760071
 20
347.28833
 30
0.0
  0
VERTEX
  5
E1
100
AcDbEntity
  8
0
100
AcDbVertex
100
AcDb2dVertex
 10
613.94165
 20
347.37912
 30
0.0
  0
VERTEX
  5
E2
100
AcDbEntity
  8
0
100
AcDbVertex
100
AcDb2dVertex
 10
614.198853
 20
347.414429
 30
0.0
  0
VERTEX
  5
E3
100
AcDbEntity
  8
0
100
AcDbVertex
100
AcDb2dVertex
 10
614.445984
 20
347.389191
 30
0.0
  0
VERTEX
  5
E4
100
AcDbEntity
  8
0
100
AcDbVertex
100
AcDb2dVertex
 10
614.622498
 20
347.313538
 30
0.0
  0
VERTEX
  5
E5
100
AcDbEntity
  8
0
100
AcDbVertex
100
AcDb2dVertex
 10
614.728394
 20
347.182434
 30
0.0
  0
VERTEX
  5
E6
100
AcDbEntity
  8
0
100
AcDbVertex
100
AcDb2dVertex
 10
614.763672
 20
347.000885
 30
0.0
  0
VERTEX
  5
E7
100
AcDbEntity
  8
0
100
AcDbVertex
100
AcDb2dVertex
 10
614.74353
 20
346.789063
 30
0.0
  0
VERTEX
  5
E8
100
AcDbEntity
  8
0
100
AcDbVertex
100
AcDb2dVertex
 10
614.662842
 20
346.683136
 30
0.0
  0
VERTEX
  5
E9
100
AcDbEntity
  8
0
100
AcDbVertex
100
AcDb2dVertex
 10
614.461121
 20
346.632721
 30
0.0
  0
VERTEX
  5
EA
100
AcDbEntity
  8
0
100
AcDbVertex
100
AcDb2dVertex
 10
614.082825
 20
346.592377
 30
0.0
  0
VERTEX
  5
EB
100
AcDbEntity
  8
0
100
AcDbVertex
100
AcDb2dVertex
 10
613.649109
 20
346.501587
 30
0.0
  0
VERTEX
  5
EC
100
AcDbEntity
  8
0
100
AcDbVertex
100
AcDb2dVertex
 10
613.341492
 20
346.34021
 30
0.0
  0
VERTEX
  5
ED
100
AcDbEntity
  8
0
100
AcDbVertex
100
AcDb2dVertex
 10
613.159912
 20
346.088043
 30
0.0
  0
VERTEX
  5
EE
100
AcDbEntity
  8
0
100
AcDbVertex
100
AcDb2dVertex
 10
613.104492
 20
345.714844
 30
0.0
  0
VERTEX
  5
EF
100
AcDbEntity
  8
0
100
AcDbVertex
100
AcDb2dVertex
 10
613.154907
 20
345.381989
 30
0.0
  0
VERTEX
  5
F0
100
AcDbEntity
  8
0
100
AcDbVertex
100
AcDb2dVertex
 10
613.311218
 20
345.134888
 30
0.0
  0
VERTEX
  5
F1
100
AcDbEntity
  8
0
100
AcDbVertex
100
AcDb2dVertex
 10
613.563416
 20
344.978546
 30
0.0
  0
VERTEX
  5
F2
100
AcDbEntity
  8
0
100
AcDbVertex
100
AcDb2dVertex
 10
613.911377
 20
344.923065
 30
0.0
  0
VERTEX
  5
F3
100
AcDbEntity
  8
0
100
AcDbVertex
100
AcDb2dVertex
 10
614.380432
 20
345.028961
 30
0.0
  0
SEQEND
  5
F4
100
AcDbEntity
  8
0
  0
POLYLINE
  5
F5
100
AcDbEntity
  8
0
 62
     7
100
AcDb2dPolyline
 66
     1
 10
0.0
 20
0.0
 30
0.0
 70
     1
 71
    14
  0
VERTEX
  5
F6
100
AcDbEntity
  8
0
100
AcDbVertex
100
AcDb2dVertex
 10
614.748535
 20
345.951874
 30
0.0
  0
VERTEX
  5
F7
100
AcDbEntity
  8
0
100
AcDbVertex
100
AcDb2dVertex
 10
614.688049
 20
345.689636
 30
0.0
  0
VERTEX
  5
F8
100
AcDbEntity
  8
0
100
AcDbVertex
100
AcDb2dVertex
 10
614.526672
 20
345.487915
 30
0.0
  0
VERTEX
  5
F9
100
AcDbEntity
  8
0
100
AcDbVertex
100
AcDb2dVertex
 10
614.284607
 20
345.356781
 30
0.0
  0
VERTEX
  5
FA
100
AcDbEntity
  8
0
100
AcDbVertex
100
AcDb2dVertex
 10
613.987061
 20
345.311401
 30
0.0
  0
VERTEX
  5
FB
100
AcDbEntity
  8
0
100
AcDbVertex
100
AcDb2dVertex
 10
613.79541
 20
345.336609
 30
0.0
  0
VERTEX
  5
FC
100
AcDbEntity
  8
0
100
AcDbVertex
100
AcDb2dVertex
 10
613.659241
 20
345.417297
 30
0.0
  0
VERTEX
  5
FD
100
AcDbEntity
  8
0
100
AcDbVertex
100
AcDb2dVertex
 10
613.573486
 20
345.558502
 30
0.0
  0
VERTEX
  5
FE
100
AcDbEntity
  8
0
100
AcDbVertex
100
AcDb2dVertex
 10
613.548279
 20
345.755188
 30
0.0
  0
VERTEX
  5
FF
100
AcDbEntity
  8
0
100
AcDbVertex
100
AcDb2dVertex
 10
613.56842
 20
345.931702
 30
0.0
  0
VERTEX
  5
100
100
AcDbEntity
  8
0
100
AcDbVertex
100
AcDb2dVertex
 10
613.649109
 20
346.0578
 30
0.0
  0
VERTEX
  5
101
100
AcDbEntity
  8
0
100
AcDbVertex
100
AcDb2dVertex
 10
613.971924
 20
346.199005
 30
0.0
  0
VERTEX
  5
102
100
AcDbEntity
  8
0
100
AcDbVertex
100
AcDb2dVertex
 10
614.380432
 20
346.259521
 30
0.0
  0
VERTEX
  5
103
100
AcDbEntity
  8
0
100
AcDbVertex
100
AcDb2dVertex
 10
614.748535
 20
346.380554
 30
0.0
  0
SEQEND
  5
104
100
AcDbEntity
  8
0
  0
POLYLINE
  5
105
100
AcDbEntity
  8
0
 62
     7
100
AcDb2dPolyline
 66
     1
 10
0.0
 20
0.0
 30
0.0
 70
     1
 71
    24
  0
VERTEX
  5
106
100
AcDbEntity
  8
0
100
AcDbVertex
100
AcDb2dVertex
 10
616.226196
 20
345.003754
 30
0.0
  0
VERTEX
  5
107
100
AcDbEntity
  8
0
100
AcDbVertex
100
AcDb2dVertex
 10
616.670044
 20
345.003754
 30
0.0
  0
VERTEX
  5
108
100
AcDbEntity
  8
0
100
AcDbVertex
100
AcDb2dVertex
 10
616.670044
 20
346.567169
 30
0.0
  0
VERTEX
  5
109
100
AcDbEntity
  8
0
100
AcDbVertex
100
AcDb2dVertex
 10
616.715393
 20
346.925232
 30
0.0
  0
VERTEX
  5
10A
100
AcDbEntity
  8
0
100
AcDbVertex
100
AcDb2dVertex
 10
616.861694
 20
347.187469
 30
0.0
  0
VERTEX
  5
10B
100
AcDbEntity
  8
0
100
AcDbVertex
100
AcDb2dVertex
 10
617.088623
 20
347.348846
 30
0.0
  0
VERTEX
  5
10C
100
AcDbEntity
  8
0
100
AcDbVertex
100
AcDb2dVertex
 10
617.391235
 20
347.409363
 30
0.0
  0
VERTEX
  5
10D
100
AcDbEntity
  8
0
100
AcDbVertex
100
AcDb2dVertex
 10
617.633301
 20
347.358948
 30
0.0
  0
VERTEX
  5
10E
100
AcDbEntity
  8
0
100
AcDbVertex
100
AcDb2dVertex
 10
617.784607
 20
347.222778
 30
0.0
  0
VERTEX
  5
10F
100
AcDbEntity
  8
0
100
AcDbVertex
100
AcDb2dVertex
 10
617.860229
 20
346.995819
 30
0.0
  0
VERTEX
  5
110
100
AcDbEntity
  8
0
100
AcDbVertex
100
AcDb2dVertex
 10
617.885437
 20
346.693237
 30
0.0
  0
VERTEX
  5
111
100
AcDbEntity
  8
0
100
AcDbVertex
100
AcDb2dVertex
 10
617.885437
 20
345.003754
 30
0.0
  0
VERTEX
  5
112
100
AcDbEntity
  8
0
100
AcDbVertex
100
AcDb2dVertex
 10
618.329224
 20
345.003754
 30
0.0
  0
VERTEX
  5
113
100
AcDbEntity
  8
0
100
AcDbVertex
100
AcDb2dVertex
 10
618.329224
 20
346.784027
 30
0.0
  0
VERTEX
  5
114
100
AcDbEntity
  8
0
100
AcDbVertex
100
AcDb2dVertex
 10
618.309082
 20
347.14209
 30
0.0
  0
VERTEX
  5
115
100
AcDbEntity
  8
0
100
AcDbVertex
100
AcDb2dVertex
 10
618.218323
 20
347.439636
 30
0.0
  0
VERTEX
  5
116
100
AcDbEntity
  8
0
100
AcDbVertex
100
AcDb2dVertex
 10
617.920776
 20
347.711975
 30
0.0
  0
VERTEX
  5
117
100
AcDbEntity
  8
0
100
AcDbVertex
100
AcDb2dVertex
 10
617.456787
 20
347.8078
 30
0.0
  0
VERTEX
  5
118
100
AcDbEntity
  8
0
100
AcDbVertex
100
AcDb2dVertex
 10
617.199585
 20
347.772491
 30
0.0
  0
VERTEX
  5
119
100
AcDbEntity
  8
0
100
AcDbVertex
100
AcDb2dVertex
 10
616.982727
 20
347.676666
 30
0.0
  0
VERTEX
  5
11A
100
AcDbEntity
  8
0
100
AcDbVertex
100
AcDb2dVertex
 10
616.796082
 20
347.515289
 30
0.0
  0
VERTEX
  5
11B
100
AcDbEntity
  8
0
100
AcDbVertex
100
AcDb2dVertex
 10
616.649841
 20
347.298431
 30
0.0
  0
VERTEX
  5
11C
100
AcDbEntity
  8
0
100
AcDbVertex
100
AcDb2dVertex
 10
616.649841
 20
347.711975
 30
0.0
  0
VERTEX
  5
11D
100
AcDbEntity
  8
0
100
AcDbVertex
100
AcDb2dVertex
 10
616.226196
 20
347.711975
 30
0.0
  0
SEQEND
  5
11E
100
AcDbEntity
  8
0
  0
POLYLINE
  5
11F
100
AcDbEntity
  8
0
 62
     7
100
AcDb2dPolyline
 66
     1
 10
0.0
 20
0.0
 30
0.0
 70
     1
 71
    50
  0
VERTEX
  5
120
100
AcDbEntity
  8
0
100
AcDbVertex
100
AcDb2dVertex
 10
620.588623
 20
346.582275
 30
0.0
  0
VERTEX
  5
121
100
AcDbEntity
  8
0
100
AcDbVertex
100
AcDb2dVertex
 10
620.159912
 20
346.683136
 30
0.0
  0
VERTEX
  5
122
100
AcDbEntity
  8
0
100
AcDbVertex
100
AcDb2dVertex
 10
619.842224
 20
346.799133
 30
0.0
  0
VERTEX
  5
123
100
AcDbEntity
  8
0
100
AcDbVertex
100
AcDb2dVertex
 10
619.736328
 20
347.036163
 30
0.0
  0
VERTEX
  5
124
100
AcDbEntity
  8
0
100
AcDbVertex
100
AcDb2dVertex
 10
619.766602
 20
347.202606
 30
0.0
  0
VERTEX
  5
125
100
AcDbEntity
  8
0
100
AcDbVertex
100
AcDb2dVertex
 10
619.872498
 20
347.323639
 30
0.0
  0
VERTEX
  5
126
100
AcDbEntity
  8
0
100
AcDbVertex
100
AcDb2dVertex
 10
620.043945
 20
347.399292
 30
0.0
  0
VERTEX
  5
127
100
AcDbEntity
  8
0
100
AcDbVertex
100
AcDb2dVertex
 10
620.291077
 20
347.429535
 30
0.0
  0
VERTEX
  5
128
100
AcDbEntity
  8
0
100
AcDbVertex
100
AcDb2dVertex
 10
620.528076
 20
347.399292
 30
0.0
  0
VERTEX
  5
129
100
AcDbEntity
  8
0
100
AcDbVertex
100
AcDb2dVertex
 10
620.714722
 20
347.308502
 30
0.0
  0
VERTEX
  5
12A
100
AcDbEntity
  8
0
100
AcDbVertex
100
AcDb2dVertex
 10
620.835754
 20
347.172333
 30
0.0
  0
VERTEX
  5
12B
100
AcDbEntity
  8
0
100
AcDbVertex
100
AcDb2dVertex
 10
620.886169
 20
346.990784
 30
0.0
  0
VERTEX
  5
12C
100
AcDbEntity
  8
0
100
AcDbVertex
100
AcDb2dVertex
 10
621.319885
 20
346.990784
 30
0.0
  0
VERTEX
  5
12D
100
AcDbEntity
  8
0
100
AcDbVertex
100
AcDb2dVertex
 10
621.319885
 20
347.000885
 30
0.0
  0
VERTEX
  5
12E
100
AcDbEntity
  8
0
100
AcDbVertex
100
AcDb2dVertex
 10
621.244263
 20
347.328674
 30
0.0
  0
VERTEX
  5
12F
100
AcDbEntity
  8
0
100
AcDbVertex
100
AcDb2dVertex
 10
621.037476
 20
347.585876
 30
0.0
  0
VERTEX
  5
130
100
AcDbEntity
  8
0
100
AcDbVertex
100
AcDb2dVertex
 10
620.714722
 20
347.747284
 30
0.0
  0
VERTEX
  5
131
100
AcDbEntity
  8
0
100
AcDbVertex
100
AcDb2dVertex
 10
620.291077
 20
347.8078
 30
0.0
  0
VERTEX
  5
132
100
AcDbEntity
  8
0
100
AcDbVertex
100
AcDb2dVertex
 10
619.862366
 20
347.747284
 30
0.0
  0
VERTEX
  5
133
100
AcDbEntity
  8
0
100
AcDbVertex
100
AcDb2dVertex
 10
619.549683
 20
347.580841
 30
0.0
  0
VERTEX
  5
134
100
AcDbEntity
  8
0
100
AcDbVertex
100
AcDb2dVertex
 10
619.353027
 20
347.33371
 30
0.0
  0
VERTEX
  5
135
100
AcDbEntity
  8
0
100
AcDbVertex
100
AcDb2dVertex
 10
619.29248
 20
347.021057
 30
0.0
  0
VERTEX
  5
136
100
AcDbEntity
  8
0
100
AcDbVertex
100
AcDb2dVertex
 10
619.337891
 20
346.718445
 30
0.0
  0
VERTEX
  5
137
100
AcDbEntity
  8
0
100
AcDbVertex
100
AcDb2dVertex
 10
619.479126
 20
346.506622
 30
0.0
  0
VERTEX
  5
138
100
AcDbEntity
  8
0
100
AcDbVertex
100
AcDb2dVertex
 10
619.711121
 20
346.355347
 30
0.0
  0
VERTEX
  5
139
100
AcDbEntity
  8
0
100
AcDbVertex
100
AcDb2dVertex
 10
620.049011
 20
346.24942
 30
0.0
  0
VERTEX
  5
13A
100
AcDbEntity
  8
0
100
AcDbVertex
100
AcDb2dVertex
 10
620.543213
 20
346.128387
 30
0.0
  0
VERTEX
  5
13B
100
AcDbEntity
  8
0
100
AcDbVertex
100
AcDb2dVertex
 10
620.845825
 20
346.002319
 30
0.0
  0
VERTEX
  5
13C
100
AcDbEntity
  8
0
100
AcDbVertex
100
AcDb2dVertex
 10
620.926514
 20
345.901459
 30
0.0
  0
VERTEX
  5
13D
100
AcDbEntity
  8
0
100
AcDbVertex
100
AcDb2dVertex
 10
620.956787
 20
345.750153
 30
0.0
  0
VERTEX
  5
13E
100
AcDbEntity
  8
0
100
AcDbVertex
100
AcDb2dVertex
 10
620.911377
 20
345.563538
 30
0.0
  0
VERTEX
  5
13F
100
AcDbEntity
  8
0
100
AcDbVertex
100
AcDb2dVertex
 10
620.790344
 20
345.422333
 30
0.0
  0
VERTEX
  5
140
100
AcDbEntity
  8
0
100
AcDbVertex
100
AcDb2dVertex
 10
620.593689
 20
345.331573
 30
0.0
  0
VERTEX
  5
141
100
AcDbEntity
  8
0
100
AcDbVertex
100
AcDb2dVertex
 10
620.331421
 20
345.3013
 30
0.0
  0
VERTEX
  5
142
100
AcDbEntity
  8
0
100
AcDbVertex
100
AcDb2dVertex
 10
620.054016
 20
345.331573
 30
0.0
  0
VERTEX
  5
143
100
AcDbEntity
  8
0
100
AcDbVertex
100
AcDb2dVertex
 10
619.852295
 20
345.437469
 30
0.0
  0
VERTEX
  5
144
100
AcDbEntity
  8
0
100
AcDbVertex
100
AcDb2dVertex
 10
619.716125
 20
345.608948
 30
0.0
  0
VERTEX
  5
145
100
AcDbEntity
  8
0
100
AcDbVertex
100
AcDb2dVertex
 10
619.660645
 20
345.845978
 30
0.0
  0
VERTEX
  5
146
100
AcDbEntity
  8
0
100
AcDbVertex
100
AcDb2dVertex
 10
619.231995
 20
345.845978
 30
0.0
  0
VERTEX
  5
147
100
AcDbEntity
  8
0
100
AcDbVertex
100
AcDb2dVertex
 10
619.302612
 20
345.442505
 30
0.0
  0
VERTEX
  5
148
100
AcDbEntity
  8
0
100
AcDbVertex
100
AcDb2dVertex
 10
619.509338
 20
345.149994
 30
0.0
  0
VERTEX
  5
149
100
AcDbEntity
  8
0
100
AcDbVertex
100
AcDb2dVertex
 10
619.837158
 20
344.97348
 30
0.0
  0
VERTEX
  5
14A
100
AcDbEntity
  8
0
100
AcDbVertex
100
AcDb2dVertex
 10
620.291077
 20
344.907928
 30
0.0
  0
VERTEX
  5
14B
100
AcDbEntity
  8
0
100
AcDbVertex
100
AcDb2dVertex
 10
620.765137
 20
344.97348
 30
0.0
  0
VERTEX
  5
14C
100
AcDbEntity
  8
0
100
AcDbVertex
100
AcDb2dVertex
 10
621.113098
 20
345.149994
 30
0.0
  0
VERTEX
  5
14D
100
AcDbEntity
  8
0
100
AcDbVertex
100
AcDb2dVertex
 10
621.324951
 20
345.432434
 30
0.0
  0
VERTEX
  5
14E
100
AcDbEntity
  8
0
100
AcDbVertex
100
AcDb2dVertex
 10
621.400574
 20
345.800598
 30
0.0
  0
VERTEX
  5
14F
100
AcDbEntity
  8
0
100
AcDbVertex
100
AcDb2dVertex
 10
621.345093
 20
346.118317
 30
0.0
  0
VERTEX
  5
150
100
AcDbEntity
  8
0
100
AcDbVertex
100
AcDb2dVertex
 10
621.188782
 20
346.335175
 30
0.0
  0
VERTEX
  5
151
100
AcDbEntity
  8
0
100
AcDbVertex
100
AcDb2dVertex
 10
620.93158
 20
346.476379
 30
0.0
  0
SEQEND
  5
152
100
AcDbEntity
  8
0
  0
POLYLINE
  5
153
100
AcDbEntity
  8
0
 62
     7
100
AcDb2dPolyline
 66
     1
 10
0.0
 20
0.0
 30
0.0
 70
     1
 71
    10
  0
VERTEX
  5
154
100
AcDbEntity
  8
0
100
AcDbVertex
100
AcDb2dVertex
 10
623.654907
 20
345.376953
 30
0.0
  0
VERTEX
  5
155
100
AcDbEntity
  8
0
100
AcDbVertex
100
AcDb2dVertex
 10
623.654907
 20
347.621185
 30
0.0
  0
VERTEX
  5
156
100
AcDbEntity
  8
0
100
AcDbVertex
100
AcDb2dVertex
 10
622.515137
 20
347.621185
 30
0.0
  0
VERTEX
  5
157
100
AcDbEntity
  8
0
100
AcDbVertex
100
AcDb2dVertex
 10
622.515137
 20
347.24295
 30
0.0
  0
VERTEX
  5
158
100
AcDbEntity
  8
0
100
AcDbVertex
100
AcDb2dVertex
 10
623.211121
 20
347.24295
 30
0.0
  0
VERTEX
  5
159
100
AcDbEntity
  8
0
100
AcDbVertex
100
AcDb2dVertex
 10
623.211121
 20
345.376953
 30
0.0
  0
VERTEX
  5
15A
100
AcDbEntity
  8
0
100
AcDbVertex
100
AcDb2dVertex
 10
622.303345
 20
345.376953
 30
0.0
  0
VERTEX
  5
15B
100
AcDbEntity
  8
0
100
AcDbVertex
100
AcDb2dVertex
 10
622.303345
 20
345.003754
 30
0.0
  0
VERTEX
  5
15C
100
AcDbEntity
  8
0
100
AcDbVertex
100
AcDb2dVertex
 10
624.572754
 20
345.003754
 30
0.0
  0
VERTEX
  5
15D
100
AcDbEntity
  8
0
100
AcDbVertex
100
AcDb2dVertex
 10
624.572754
 20
345.376953
 30
0.0
  0
SEQEND
  5
15E
100
AcDbEntity
  8
0
  0
POLYLINE
  5
15F
100
AcDbEntity
  8
0
 62
     7
100
AcDb2dPolyline
 66
     1
 10
0.0
 20
0.0
 30
0.0
 70
     1
 71
     4
  0
VERTEX
  5
160
100
AcDbEntity
  8
0
100
AcDbVertex
100
AcDb2dVertex
 10
623.670044
 20
348.624786
 30
0.0
  0
VERTEX
  5
161
100
AcDbEntity
  8
0
100
AcDbVertex
100
AcDb2dVertex
 10
623.200989
 20
348.624786
 30
0.0
  0
VERTEX
  5
162
100
AcDbEntity
  8
0
100
AcDbVertex
100
AcDb2dVertex
 10
623.200989
 20
348.120483
 30
0.0
  0
VERTEX
  5
163
100
AcDbEntity
  8
0
100
AcDbVertex
100
AcDb2dVertex
 10
623.670044
 20
348.120483
 30
0.0
  0
SEQEND
  5
164
100
AcDbEntity
  8
0
  0
POLYLINE
  5
165
100
AcDbEntity
  8
0
 62
     7
100
AcDb2dPolyline
 66
     1
 10
0.0
 20
0.0
 30
0.0
 70
     1
 71
    34
  0
VERTEX
  5
166
100
AcDbEntity
  8
0
100
AcDbVertex
100
AcDb2dVertex
 10
627.059082
 20
346.81427
 30
0.0
  0
VERTEX
  5
167
100
AcDbEntity
  8
0
100
AcDbVertex
100
AcDb2dVertex
 10
627.497864
 20
346.81427
 30
0.0
  0
VERTEX
  5
168
100
AcDbEntity
  8
0
100
AcDbVertex
100
AcDb2dVertex
 10
627.407043
 20
347.217743
 30
0.0
  0
VERTEX
  5
169
100
AcDbEntity
  8
0
100
AcDbVertex
100
AcDb2dVertex
 10
627.190186
 20
347.535461
 30
0.0
  0
VERTEX
  5
16A
100
AcDbEntity
  8
0
100
AcDbVertex
100
AcDb2dVertex
 10
626.852295
 20
347.732147
 30
0.0
  0
VERTEX
  5
16B
100
AcDbEntity
  8
0
100
AcDbVertex
100
AcDb2dVertex
 10
626.413574
 20
347.8078
 30
0.0
  0
VERTEX
  5
16C
100
AcDbEntity
  8
0
100
AcDbVertex
100
AcDb2dVertex
 10
625.929382
 20
347.706909
 30
0.0
  0
VERTEX
  5
16D
100
AcDbEntity
  8
0
100
AcDbVertex
100
AcDb2dVertex
 10
625.561218
 20
347.4245
 30
0.0
  0
VERTEX
  5
16E
100
AcDbEntity
  8
0
100
AcDbVertex
100
AcDb2dVertex
 10
625.329224
 20
346.965576
 30
0.0
  0
VERTEX
  5
16F
100
AcDbEntity
  8
0
100
AcDbVertex
100
AcDb2dVertex
 10
625.248535
 20
346.350281
 30
0.0
  0
VERTEX
  5
170
100
AcDbEntity
  8
0
100
AcDbVertex
100
AcDb2dVertex
 10
625.324219
 20
345.740051
 30
0.0
  0
VERTEX
  5
171
100
AcDbEntity
  8
0
100
AcDbVertex
100
AcDb2dVertex
 10
625.551147
 20
345.286163
 30
0.0
  0
VERTEX
  5
172
100
AcDbEntity
  8
0
100
AcDbVertex
100
AcDb2dVertex
 10
625.909241
 20
345.003754
 30
0.0
  0
VERTEX
  5
173
100
AcDbEntity
  8
0
100
AcDbVertex
100
AcDb2dVertex
 10
626.398438
 20
344.907928
 30
0.0
  0
VERTEX
  5
174
100
AcDbEntity
  8
0
100
AcDbVertex
100
AcDb2dVertex
 10
626.832153
 20
344.983582
 30
0.0
  0
VERTEX
  5
175
100
AcDbEntity
  8
0
100
AcDbVertex
100
AcDb2dVertex
 10
627.170044
 20
345.195404
 30
0.0
  0
VERTEX
  5
176
100
AcDbEntity
  8
0
100
AcDbVertex
100
AcDb2dVertex
 10
627.402039
 20
345.528259
 30
0.0
  0
VERTEX
  5
177
100
AcDbEntity
  8
0
100
AcDbVertex
100
AcDb2dVertex
 10
627.502869
 20
345.972046
 30
0.0
  0
VERTEX
  5
178
100
AcDbEntity
  8
0
100
AcDbVertex
100
AcDb2dVertex
 10
627.079224
 20
345.972046
 30
0.0
  0
VERTEX
  5
179
100
AcDbEntity
  8
0
100
AcDbVertex
100
AcDb2dVertex
 10
627.003601
 20
345.689636
 30
0.0
  0
VERTEX
  5
17A
100
AcDbEntity
  8
0
100
AcDbVertex
100
AcDb2dVertex
 10
626.862366
 20
345.477814
 30
0.0
  0
VERTEX
  5
17B
100
AcDbEntity
  8
0
100
AcDbVertex
100
AcDb2dVertex
 10
626.660645
 20
345.34668
 30
0.0
  0
VERTEX
  5
17C
100
AcDbEntity
  8
0
100
AcDbVertex
100
AcDb2dVertex
 10
626.413574
 20
345.306335
 30
0.0
  0
VERTEX
  5
17D
100
AcDbEntity
  8
0
100
AcDbVertex
100
AcDb2dVertex
 10
626.105896
 20
345.371918
 30
0.0
  0
VERTEX
  5
17E
100
AcDbEntity
  8
0
100
AcDbVertex
100
AcDb2dVertex
 10
625.884033
 20
345.573639
 30
0.0
  0
VERTEX
  5
17F
100
AcDbEntity
  8
0
100
AcDbVertex
100
AcDb2dVertex
 10
625.747864
 20
345.901459
 30
0.0
  0
VERTEX
  5
180
100
AcDbEntity
  8
0
100
AcDbVertex
100
AcDb2dVertex
 10
625.702454
 20
346.365417
 30
0.0
  0
VERTEX
  5
181
100
AcDbEntity
  8
0
100
AcDbVertex
100
AcDb2dVertex
 10
625.747864
 20
346.819305
 30
0.0
  0
VERTEX
  5
182
100
AcDbEntity
  8
0
100
AcDbVertex
100
AcDb2dVertex
 10
625.889038
 20
347.147125
 30
0.0
  0
VERTEX
  5
183
100
AcDbEntity
  8
0
100
AcDbVertex
100
AcDb2dVertex
 10
626.115967
 20
347.348846
 30
0.0
  0
VERTEX
  5
184
100
AcDbEntity
  8
0
100
AcDbVertex
100
AcDb2dVertex
 10
626.413574
 20
347.419464
 30
0.0
  0
VERTEX
  5
185
100
AcDbEntity
  8
0
100
AcDbVertex
100
AcDb2dVertex
 10
626.675781
 20
347.374084
 30
0.0
  0
VERTEX
  5
186
100
AcDbEntity
  8
0
100
AcDbVertex
100
AcDb2dVertex
 10
626.872498
 20
347.258087
 30
0.0
  0
VERTEX
  5
187
100
AcDbEntity
  8
0
100
AcDbVertex
100
AcDb2dVertex
 10
627.003601
 20
347.066437
 30
0.0
  0
SEQEND
  5
188
100
AcDbEntity
  8
0
  0
POLYLINE
  5
189
100
AcDbEntity
  8
0
 62
     7
100
AcDb2dPolyline
 66
     1
 10
0.0
 20
0.0
 30
0.0
 70
     1
 71
    24
  0
VERTEX
  5
18A
100
AcDbEntity
  8
0
100
AcDbVertex
100
AcDb2dVertex
 10
628.3703
 20
345.003754
 30
0.0
  0
VERTEX
  5
18B
100
AcDbEntity
  8
0
100
AcDbVertex
100
AcDb2dVertex
 10
628.814087
 20
345.003754
 30
0.0
  0
VERTEX
  5
18C
100
AcDbEntity
  8
0
100
AcDbVertex
100
AcDb2dVertex
 10
628.814087
 20
346.567169
 30
0.0
  0
VERTEX
  5
18D
100
AcDbEntity
  8
0
100
AcDbVertex
100
AcDb2dVertex
 10
628.859497
 20
346.925232
 30
0.0
  0
VERTEX
  5
18E
100
AcDbEntity
  8
0
100
AcDbVertex
100
AcDb2dVertex
 10
629.005737
 20
347.187469
 30
0.0
  0
VERTEX
  5
18F
100
AcDbEntity
  8
0
100
AcDbVertex
100
AcDb2dVertex
 10
629.232727
 20
347.348846
 30
0.0
  0
VERTEX
  5
190
100
AcDbEntity
  8
0
100
AcDbVertex
100
AcDb2dVertex
 10
629.535278
 20
347.409363
 30
0.0
  0
VERTEX
  5
191
100
AcDbEntity
  8
0
100
AcDbVertex
100
AcDb2dVertex
 10
629.777344
 20
347.358948
 30
0.0
  0
VERTEX
  5
192
100
AcDbEntity
  8
0
100
AcDbVertex
100
AcDb2dVertex
 10
629.92865
 20
347.222778
 30
0.0
  0
VERTEX
  5
193
100
AcDbEntity
  8
0
100
AcDbVertex
100
AcDb2dVertex
 10
630.004333
 20
346.995819
 30
0.0
  0
VERTEX
  5
194
100
AcDbEntity
  8
0
100
AcDbVertex
100
AcDb2dVertex
 10
630.029541
 20
346.693237
 30
0.0
  0
VERTEX
  5
195
100
AcDbEntity
  8
0
100
AcDbVertex
100
AcDb2dVertex
 10
630.029541
 20
345.003754
 30
0.0
  0
VERTEX
  5
196
100
AcDbEntity
  8
0
100
AcDbVertex
100
AcDb2dVertex
 10
630.473328
 20
345.003754
 30
0.0
  0
VERTEX
  5
197
100
AcDbEntity
  8
0
100
AcDbVertex
100
AcDb2dVertex
 10
630.473328
 20
346.784027
 30
0.0
  0
VERTEX
  5
198
100
AcDbEntity
  8
0
100
AcDbVertex
100
AcDb2dVertex
 10
630.453186
 20
347.14209
 30
0.0
  0
VERTEX
  5
199
100
AcDbEntity
  8
0
100
AcDbVertex
100
AcDb2dVertex
 10
630.362366
 20
347.439636
 30
0.0
  0
VERTEX
  5
19A
100
AcDbEntity
  8
0
100
AcDbVertex
100
AcDb2dVertex
 10
630.064819
 20
347.711975
 30
0.0
  0
VERTEX
  5
19B
100
AcDbEntity
  8
0
100
AcDbVertex
100
AcDb2dVertex
 10
629.600891
 20
347.8078
 30
0.0
  0
VERTEX
  5
19C
100
AcDbEntity
  8
0
100
AcDbVertex
100
AcDb2dVertex
 10
629.348694
 20
347.772491
 30
0.0
  0
VERTEX
  5
19D
100
AcDbEntity
  8
0
100
AcDbVertex
100
AcDb2dVertex
 10
629.131836
 20
347.676666
 30
0.0
  0
VERTEX
  5
19E
100
AcDbEntity
  8
0
100
AcDbVertex
100
AcDb2dVertex
 10
628.950317
 20
347.52536
 30
0.0
  0
VERTEX
  5
19F
100
AcDbEntity
  8
0
100
AcDbVertex
100
AcDb2dVertex
 10
628.814087
 20
347.318604
 30
0.0
  0
VERTEX
  5
1A0
100
AcDbEntity
  8
0
100
AcDbVertex
100
AcDb2dVertex
 10
628.814087
 20
348.624786
 30
0.0
  0
VERTEX
  5
1A1
100
AcDbEntity
  8
0
100
AcDbVertex
100
AcDb2dVertex
 10
628.3703
 20
348.624786
 30
0.0
  0
SEQEND
  5
1A2
100
AcDbEntity
  8
0
  0
POLYLINE
  5
1A3
100
AcDbEntity
  8
0
 62
     7
100
AcDb2dPolyline
 66
     1
 10
0.0
 20
0.0
 30
0.0
 70
     1
 71
    22
  0
VERTEX
  5
1A4
100
AcDbEntity
  8
0
100
AcDbVertex
100
AcDb2dVertex
 10
632.001465
 20
347.24295
 30
0.0
  0
VERTEX
  5
1A5
100
AcDbEntity
  8
0
100
AcDbVertex
100
AcDb2dVertex
 10
632.001465
 20
345.886322
 30
0.0
  0
VERTEX
  5
1A6
100
AcDbEntity
  8
0
100
AcDbVertex
100
AcDb2dVertex
 10
632.031677
 20
345.447571
 30
0.0
  0
VERTEX
  5
1A7
100
AcDbEntity
  8
0
100
AcDbVertex
100
AcDb2dVertex
 10
632.172913
 20
345.144958
 30
0.0
  0
VERTEX
  5
1A8
100
AcDbEntity
  8
0
100
AcDbVertex
100
AcDb2dVertex
 10
632.455322
 20
344.968445
 30
0.0
  0
VERTEX
  5
1A9
100
AcDbEntity
  8
0
100
AcDbVertex
100
AcDb2dVertex
 10
632.934448
 20
344.907928
 30
0.0
  0
VERTEX
  5
1AA
100
AcDbEntity
  8
0
100
AcDbVertex
100
AcDb2dVertex
 10
633.458923
 20
344.933136
 30
0.0
  0
VERTEX
  5
1AB
100
AcDbEntity
  8
0
100
AcDbVertex
100
AcDb2dVertex
 10
633.458923
 20
345.316437
 30
0.0
  0
VERTEX
  5
1AC
100
AcDbEntity
  8
0
100
AcDbVertex
100
AcDb2dVertex
 10
633.075623
 20
345.286163
 30
0.0
  0
VERTEX
  5
1AD
100
AcDbEntity
  8
0
100
AcDbVertex
100
AcDb2dVertex
 10
632.727661
 20
345.326508
 30
0.0
  0
VERTEX
  5
1AE
100
AcDbEntity
  8
0
100
AcDbVertex
100
AcDb2dVertex
 10
632.541077
 20
345.452606
 30
0.0
  0
VERTEX
  5
1AF
100
AcDbEntity
  8
0
100
AcDbVertex
100
AcDb2dVertex
 10
632.460388
 20
345.664429
 30
0.0
  0
VERTEX
  5
1B0
100
AcDbEntity
  8
0
100
AcDbVertex
100
AcDb2dVertex
 10
632.445251
 20
345.961975
 30
0.0
  0
VERTEX
  5
1B1
100
AcDbEntity
  8
0
100
AcDbVertex
100
AcDb2dVertex
 10
632.445251
 20
347.24295
 30
0.0
  0
VERTEX
  5
1B2
100
AcDbEntity
  8
0
100
AcDbVertex
100
AcDb2dVertex
 10
633.458923
 20
347.24295
 30
0.0
  0
VERTEX
  5
1B3
100
AcDbEntity
  8
0
100
AcDbVertex
100
AcDb2dVertex
 10
633.458923
 20
347.621185
 30
0.0
  0
VERTEX
  5
1B4
100
AcDbEntity
  8
0
100
AcDbVertex
100
AcDb2dVertex
 10
632.445251
 20
347.621185
 30
0.0
  0
VERTEX
  5
1B5
100
AcDbEntity
  8
0
100
AcDbVertex
100
AcDb2dVertex
 10
632.445251
 20
348.412964
 30
0.0
  0
VERTEX
  5
1B6
100
AcDbEntity
  8
0
100
AcDbVertex
100
AcDb2dVertex
 10
632.001465
 20
348.412964
 30
0.0
  0
VERTEX
  5
1B7
100
AcDbEntity
  8
0
100
AcDbVertex
100
AcDb2dVertex
 10
632.001465
 20
347.621185
 30
0.0
  0
VERTEX
  5
1B8
100
AcDbEntity
  8
0
100
AcDbVertex
100
AcDb2dVertex
 10
631.234863
 20
347.621185
 30
0.0
  0
VERTEX
  5
1B9
100
AcDbEntity
  8
0
100
AcDbVertex
100
AcDb2dVertex
 10
631.234863
 20
347.24295
 30
0.0
  0
SEQEND
  5
1BA
100
AcDbEntity
  8
0
  0
POLYLINE
  5
1BB
100
AcDbEntity
  8
0
 62
     7
100
AcDb2dPolyline
 66
     1
 10
0.0
 20
0.0
 30
0.0
 70
     1
 71
    13
  0
VERTEX
  5
1BC
100
AcDbEntity
  8
0
100
AcDbVertex
100
AcDb2dVertex
 10
594.757202
 20
338.956909
 30
0.0
  0
VERTEX
  5
1BD
100
AcDbEntity
  8
0
100
AcDbVertex
100
AcDb2dVertex
 10
595.145508
 20
338.956909
 30
0.0
  0
VERTEX
  5
1BE
100
AcDbEntity
  8
0
100
AcDbVertex
100
AcDb2dVertex
 10
595.145508
 20
342.134155
 30
0.0
  0
VERTEX
  5
1BF
100
AcDbEntity
  8
0
100
AcDbVertex
100
AcDb2dVertex
 10
595.801147
 20
338.956909
 30
0.0
  0
VERTEX
  5
1C0
100
AcDbEntity
  8
0
100
AcDbVertex
100
AcDb2dVertex
 10
596.234863
 20
338.956909
 30
0.0
  0
VERTEX
  5
1C1
100
AcDbEntity
  8
0
100
AcDbVertex
100
AcDb2dVertex
 10
596.885437
 20
342.134155
 30
0.0
  0
VERTEX
  5
1C2
100
AcDbEntity
  8
0
100
AcDbVertex
100
AcDb2dVertex
 10
596.885437
 20
338.956909
 30
0.0
  0
VERTEX
  5
1C3
100
AcDbEntity
  8
0
100
AcDbVertex
100
AcDb2dVertex
 10
597.278809
 20
338.956909
 30
0.0
  0
VERTEX
  5
1C4
100
AcDbEntity
  8
0
100
AcDbVertex
100
AcDb2dVertex
 10
597.278809
 20
342.456909
 30
0.0
  0
VERTEX
  5
1C5
100
AcDbEntity
  8
0
100
AcDbVertex
100
AcDb2dVertex
 10
596.663574
 20
342.456909
 30
0.0
  0
VERTEX
  5
1C6
100
AcDbEntity
  8
0
100
AcDbVertex
100
AcDb2dVertex
 10
596.018005
 20
339.370453
 30
0.0
  0
VERTEX
  5
1C7
100
AcDbEntity
  8
0
100
AcDbVertex
100
AcDb2dVertex
 10
595.377502
 20
342.456909
 30
0.0
  0
VERTEX
  5
1C8
100
AcDbEntity
  8
0
100
AcDbVertex
100
AcDb2dVertex
 10
594.757202
 20
342.456909
 30
0.0
  0
SEQEND
  5
1C9
100
AcDbEntity
  8
0
  0
POLYLINE
  5
1CA
100
AcDbEntity
  8
0
 62
     7
100
AcDb2dPolyline
 66
     1
 10
0.0
 20
0.0
 30
0.0
 70
     1
 71
    42
  0
VERTEX
  5
1CB
100
AcDbEntity
  8
0
100
AcDbVertex
100
AcDb2dVertex
 10
599.618896
 20
339.309937
 30
0.0
  0
VERTEX
  5
1CC
100
AcDbEntity
  8
0
100
AcDbVertex
100
AcDb2dVertex
 10
599.618896
 20
339.2948
 30
0.0
  0
VERTEX
  5
1CD
100
AcDbEntity
  8
0
100
AcDbVertex
100
AcDb2dVertex
 10
599.644104
 20
339.123322
 30
0.0
  0
VERTEX
  5
1CE
100
AcDbEntity
  8
0
100
AcDbVertex
100
AcDb2dVertex
 10
599.719727
 20
339.002289
 30
0.0
  0
VERTEX
  5
1CF
100
AcDbEntity
  8
0
100
AcDbVertex
100
AcDb2dVertex
 10
600.037476
 20
338.906464
 30
0.0
  0
VERTEX
  5
1D0
100
AcDbEntity
  8
0
100
AcDbVertex
100
AcDb2dVertex
 10
600.284607
 20
338.946808
 30
0.0
  0
VERTEX
  5
1D1
100
AcDbEntity
  8
0
100
AcDbVertex
100
AcDb2dVertex
 10
600.284607
 20
339.289764
 30
0.0
  0
VERTEX
  5
1D2
100
AcDbEntity
  8
0
100
AcDbVertex
100
AcDb2dVertex
 10
600.17865
 20
339.274628
 30
0.0
  0
VERTEX
  5
1D3
100
AcDbEntity
  8
0
100
AcDbVertex
100
AcDb2dVertex
 10
600.037476
 20
339.340179
 30
0.0
  0
VERTEX
  5
1D4
100
AcDbEntity
  8
0
100
AcDbVertex
100
AcDb2dVertex
 10
600.012268
 20
339.541931
 30
0.0
  0
VERTEX
  5
1D5
100
AcDbEntity
  8
0
100
AcDbVertex
100
AcDb2dVertex
 10
600.012268
 20
340.943939
 30
0.0
  0
VERTEX
  5
1D6
100
AcDbEntity
  8
0
100
AcDbVertex
100
AcDb2dVertex
 10
599.951721
 20
341.302002
 30
0.0
  0
VERTEX
  5
1D7
100
AcDbEntity
  8
0
100
AcDbVertex
100
AcDb2dVertex
 10
599.775208
 20
341.554169
 30
0.0
  0
VERTEX
  5
1D8
100
AcDbEntity
  8
0
100
AcDbVertex
100
AcDb2dVertex
 10
599.46759
 20
341.705475
 30
0.0
  0
VERTEX
  5
1D9
100
AcDbEntity
  8
0
100
AcDbVertex
100
AcDb2dVertex
 10
599.033875
 20
341.760956
 30
0.0
  0
VERTEX
  5
1DA
100
AcDbEntity
  8
0
100
AcDbVertex
100
AcDb2dVertex
 10
598.610229
 20
341.700439
 30
0.0
  0
VERTEX
  5
1DB
100
AcDbEntity
  8
0
100
AcDbVertex
100
AcDb2dVertex
 10
598.297546
 20
341.528961
 30
0.0
  0
VERTEX
  5
1DC
100
AcDbEntity
  8
0
100
AcDbVertex
100
AcDb2dVertex
 10
598.100891
 20
341.261658
 30
0.0
  0
VERTEX
  5
1DD
100
AcDbEntity
  8
0
100
AcDbVertex
100
AcDb2dVertex
 10
598.035278
 20
340.90863
 30
0.0
  0
VERTEX
  5
1DE
100
AcDbEntity
  8
0
100
AcDbVertex
100
AcDb2dVertex
 10
598.035278
 20
340.878387
 30
0.0
  0
VERTEX
  5
1DF
100
AcDbEntity
  8
0
100
AcDbVertex
100
AcDb2dVertex
 10
598.433716
 20
340.878387
 30
0.0
  0
VERTEX
  5
1E0
100
AcDbEntity
  8
0
100
AcDbVertex
100
AcDb2dVertex
 10
598.468994
 20
341.090179
 30
0.0
  0
VERTEX
  5
1E1
100
AcDbEntity
  8
0
100
AcDbVertex
100
AcDb2dVertex
 10
598.579956
 20
341.241486
 30
0.0
  0
VERTEX
  5
1E2
100
AcDbEntity
  8
0
100
AcDbVertex
100
AcDb2dVertex
 10
598.761536
 20
341.332275
 30
0.0
  0
VERTEX
  5
1E3
100
AcDbEntity
  8
0
100
AcDbVertex
100
AcDb2dVertex
 10
599.018738
 20
341.367584
 30
0.0
  0
VERTEX
  5
1E4
100
AcDbEntity
  8
0
100
AcDbVertex
100
AcDb2dVertex
 10
599.265869
 20
341.342346
 30
0.0
  0
VERTEX
  5
1E5
100
AcDbEntity
  8
0
100
AcDbVertex
100
AcDb2dVertex
 10
599.442383
 20
341.266693
 30
0.0
  0
VERTEX
  5
1E6
100
AcDbEntity
  8
0
100
AcDbVertex
100
AcDb2dVertex
 10
599.548279
 20
341.13559
 30
0.0
  0
VERTEX
  5
1E7
100
AcDbEntity
  8
0
100
AcDbVertex
100
AcDb2dVertex
 10
599.583557
 20
340.954041
 30
0.0
  0
VERTEX
  5
1E8
100
AcDbEntity
  8
0
100
AcDbVertex
100
AcDb2dVertex
 10
599.563416
 20
340.742218
 30
0.0
  0
VERTEX
  5
1E9
100
AcDbEntity
  8
0
100
AcDbVertex
100
AcDb2dVertex
 10
599.482727
 20
340.636292
 30
0.0
  0
VERTEX
  5
1EA
100
AcDbEntity
  8
0
100
AcDbVertex
100
AcDb2dVertex
 10
599.281006
 20
340.585876
 30
0.0
  0
VERTEX
  5
1EB
100
AcDbEntity
  8
0
100
AcDbVertex
100
AcDb2dVertex
 10
598.90271
 20
340.545532
 30
0.0
  0
VERTEX
  5
1EC
100
AcDbEntity
  8
0
100
AcDbVertex
100
AcDb2dVertex
 10
598.468994
 20
340.454742
 30
0.0
  0
VERTEX
  5
1ED
100
AcDbEntity
  8
0
100
AcDbVertex
100
AcDb2dVertex
 10
598.161377
 20
340.293365
 30
0.0
  0
VERTEX
  5
1EE
100
AcDbEntity
  8
0
100
AcDbVertex
100
AcDb2dVertex
 10
597.979797
 20
340.041199
 30
0.0
  0
VERTEX
  5
1EF
100
AcDbEntity
  8
0
100
AcDbVertex
100
AcDb2dVertex
 10
597.924377
 20
339.667999
 30
0.0
  0
VERTEX
  5
1F0
100
AcDbEntity
  8
0
100
AcDbVertex
100
AcDb2dVertex
 10
597.974792
 20
339.335144
 30
0.0
  0
VERTEX
  5
1F1
100
AcDbEntity
  8
0
100
AcDbVertex
100
AcDb2dVertex
 10
598.131104
 20
339.088043
 30
0.0
  0
VERTEX
  5
1F2
100
AcDbEntity
  8
0
100
AcDbVertex
100
AcDb2dVertex
 10
598.383301
 20
338.931702
 30
0.0
  0
VERTEX
  5
1F3
100
AcDbEntity
  8
0
100
AcDbVertex
100
AcDb2dVertex
 10
598.731262
 20
338.876221
 30
0.0
  0
VERTEX
  5
1F4
100
AcDbEntity
  8
0
100
AcDbVertex
100
AcDb2dVertex
 10
599.200317
 20
338.982117
 30
0.0
  0
SEQEND
  5
1F5
100
AcDbEntity
  8
0
  0
POLYLINE
  5
1F6
100
AcDbEntity
  8
0
 62
     7
100
AcDb2dPolyline
 66
     1
 10
0.0
 20
0.0
 30
0.0
 70
     1
 71
    14
  0
VERTEX
  5
1F7
100
AcDbEntity
  8
0
100
AcDbVertex
100
AcDb2dVertex
 10
599.56842
 20
339.905029
 30
0.0
  0
VERTEX
  5
1F8
100
AcDbEntity
  8
0
100
AcDbVertex
100
AcDb2dVertex
 10
599.507935
 20
339.642792
 30
0.0
  0
VERTEX
  5
1F9
100
AcDbEntity
  8
0
100
AcDbVertex
100
AcDb2dVertex
 10
599.346558
 20
339.441071
 30
0.0
  0
VERTEX
  5
1FA
100
AcDbEntity
  8
0
100
AcDbVertex
100
AcDb2dVertex
 10
599.104492
 20
339.309937
 30
0.0
  0
VERTEX
  5
1FB
100
AcDbEntity
  8
0
100
AcDbVertex
100
AcDb2dVertex
 10
598.806946
 20
339.264557
 30
0.0
  0
VERTEX
  5
1FC
100
AcDbEntity
  8
0
100
AcDbVertex
100
AcDb2dVertex
 10
598.615295
 20
339.289764
 30
0.0
  0
VERTEX
  5
1FD
100
AcDbEntity
  8
0
100
AcDbVertex
100
AcDb2dVertex
 10
598.479126
 20
339.370453
 30
0.0
  0
VERTEX
  5
1FE
100
AcDbEntity
  8
0
100
AcDbVertex
100
AcDb2dVertex
 10
598.393372
 20
339.511658
 30
0.0
  0
VERTEX
  5
1FF
100
AcDbEntity
  8
0
100
AcDbVertex
100
AcDb2dVertex
 10
598.368164
 20
339.708344
 30
0.0
  0
VERTEX
  5
200
100
AcDbEntity
  8
0
100
AcDbVertex
100
AcDb2dVertex
 10
598.388306
 20
339.884857
 30
0.0
  0
VERTEX
  5
201
100
AcDbEntity
  8
0
100
AcDbVertex
100
AcDb2dVertex
 10
598.468994
 20
340.010956
 30
0.0
  0
VERTEX
  5
202
100
AcDbEntity
  8
0
100
AcDbVertex
100
AcDb2dVertex
 10
598.791809
 20
340.152161
 30
0.0
  0
VERTEX
  5
203
100
AcDbEntity
  8
0
100
AcDbVertex
100
AcDb2dVertex
 10
599.200317
 20
340.212677
 30
0.0
  0
VERTEX
  5
204
100
AcDbEntity
  8
0
100
AcDbVertex
100
AcDb2dVertex
 10
599.56842
 20
340.33371
 30
0.0
  0
SEQEND
  5
205
100
AcDbEntity
  8
0
  0
POLYLINE
  5
206
100
AcDbEntity
  8
0
 62
     7
100
AcDb2dPolyline
 66
     1
 10
0.0
 20
0.0
 30
0.0
 70
     1
 71
    47
  0
VERTEX
  5
207
100
AcDbEntity
  8
0
100
AcDbVertex
100
AcDb2dVertex
 10
601.076355
 20
338.956909
 30
0.0
  0
VERTEX
  5
208
100
AcDbEntity
  8
0
100
AcDbVertex
100
AcDb2dVertex
 10
601.510071
 20
338.956909
 30
0.0
  0
VERTEX
  5
209
100
AcDbEntity
  8
0
100
AcDbVertex
100
AcDb2dVertex
 10
601.510071
 20
341.47348
 30
0.0
  0
VERTEX
  5
20A
100
AcDbEntity
  8
0
100
AcDbVertex
100
AcDb2dVertex
 10
601.540344
 20
341.811371
 30
0.0
  0
VERTEX
  5
20B
100
AcDbEntity
  8
0
100
AcDbVertex
100
AcDb2dVertex
 10
601.64624
 20
342.053436
 30
0.0
  0
VERTEX
  5
20C
100
AcDbEntity
  8
0
100
AcDbVertex
100
AcDb2dVertex
 10
601.82782
 20
342.194672
 30
0.0
  0
VERTEX
  5
20D
100
AcDbEntity
  8
0
100
AcDbVertex
100
AcDb2dVertex
 10
602.095093
 20
342.245087
 30
0.0
  0
VERTEX
  5
20E
100
AcDbEntity
  8
0
100
AcDbVertex
100
AcDb2dVertex
 10
602.322021
 20
342.204742
 30
0.0
  0
VERTEX
  5
20F
100
AcDbEntity
  8
0
100
AcDbVertex
100
AcDb2dVertex
 10
602.498535
 20
342.088745
 30
0.0
  0
VERTEX
  5
210
100
AcDbEntity
  8
0
100
AcDbVertex
100
AcDb2dVertex
 10
602.609497
 20
341.912231
 30
0.0
  0
VERTEX
  5
211
100
AcDbEntity
  8
0
100
AcDbVertex
100
AcDb2dVertex
 10
602.649841
 20
341.680237
 30
0.0
  0
VERTEX
  5
212
100
AcDbEntity
  8
0
100
AcDbVertex
100
AcDb2dVertex
 10
602.604492
 20
341.428101
 30
0.0
  0
VERTEX
  5
213
100
AcDbEntity
  8
0
100
AcDbVertex
100
AcDb2dVertex
 10
602.478394
 20
341.251587
 30
0.0
  0
VERTEX
  5
214
100
AcDbEntity
  8
0
100
AcDbVertex
100
AcDb2dVertex
 10
602.271606
 20
341.140625
 30
0.0
  0
VERTEX
  5
215
100
AcDbEntity
  8
0
100
AcDbVertex
100
AcDb2dVertex
 10
601.989197
 20
341.105316
 30
0.0
  0
VERTEX
  5
216
100
AcDbEntity
  8
0
100
AcDbVertex
100
AcDb2dVertex
 10
601.913574
 20
341.105316
 30
0.0
  0
VERTEX
  5
217
100
AcDbEntity
  8
0
100
AcDbVertex
100
AcDb2dVertex
 10
601.913574
 20
340.737183
 30
0.0
  0
VERTEX
  5
218
100
AcDbEntity
  8
0
100
AcDbVertex
100
AcDb2dVertex
 10
601.989197
 20
340.737183
 30
0.0
  0
VERTEX
  5
219
100
AcDbEntity
  8
0
100
AcDbVertex
100
AcDb2dVertex
 10
602.342224
 20
340.691772
 30
0.0
  0
VERTEX
  5
21A
100
AcDbEntity
  8
0
100
AcDbVertex
100
AcDb2dVertex
 10
602.59436
 20
340.565704
 30
0.0
  0
VERTEX
  5
21B
100
AcDbEntity
  8
0
100
AcDbVertex
100
AcDb2dVertex
 10
602.745667
 20
340.353882
 30
0.0
  0
VERTEX
  5
21C
100
AcDbEntity
  8
0
100
AcDbVertex
100
AcDb2dVertex
 10
602.796082
 20
340.0513
 30
0.0
  0
VERTEX
  5
21D
100
AcDbEntity
  8
0
100
AcDbVertex
100
AcDb2dVertex
 10
602.740662
 20
339.728516
 30
0.0
  0
VERTEX
  5
21E
100
AcDbEntity
  8
0
100
AcDbVertex
100
AcDb2dVertex
 10
602.589355
 20
339.491486
 30
0.0
  0
VERTEX
  5
21F
100
AcDbEntity
  8
0
100
AcDbVertex
100
AcDb2dVertex
 10
602.362366
 20
339.340179
 30
0.0
  0
VERTEX
  5
220
100
AcDbEntity
  8
0
100
AcDbVertex
100
AcDb2dVertex
 10
602.090088
 20
339.289764
 30
0.0
  0
VERTEX
  5
221
100
AcDbEntity
  8
0
100
AcDbVertex
100
AcDb2dVertex
 10
601.883301
 20
339.320007
 30
0.0
  0
VERTEX
  5
222
100
AcDbEntity
  8
0
100
AcDbVertex
100
AcDb2dVertex
 10
601.883301
 20
338.906464
 30
0.0
  0
VERTEX
  5
223
100
AcDbEntity
  8
0
100
AcDbVertex
100
AcDb2dVertex
 10
602.175781
 20
338.871185
 30
0.0
  0
VERTEX
  5
224
100
AcDbEntity
  8
0
100
AcDbVertex
100
AcDb2dVertex
 10
602.599426
 20
338.956909
 30
0.0
  0
VERTEX
  5
225
100
AcDbEntity
  8
0
100
AcDbVertex
100
AcDb2dVertex
 10
602.942383
 20
339.204041
 30
0.0
  0
VERTEX
  5
226
100
AcDbEntity
  8
0
100
AcDbVertex
100
AcDb2dVertex
 10
603.169312
 20
339.592346
 30
0.0
  0
VERTEX
  5
227
100
AcDbEntity
  8
0
100
AcDbVertex
100
AcDb2dVertex
 10
603.255066
 20
340.101715
 30
0.0
  0
VERTEX
  5
228
100
AcDbEntity
  8
0
100
AcDbVertex
100
AcDb2dVertex
 10
603.214722
 20
340.399261
 30
0.0
  0
VERTEX
  5
229
100
AcDbEntity
  8
0
100
AcDbVertex
100
AcDb2dVertex
 10
603.10376
 20
340.656464
 30
0.0
  0
VERTEX
  5
22A
100
AcDbEntity
  8
0
100
AcDbVertex
100
AcDb2dVertex
 10
602.932251
 20
340.853149
 30
0.0
  0
VERTEX
  5
22B
100
AcDbEntity
  8
0
100
AcDbVertex
100
AcDb2dVertex
 10
602.700317
 20
340.979248
 30
0.0
  0
VERTEX
  5
22C
100
AcDbEntity
  8
0
100
AcDbVertex
100
AcDb2dVertex
 10
602.992798
 20
341.256622
 30
0.0
  0
VERTEX
  5
22D
100
AcDbEntity
  8
0
100
AcDbVertex
100
AcDb2dVertex
 10
603.093689
 20
341.720612
 30
0.0
  0
VERTEX
  5
22E
100
AcDbEntity
  8
0
100
AcDbVertex
100
AcDb2dVertex
 10
603.018005
 20
342.088745
 30
0.0
  0
VERTEX
  5
22F
100
AcDbEntity
  8
0
100
AcDbVertex
100
AcDb2dVertex
 10
602.82135
 20
342.381256
 30
0.0
  0
VERTEX
  5
230
100
AcDbEntity
  8
0
100
AcDbVertex
100
AcDb2dVertex
 10
602.503601
 20
342.562805
 30
0.0
  0
VERTEX
  5
231
100
AcDbEntity
  8
0
100
AcDbVertex
100
AcDb2dVertex
 10
602.100159
 20
342.633423
 30
0.0
  0
VERTEX
  5
232
100
AcDbEntity
  8
0
100
AcDbVertex
100
AcDb2dVertex
 10
601.656311
 20
342.562805
 30
0.0
  0
VERTEX
  5
233
100
AcDbEntity
  8
0
100
AcDbVertex
100
AcDb2dVertex
 10
601.338623
 20
342.356049
 30
0.0
  0
VERTEX
  5
234
100
AcDbEntity
  8
0
100
AcDbVertex
100
AcDb2dVertex
 10
601.141907
 20
342.013092
 30
0.0
  0
VERTEX
  5
235
100
AcDbEntity
  8
0
100
AcDbVertex
100
AcDb2dVertex
 10
601.076355
 20
341.539032
 30
0.0
  0
SEQEND
  5
236
100
AcDbEntity
  8
0
  0
POLYLINE
  5
237
100
AcDbEntity
  8
0
 62
     7
100
AcDb2dPolyline
 66
     1
 10
0.0
 20
0.0
 30
0.0
 70
     1
 71
    50
  0
VERTEX
  5
238
100
AcDbEntity
  8
0
100
AcDbVertex
100
AcDb2dVertex
 10
605.408508
 20
340.535431
 30
0.0
  0
VERTEX
  5
239
100
AcDbEntity
  8
0
100
AcDbVertex
100
AcDb2dVertex
 10
604.979797
 20
340.636292
 30
0.0
  0
VERTEX
  5
23A
100
AcDbEntity
  8
0
100
AcDbVertex
100
AcDb2dVertex
 10
604.662109
 20
340.752289
 30
0.0
  0
VERTEX
  5
23B
100
AcDbEntity
  8
0
100
AcDbVertex
100
AcDb2dVertex
 10
604.556213
 20
340.989319
 30
0.0
  0
VERTEX
  5
23C
100
AcDbEntity
  8
0
100
AcDbVertex
100
AcDb2dVertex
 10
604.586426
 20
341.155762
 30
0.0
  0
VERTEX
  5
23D
100
AcDbEntity
  8
0
100
AcDbVertex
100
AcDb2dVertex
 10
604.692383
 20
341.276794
 30
0.0
  0
VERTEX
  5
23E
100
AcDbEntity
  8
0
100
AcDbVertex
100
AcDb2dVertex
 10
604.863831
 20
341.352448
 30
0.0
  0
VERTEX
  5
23F
100
AcDbEntity
  8
0
100
AcDbVertex
100
AcDb2dVertex
 10
605.110962
 20
341.38269
 30
0.0
  0
VERTEX
  5
240
100
AcDbEntity
  8
0
100
AcDbVertex
100
AcDb2dVertex
 10
605.347961
 20
341.352448
 30
0.0
  0
VERTEX
  5
241
100
AcDbEntity
  8
0
100
AcDbVertex
100
AcDb2dVertex
 10
605.534607
 20
341.261658
 30
0.0
  0
VERTEX
  5
242
100
AcDbEntity
  8
0
100
AcDbVertex
100
AcDb2dVertex
 10
605.65564
 20
341.125488
 30
0.0
  0
VERTEX
  5
243
100
AcDbEntity
  8
0
100
AcDbVertex
100
AcDb2dVertex
 10
605.706055
 20
340.943939
 30
0.0
  0
VERTEX
  5
244
100
AcDbEntity
  8
0
100
AcDbVertex
100
AcDb2dVertex
 10
606.139771
 20
340.943939
 30
0.0
  0
VERTEX
  5
245
100
AcDbEntity
  8
0
100
AcDbVertex
100
AcDb2dVertex
 10
606.139771
 20
340.954041
 30
0.0
  0
VERTEX
  5
246
100
AcDbEntity
  8
0
100
AcDbVertex
100
AcDb2dVertex
 10
606.064148
 20
341.28183
 30
0.0
  0
VERTEX
  5
247
100
AcDbEntity
  8
0
100
AcDbVertex
100
AcDb2dVertex
 10
605.857361
 20
341.539032
 30
0.0
  0
VERTEX
  5
248
100
AcDbEntity
  8
0
100
AcDbVertex
100
AcDb2dVertex
 10
605.534607
 20
341.700439
 30
0.0
  0
VERTEX
  5
249
100
AcDbEntity
  8
0
100
AcDbVertex
100
AcDb2dVertex
 10
605.110962
 20
341.760956
 30
0.0
  0
VERTEX
  5
24A
100
AcDbEntity
  8
0
100
AcDbVertex
100
AcDb2dVertex
 10
604.682251
 20
341.700439
 30
0.0
  0
VERTEX
  5
24B
100
AcDbEntity
  8
0
100
AcDbVertex
100
AcDb2dVertex
 10
604.369568
 20
341.533997
 30
0.0
  0
VERTEX
  5
24C
100
AcDbEntity
  8
0
100
AcDbVertex
100
AcDb2dVertex
 10
604.172913
 20
341.286865
 30
0.0
  0
VERTEX
  5
24D
100
AcDbEntity
  8
0
100
AcDbVertex
100
AcDb2dVertex
 10
604.112366
 20
340.974213
 30
0.0
  0
VERTEX
  5
24E
100
AcDbEntity
  8
0
100
AcDbVertex
100
AcDb2dVertex
 10
604.157776
 20
340.6716
 30
0.0
  0
VERTEX
  5
24F
100
AcDbEntity
  8
0
100
AcDbVertex
100
AcDb2dVertex
 10
604.299011
 20
340.459778
 30
0.0
  0
VERTEX
  5
250
100
AcDbEntity
  8
0
100
AcDbVertex
100
AcDb2dVertex
 10
604.531006
 20
340.308502
 30
0.0
  0
VERTEX
  5
251
100
AcDbEntity
  8
0
100
AcDbVertex
100
AcDb2dVertex
 10
604.868896
 20
340.202576
 30
0.0
  0
VERTEX
  5
252
100
AcDbEntity
  8
0
100
AcDbVertex
100
AcDb2dVertex
 10
605.363098
 20
340.081543
 30
0.0
  0
VERTEX
  5
253
100
AcDbEntity
  8
0
100
AcDbVertex
100
AcDb2dVertex
 10
605.66571
 20
339.955475
 30
0.0
  0
VERTEX
  5
254
100
AcDbEntity
  8
0
100
AcDbVertex
100
AcDb2dVertex
 10
605.746399
 20
339.854614
 30
0.0
  0
VERTEX
  5
255
100
AcDbEntity
  8
0
100
AcDbVertex
100
AcDb2dVertex
 10
605.776672
 20
339.703308
 30
0.0
  0
VERTEX
  5
256
100
AcDbEntity
  8
0
100
AcDbVertex
100
AcDb2dVertex
 10
605.731262
 20
339.516693
 30
0.0
  0
VERTEX
  5
257
100
AcDbEntity
  8
0
100
AcDbVertex
100
AcDb2dVertex
 10
605.610229
 20
339.375488
 30
0.0
  0
VERTEX
  5
258
100
AcDbEntity
  8
0
100
AcDbVertex
100
AcDb2dVertex
 10
605.413574
 20
339.284729
 30
0.0
  0
VERTEX
  5
259
100
AcDbEntity
  8
0
100
AcDbVertex
100
AcDb2dVertex
 10
605.151306
 20
339.254456
 30
0.0
  0
VERTEX
  5
25A
100
AcDbEntity
  8
0
100
AcDbVertex
100
AcDb2dVertex
 10
604.873901
 20
339.284729
 30
0.0
  0
VERTEX
  5
25B
100
AcDbEntity
  8
0
100
AcDbVertex
100
AcDb2dVertex
 10
604.67218
 20
339.390625
 30
0.0
  0
VERTEX
  5
25C
100
AcDbEntity
  8
0
100
AcDbVertex
100
AcDb2dVertex
 10
604.536011
 20
339.562103
 30
0.0
  0
VERTEX
  5
25D
100
AcDbEntity
  8
0
100
AcDbVertex
100
AcDb2dVertex
 10
604.48053
 20
339.799133
 30
0.0
  0
VERTEX
  5
25E
100
AcDbEntity
  8
0
100
AcDbVertex
100
AcDb2dVertex
 10
604.05188
 20
339.799133
 30
0.0
  0
VERTEX
  5
25F
100
AcDbEntity
  8
0
100
AcDbVertex
100
AcDb2dVertex
 10
604.122498
 20
339.39566
 30
0.0
  0
VERTEX
  5
260
100
AcDbEntity
  8
0
100
AcDbVertex
100
AcDb2dVertex
 10
604.329224
 20
339.103149
 30
0.0
  0
VERTEX
  5
261
100
AcDbEntity
  8
0
100
AcDbVertex
100
AcDb2dVertex
 10
604.657043
 20
338.926636
 30
0.0
  0
VERTEX
  5
262
100
AcDbEntity
  8
0
100
AcDbVertex
100
AcDb2dVertex
 10
605.110962
 20
338.861084
 30
0.0
  0
VERTEX
  5
263
100
AcDbEntity
  8
0
100
AcDbVertex
100
AcDb2dVertex
 10
605.585022
 20
338.926636
 30
0.0
  0
VERTEX
  5
264
100
AcDbEntity
  8
0
100
AcDbVertex
100
AcDb2dVertex
 10
605.932983
 20
339.103149
 30
0.0
  0
VERTEX
  5
265
100
AcDbEntity
  8
0
100
AcDbVertex
100
AcDb2dVertex
 10
606.144836
 20
339.38559
 30
0.0
  0
VERTEX
  5
266
100
AcDbEntity
  8
0
100
AcDbVertex
100
AcDb2dVertex
 10
606.220459
 20
339.753754
 30
0.0
  0
VERTEX
  5
267
100
AcDbEntity
  8
0
100
AcDbVertex
100
AcDb2dVertex
 10
606.164978
 20
340.071472
 30
0.0
  0
VERTEX
  5
268
100
AcDbEntity
  8
0
100
AcDbVertex
100
AcDb2dVertex
 10
606.008667
 20
340.28833
 30
0.0
  0
VERTEX
  5
269
100
AcDbEntity
  8
0
100
AcDbVertex
100
AcDb2dVertex
 10
605.751465
 20
340.429535
 30
0.0
  0
SEQEND
  5
26A
100
AcDbEntity
  8
0
  0
POLYLINE
  5
26B
100
AcDbEntity
  8
0
 62
     7
100
AcDb2dPolyline
 66
     1
 10
0.0
 20
0.0
 30
0.0
 70
     1
 71
    22
  0
VERTEX
  5
26C
100
AcDbEntity
  8
0
100
AcDbVertex
100
AcDb2dVertex
 10
607.713257
 20
341.196106
 30
0.0
  0
VERTEX
  5
26D
100
AcDbEntity
  8
0
100
AcDbVertex
100
AcDb2dVertex
 10
607.713257
 20
339.839478
 30
0.0
  0
VERTEX
  5
26E
100
AcDbEntity
  8
0
100
AcDbVertex
100
AcDb2dVertex
 10
607.74353
 20
339.400726
 30
0.0
  0
VERTEX
  5
26F
100
AcDbEntity
  8
0
100
AcDbVertex
100
AcDb2dVertex
 10
607.884705
 20
339.098114
 30
0.0
  0
VERTEX
  5
270
100
AcDbEntity
  8
0
100
AcDbVertex
100
AcDb2dVertex
 10
608.167175
 20
338.9216
 30
0.0
  0
VERTEX
  5
271
100
AcDbEntity
  8
0
100
AcDbVertex
100
AcDb2dVertex
 10
608.64624
 20
338.861084
 30
0.0
  0
VERTEX
  5
272
100
AcDbEntity
  8
0
100
AcDbVertex
100
AcDb2dVertex
 10
609.170776
 20
338.886292
 30
0.0
  0
VERTEX
  5
273
100
AcDbEntity
  8
0
100
AcDbVertex
100
AcDb2dVertex
 10
609.170776
 20
339.269592
 30
0.0
  0
VERTEX
  5
274
100
AcDbEntity
  8
0
100
AcDbVertex
100
AcDb2dVertex
 10
608.787476
 20
339.239319
 30
0.0
  0
VERTEX
  5
275
100
AcDbEntity
  8
0
100
AcDbVertex
100
AcDb2dVertex
 10
608.439453
 20
339.279663
 30
0.0
  0
VERTEX
  5
276
100
AcDbEntity
  8
0
100
AcDbVertex
100
AcDb2dVertex
 10
608.252869
 20
339.405762
 30
0.0
  0
VERTEX
  5
277
100
AcDbEntity
  8
0
100
AcDbVertex
100
AcDb2dVertex
 10
608.17218
 20
339.617584
 30
0.0
  0
VERTEX
  5
278
100
AcDbEntity
  8
0
100
AcDbVertex
100
AcDb2dVertex
 10
608.157043
 20
339.915131
 30
0.0
  0
VERTEX
  5
279
100
AcDbEntity
  8
0
100
AcDbVertex
100
AcDb2dVertex
 10
608.157043
 20
341.196106
 30
0.0
  0
VERTEX
  5
27A
100
AcDbEntity
  8
0
100
AcDbVertex
100
AcDb2dVertex
 10
609.170776
 20
341.196106
 30
0.0
  0
VERTEX
  5
27B
100
AcDbEntity
  8
0
100
AcDbVertex
100
AcDb2dVertex
 10
609.170776
 20
341.574341
 30
0.0
  0
VERTEX
  5
27C
100
AcDbEntity
  8
0
100
AcDbVertex
100
AcDb2dVertex
 10
608.157043
 20
341.574341
 30
0.0
  0
VERTEX
  5
27D
100
AcDbEntity
  8
0
100
AcDbVertex
100
AcDb2dVertex
 10
608.157043
 20
342.366119
 30
0.0
  0
VERTEX
  5
27E
100
AcDbEntity
  8
0
100
AcDbVertex
100
AcDb2dVertex
 10
607.713257
 20
342.366119
 30
0.0
  0
VERTEX
  5
27F
100
AcDbEntity
  8
0
100
AcDbVertex
100
AcDb2dVertex
 10
607.713257
 20
341.574341
 30
0.0
  0
VERTEX
  5
280
100
AcDbEntity
  8
0
100
AcDbVertex
100
AcDb2dVertex
 10
606.946655
 20
341.574341
 30
0.0
  0
VERTEX
  5
281
100
AcDbEntity
  8
0
100
AcDbVertex
100
AcDb2dVertex
 10
606.946655
 20
341.196106
 30
0.0
  0
SEQEND
  5
282
100
AcDbEntity
  8
0
  0
POLYLINE
  5
283
100
AcDbEntity
  8
0
 62
     7
100
AcDb2dPolyline
 66
     1
 10
0.0
 20
0.0
 30
0.0
 70
     1
 71
    42
  0
VERTEX
  5
284
100
AcDbEntity
  8
0
100
AcDbVertex
100
AcDb2dVertex
 10
611.762939
 20
339.309937
 30
0.0
  0
VERTEX
  5
285
100
AcDbEntity
  8
0
100
AcDbVertex
100
AcDb2dVertex
 10
611.762939
 20
339.2948
 30
0.0
  0
VERTEX
  5
286
100
AcDbEntity
  8
0
100
AcDbVertex
100
AcDb2dVertex
 10
611.788208
 20
339.123322
 30
0.0
  0
VERTEX
  5
287
100
AcDbEntity
  8
0
100
AcDbVertex
100
AcDb2dVertex
 10
611.863831
 20
339.002289
 30
0.0
  0
VERTEX
  5
288
100
AcDbEntity
  8
0
100
AcDbVertex
100
AcDb2dVertex
 10
612.18158
 20
338.906464
 30
0.0
  0
VERTEX
  5
289
100
AcDbEntity
  8
0
100
AcDbVertex
100
AcDb2dVertex
 10
612.42865
 20
338.946808
 30
0.0
  0
VERTEX
  5
28A
100
AcDbEntity
  8
0
100
AcDbVertex
100
AcDb2dVertex
 10
612.42865
 20
339.289764
 30
0.0
  0
VERTEX
  5
28B
100
AcDbEntity
  8
0
100
AcDbVertex
100
AcDb2dVertex
 10
612.322754
 20
339.274628
 30
0.0
  0
VERTEX
  5
28C
100
AcDbEntity
  8
0
100
AcDbVertex
100
AcDb2dVertex
 10
612.18158
 20
339.340179
 30
0.0
  0
VERTEX
  5
28D
100
AcDbEntity
  8
0
100
AcDbVertex
100
AcDb2dVertex
 10
612.156311
 20
339.541931
 30
0.0
  0
VERTEX
  5
28E
100
AcDbEntity
  8
0
100
AcDbVertex
100
AcDb2dVertex
 10
612.156311
 20
340.943939
 30
0.0
  0
VERTEX
  5
28F
100
AcDbEntity
  8
0
100
AcDbVertex
100
AcDb2dVertex
 10
612.095825
 20
341.302002
 30
0.0
  0
VERTEX
  5
290
100
AcDbEntity
  8
0
100
AcDbVertex
100
AcDb2dVertex
 10
611.919312
 20
341.554169
 30
0.0
  0
VERTEX
  5
291
100
AcDbEntity
  8
0
100
AcDbVertex
100
AcDb2dVertex
 10
611.611694
 20
341.705475
 30
0.0
  0
VERTEX
  5
292
100
AcDbEntity
  8
0
100
AcDbVertex
100
AcDb2dVertex
 10
611.177979
 20
341.760956
 30
0.0
  0
VERTEX
  5
293
100
AcDbEntity
  8
0
100
AcDbVertex
100
AcDb2dVertex
 10
610.754333
 20
341.700439
 30
0.0
  0
VERTEX
  5
294
100
AcDbEntity
  8
0
100
AcDbVertex
100
AcDb2dVertex
 10
610.44165
 20
341.528961
 30
0.0
  0
VERTEX
  5
295
100
AcDbEntity
  8
0
100
AcDbVertex
100
AcDb2dVertex
 10
610.244934
 20
341.261658
 30
0.0
  0
VERTEX
  5
296
100
AcDbEntity
  8
0
100
AcDbVertex
100
AcDb2dVertex
 10
610.179382
 20
340.90863
 30
0.0
  0
VERTEX
  5
297
100
AcDbEntity
  8
0
100
AcDbVertex
100
AcDb2dVertex
 10
610.179382
 20
340.878387
 30
0.0
  0
VERTEX
  5
298
100
AcDbEntity
  8
0
100
AcDbVertex
100
AcDb2dVertex
 10
610.57782
 20
340.878387
 30
0.0
  0
VERTEX
  5
299
100
AcDbEntity
  8
0
100
AcDbVertex
100
AcDb2dVertex
 10
610.613098
 20
341.090179
 30
0.0
  0
VERTEX
  5
29A
100
AcDbEntity
  8
0
100
AcDbVertex
100
AcDb2dVertex
 10
610.72406
 20
341.241486
 30
0.0
  0
VERTEX
  5
29B
100
AcDbEntity
  8
0
100
AcDbVertex
100
AcDb2dVertex
 10
610.90564
 20
341.332275
 30
0.0
  0
VERTEX
  5
29C
100
AcDbEntity
  8
0
100
AcDbVertex
100
AcDb2dVertex
 10
611.162842
 20
341.367584
 30
0.0
  0
VERTEX
  5
29D
100
AcDbEntity
  8
0
100
AcDbVertex
100
AcDb2dVertex
 10
611.409912
 20
341.342346
 30
0.0
  0
VERTEX
  5
29E
100
AcDbEntity
  8
0
100
AcDbVertex
100
AcDb2dVertex
 10
611.586426
 20
341.266693
 30
0.0
  0
VERTEX
  5
29F
100
AcDbEntity
  8
0
100
AcDbVertex
100
AcDb2dVertex
 10
611.692383
 20
341.13559
 30
0.0
  0
VERTEX
  5
2A0
100
AcDbEntity
  8
0
100
AcDbVertex
100
AcDb2dVertex
 10
611.727661
 20
340.954041
 30
0.0
  0
VERTEX
  5
2A1
100
AcDbEntity
  8
0
100
AcDbVertex
100
AcDb2dVertex
 10
611.70752
 20
340.742218
 30
0.0
  0
VERTEX
  5
2A2
100
AcDbEntity
  8
0
100
AcDbVertex
100
AcDb2dVertex
 10
611.626831
 20
340.636292
 30
0.0
  0
VERTEX
  5
2A3
100
AcDbEntity
  8
0
100
AcDbVertex
100
AcDb2dVertex
 10
611.425049
 20
340.585876
 30
0.0
  0
VERTEX
  5
2A4
100
AcDbEntity
  8
0
100
AcDbVertex
100
AcDb2dVertex
 10
611.046814
 20
340.545532
 30
0.0
  0
VERTEX
  5
2A5
100
AcDbEntity
  8
0
100
AcDbVertex
100
AcDb2dVertex
 10
610.613098
 20
340.454742
 30
0.0
  0
VERTEX
  5
2A6
100
AcDbEntity
  8
0
100
AcDbVertex
100
AcDb2dVertex
 10
610.305481
 20
340.293365
 30
0.0
  0
VERTEX
  5
2A7
100
AcDbEntity
  8
0
100
AcDbVertex
100
AcDb2dVertex
 10
610.123901
 20
340.041199
 30
0.0
  0
VERTEX
  5
2A8
100
AcDbEntity
  8
0
100
AcDbVertex
100
AcDb2dVertex
 10
610.06842
 20
339.667999
 30
0.0
  0
VERTEX
  5
2A9
100
AcDbEntity
  8
0
100
AcDbVertex
100
AcDb2dVertex
 10
610.118896
 20
339.335144
 30
0.0
  0
VERTEX
  5
2AA
100
AcDbEntity
  8
0
100
AcDbVertex
100
AcDb2dVertex
 10
610.275208
 20
339.088043
 30
0.0
  0
VERTEX
  5
2AB
100
AcDbEntity
  8
0
100
AcDbVertex
100
AcDb2dVertex
 10
610.527405
 20
338.931702
 30
0.0
  0
VERTEX
  5
2AC
100
AcDbEntity
  8
0
100
AcDbVertex
100
AcDb2dVertex
 10
610.875366
 20
338.876221
 30
0.0
  0
VERTEX
  5
2AD
100
AcDbEntity
  8
0
100
AcDbVertex
100
AcDb2dVertex
 10
611.34436
 20
338.982117
 30
0.0
  0
SEQEND
  5
2AE
100
AcDbEntity
  8
0
  0
POLYLINE
  5
2AF
100
AcDbEntity
  8
0
 62
     7
100
AcDb2dPolyline
 66
     1
 10
0.0
 20
0.0
 30
0.0
 70
     1
 71
    14
  0
VERTEX
  5
2B0
100
AcDbEntity
  8
0
100
AcDbVertex
100
AcDb2dVertex
 10
611.712524
 20
339.905029
 30
0.0
  0
VERTEX
  5
2B1
100
AcDbEntity
  8
0
100
AcDbVertex
100
AcDb2dVertex
 10
611.652039
 20
339.642792
 30
0.0
  0
VERTEX
  5
2B2
100
AcDbEntity
  8
0
100
AcDbVertex
100
AcDb2dVertex
 10
611.490662
 20
339.441071
 30
0.0
  0
VERTEX
  5
2B3
100
AcDbEntity
  8
0
100
AcDbVertex
100
AcDb2dVertex
 10
611.248535
 20
339.309937
 30
0.0
  0
VERTEX
  5
2B4
100
AcDbEntity
  8
0
100
AcDbVertex
100
AcDb2dVertex
 10
610.950989
 20
339.264557
 30
0.0
  0
VERTEX
  5
2B5
100
AcDbEntity
  8
0
100
AcDbVertex
100
AcDb2dVertex
 10
610.759338
 20
339.289764
 30
0.0
  0
VERTEX
  5
2B6
100
AcDbEntity
  8
0
100
AcDbVertex
100
AcDb2dVertex
 10
610.623169
 20
339.370453
 30
0.0
  0
VERTEX
  5
2B7
100
AcDbEntity
  8
0
100
AcDbVertex
100
AcDb2dVertex
 10
610.537476
 20
339.511658
 30
0.0
  0
VERTEX
  5
2B8
100
AcDbEntity
  8
0
100
AcDbVertex
100
AcDb2dVertex
 10
610.512268
 20
339.708344
 30
0.0
  0
VERTEX
  5
2B9
100
AcDbEntity
  8
0
100
AcDbVertex
100
AcDb2dVertex
 10
610.53241
 20
339.884857
 30
0.0
  0
VERTEX
  5
2BA
100
AcDbEntity
  8
0
100
AcDbVertex
100
AcDb2dVertex
 10
610.613098
 20
340.010956
 30
0.0
  0
VERTEX
  5
2BB
100
AcDbEntity
  8
0
100
AcDbVertex
100
AcDb2dVertex
 10
610.935852
 20
340.152161
 30
0.0
  0
VERTEX
  5
2BC
100
AcDbEntity
  8
0
100
AcDbVertex
100
AcDb2dVertex
 10
611.34436
 20
340.212677
 30
0.0
  0
VERTEX
  5
2BD
100
AcDbEntity
  8
0
100
AcDbVertex
100
AcDb2dVertex
 10
611.712524
 20
340.33371
 30
0.0
  0
SEQEND
  5
2BE
100
AcDbEntity
  8
0
  0
POLYLINE
  5
2BF
100
AcDbEntity
  8
0
 62
     7
100
AcDb2dPolyline
 66
     1
 10
0.0
 20
0.0
 30
0.0
 70
     1
 71
    18
  0
VERTEX
  5
2C0
100
AcDbEntity
  8
0
100
AcDbVertex
100
AcDb2dVertex
 10
613.608765
 20
339.375488
 30
0.0
  0
VERTEX
  5
2C1
100
AcDbEntity
  8
0
100
AcDbVertex
100
AcDb2dVertex
 10
613.936584
 20
338.987183
 30
0.0
  0
VERTEX
  5
2C2
100
AcDbEntity
  8
0
100
AcDbVertex
100
AcDb2dVertex
 10
614.385437
 20
338.861084
 30
0.0
  0
VERTEX
  5
2C3
100
AcDbEntity
  8
0
100
AcDbVertex
100
AcDb2dVertex
 10
614.809082
 20
338.956909
 30
0.0
  0
VERTEX
  5
2C4
100
AcDbEntity
  8
0
100
AcDbVertex
100
AcDb2dVertex
 10
615.146973
 20
339.244385
 30
0.0
  0
VERTEX
  5
2C5
100
AcDbEntity
  8
0
100
AcDbVertex
100
AcDb2dVertex
 10
615.358765
 20
339.703308
 30
0.0
  0
VERTEX
  5
2C6
100
AcDbEntity
  8
0
100
AcDbVertex
100
AcDb2dVertex
 10
615.439453
 20
340.313538
 30
0.0
  0
VERTEX
  5
2C7
100
AcDbEntity
  8
0
100
AcDbVertex
100
AcDb2dVertex
 10
615.358765
 20
340.923767
 30
0.0
  0
VERTEX
  5
2C8
100
AcDbEntity
  8
0
100
AcDbVertex
100
AcDb2dVertex
 10
615.141907
 20
341.377655
 30
0.0
  0
VERTEX
  5
2C9
100
AcDbEntity
  8
0
100
AcDbVertex
100
AcDb2dVertex
 10
614.809082
 20
341.660065
 30
0.0
  0
VERTEX
  5
2CA
100
AcDbEntity
  8
0
100
AcDbVertex
100
AcDb2dVertex
 10
614.385437
 20
341.760956
 30
0.0
  0
VERTEX
  5
2CB
100
AcDbEntity
  8
0
100
AcDbVertex
100
AcDb2dVertex
 10
613.94165
 20
341.629822
 30
0.0
  0
VERTEX
  5
2CC
100
AcDbEntity
  8
0
100
AcDbVertex
100
AcDb2dVertex
 10
613.760071
 20
341.468445
 30
0.0
  0
VERTEX
  5
2CD
100
AcDbEntity
  8
0
100
AcDbVertex
100
AcDb2dVertex
 10
613.608765
 20
341.251587
 30
0.0
  0
VERTEX
  5
2CE
100
AcDbEntity
  8
0
100
AcDbVertex
100
AcDb2dVertex
 10
613.608765
 20
342.577942
 30
0.0
  0
VERTEX
  5
2CF
100
AcDbEntity
  8
0
100
AcDbVertex
100
AcDb2dVertex
 10
613.164978
 20
342.577942
 30
0.0
  0
VERTEX
  5
2D0
100
AcDbEntity
  8
0
100
AcDbVertex
100
AcDb2dVertex
 10
613.164978
 20
338.956909
 30
0.0
  0
VERTEX
  5
2D1
100
AcDbEntity
  8
0
100
AcDbVertex
100
AcDb2dVertex
 10
613.608765
 20
338.956909
 30
0.0
  0
SEQEND
  5
2D2
100
AcDbEntity
  8
0
  0
POLYLINE
  5
2D3
100
AcDbEntity
  8
0
 62
     7
100
AcDb2dPolyline
 66
     1
 10
0.0
 20
0.0
 30
0.0
 70
     1
 71
    16
  0
VERTEX
  5
2D4
100
AcDbEntity
  8
0
100
AcDbVertex
100
AcDb2dVertex
 10
614.985596
 20
340.313538
 30
0.0
  0
VERTEX
  5
2D5
100
AcDbEntity
  8
0
100
AcDbVertex
100
AcDb2dVertex
 10
614.935181
 20
339.85965
 30
0.0
  0
VERTEX
  5
2D6
100
AcDbEntity
  8
0
100
AcDbVertex
100
AcDb2dVertex
 10
614.799011
 20
339.526794
 30
0.0
  0
VERTEX
  5
2D7
100
AcDbEntity
  8
0
100
AcDbVertex
100
AcDb2dVertex
 10
614.582153
 20
339.325073
 30
0.0
  0
VERTEX
  5
2D8
100
AcDbEntity
  8
0
100
AcDbVertex
100
AcDb2dVertex
 10
614.309814
 20
339.259491
 30
0.0
  0
VERTEX
  5
2D9
100
AcDbEntity
  8
0
100
AcDbVertex
100
AcDb2dVertex
 10
614.012268
 20
339.325073
 30
0.0
  0
VERTEX
  5
2DA
100
AcDbEntity
  8
0
100
AcDbVertex
100
AcDb2dVertex
 10
613.79541
 20
339.526794
 30
0.0
  0
VERTEX
  5
2DB
100
AcDbEntity
  8
0
100
AcDbVertex
100
AcDb2dVertex
 10
613.659241
 20
339.854614
 30
0.0
  0
VERTEX
  5
2DC
100
AcDbEntity
  8
0
100
AcDbVertex
100
AcDb2dVertex
 10
613.613831
 20
340.313538
 30
0.0
  0
VERTEX
  5
2DD
100
AcDbEntity
  8
0
100
AcDbVertex
100
AcDb2dVertex
 10
613.659241
 20
340.767426
 30
0.0
  0
VERTEX
  5
2DE
100
AcDbEntity
  8
0
100
AcDbVertex
100
AcDb2dVertex
 10
613.79541
 20
341.095245
 30
0.0
  0
VERTEX
  5
2DF
100
AcDbEntity
  8
0
100
AcDbVertex
100
AcDb2dVertex
 10
614.012268
 20
341.291931
 30
0.0
  0
VERTEX
  5
2E0
100
AcDbEntity
  8
0
100
AcDbVertex
100
AcDb2dVertex
 10
614.309814
 20
341.362518
 30
0.0
  0
VERTEX
  5
2E1
100
AcDbEntity
  8
0
100
AcDbVertex
100
AcDb2dVertex
 10
614.582153
 20
341.291931
 30
0.0
  0
VERTEX
  5
2E2
100
AcDbEntity
  8
0
100
AcDbVertex
100
AcDb2dVertex
 10
614.799011
 20
341.090179
 30
0.0
  0
VERTEX
  5
2E3
100
AcDbEntity
  8
0
100
AcDbVertex
100
AcDb2dVertex
 10
614.935181
 20
340.76239
 30
0.0
  0
SEQEND
  5
2E4
100
AcDbEntity
  8
0
  0
POLYLINE
  5
2E5
100
AcDbEntity
  8
0
 62
     7
100
AcDb2dPolyline
 66
     1
 10
0.0
 20
0.0
 30
0.0
 70
     1
 71
     4
  0
VERTEX
  5
2E6
100
AcDbEntity
  8
0
100
AcDbVertex
100
AcDb2dVertex
 10
616.92218
 20
338.956909
 30
0.0
  0
VERTEX
  5
2E7
100
AcDbEntity
  8
0
100
AcDbVertex
100
AcDb2dVertex
 10
617.618164
 20
338.956909
 30
0.0
  0
VERTEX
  5
2E8
100
AcDbEntity
  8
0
100
AcDbVertex
100
AcDb2dVertex
 10
617.618164
 20
339.708344
 30
0.0
  0
VERTEX
  5
2E9
100
AcDbEntity
  8
0
100
AcDbVertex
100
AcDb2dVertex
 10
616.92218
 20
339.708344
 30
0.0
  0
SEQEND
  5
2EA
100
AcDbEntity
  8
0
  0
POLYLINE
  5
2EB
100
AcDbEntity
  8
0
 62
     7
100
AcDb2dPolyline
 66
     1
 10
0.0
 20
0.0
 30
0.0
 70
     1
 71
     4
  0
VERTEX
  5
2EC
100
AcDbEntity
  8
0
100
AcDbVertex
100
AcDb2dVertex
 10
616.92218
 20
340.913696
 30
0.0
  0
VERTEX
  5
2ED
100
AcDbEntity
  8
0
100
AcDbVertex
100
AcDb2dVertex
 10
617.618164
 20
340.913696
 30
0.0
  0
VERTEX
  5
2EE
100
AcDbEntity
  8
0
100
AcDbVertex
100
AcDb2dVertex
 10
617.618164
 20
341.665131
 30
0.0
  0
VERTEX
  5
2EF
100
AcDbEntity
  8
0
100
AcDbVertex
100
AcDb2dVertex
 10
616.92218
 20
341.665131
 30
0.0
  0
SEQEND
  5
2F0
100
AcDbEntity
  8
0
  0
POLYLINE
  5
2F1
100
AcDbEntity
  8
0
 62
     7
100
AcDb2dPolyline
 66
     1
 10
0.0
 20
0.0
 30
0.0
 70
     1
 71
    10
  0
VERTEX
  5
2F2
100
AcDbEntity
  8
0
100
AcDbVertex
100
AcDb2dVertex
 10
626.287476
 20
338.956909
 30
0.0
  0
VERTEX
  5
2F3
100
AcDbEntity
  8
0
100
AcDbVertex
100
AcDb2dVertex
 10
626.746399
 20
338.956909
 30
0.0
  0
VERTEX
  5
2F4
100
AcDbEntity
  8
0
100
AcDbVertex
100
AcDb2dVertex
 10
626.746399
 20
342.482117
 30
0.0
  0
VERTEX
  5
2F5
100
AcDbEntity
  8
0
100
AcDbVertex
100
AcDb2dVertex
 10
626.403442
 20
342.482117
 30
0.0
  0
VERTEX
  5
2F6
100
AcDbEntity
  8
0
100
AcDbVertex
100
AcDb2dVertex
 10
626.312683
 20
342.1745
 30
0.0
  0
VERTEX
  5
2F7
100
AcDbEntity
  8
0
100
AcDbVertex
100
AcDb2dVertex
 10
626.131104
 20
341.967712
 30
0.0
  0
VERTEX
  5
2F8
100
AcDbEntity
  8
0
100
AcDbVertex
100
AcDb2dVertex
 10
625.85376
 20
341.84668
 30
0.0
  0
VERTEX
  5
2F9
100
AcDbEntity
  8
0
100
AcDbVertex
100
AcDb2dVertex
 10
625.470459
 20
341.806335
 30
0.0
  0
VERTEX
  5
2FA
100
AcDbEntity
  8
0
100
AcDbVertex
100
AcDb2dVertex
 10
625.470459
 20
341.448273
 30
0.0
  0
VERTEX
  5
2FB
100
AcDbEntity
  8
0
100
AcDbVertex
100
AcDb2dVertex
 10
626.287476
 20
341.448273
 30
0.0
  0
SEQEND
  5
2FC
100
AcDbEntity
  8
0
  0
POLYLINE
  5
2FD
100
AcDbEntity
  8
0
 62
     7
100
AcDb2dPolyline
 66
     1
 10
0.0
 20
0.0
 30
0.0
 70
     1
 71
     4
  0
VERTEX
  5
2FE
100
AcDbEntity
  8
0
100
AcDbVertex
100
AcDb2dVertex
 10
629.066284
 20
338.956909
 30
0.0
  0
VERTEX
  5
2FF
100
AcDbEntity
  8
0
100
AcDbVertex
100
AcDb2dVertex
 10
629.762268
 20
338.956909
 30
0.0
  0
VERTEX
  5
300
100
AcDbEntity
  8
0
100
AcDbVertex
100
AcDb2dVertex
 10
629.762268
 20
339.708344
 30
0.0
  0
VERTEX
  5
301
100
AcDbEntity
  8
0
100
AcDbVertex
100
AcDb2dVertex
 10
629.066284
 20
339.708344
 30
0.0
  0
SEQEND
  5
302
100
AcDbEntity
  8
0
  0
POLYLINE
  5
303
100
AcDbEntity
  8
0
 62
     7
100
AcDb2dPolyline
 66
     1
 10
0.0
 20
0.0
 30
0.0
 70
     1
 71
     4
  0
VERTEX
  5
304
100
AcDbEntity
  8
0
100
AcDbVertex
100
AcDb2dVertex
 10
629.066284
 20
340.913696
 30
0.0
  0
VERTEX
  5
305
100
AcDbEntity
  8
0
100
AcDbVertex
100
AcDb2dVertex
 10
629.762268
 20
340.913696
 30
0.0
  0
VERTEX
  5
306
100
AcDbEntity
  8
0
100
AcDbVertex
100
AcDb2dVertex
 10
629.762268
 20
341.665131
 30
0.0
  0
VERTEX
  5
307
100
AcDbEntity
  8
0
100
AcDbVertex
100
AcDb2dVertex
 10
629.066284
 20
341.665131
 30
0.0
  0
SEQEND
  5
308
100
AcDbEntity
  8
0
  0
POLYLINE
  5
309
100
AcDbEntity
  8
0
 62
     7
100
AcDb2dPolyline
 66
     1
 10
0.0
 20
0.0
 30
0.0
 70
     1
 71
    10
  0
VERTEX
  5
30A
100
AcDbEntity
  8
0
100
AcDbVertex
100
AcDb2dVertex
 10
632.359497
 20
338.956909
 30
0.0
  0
VERTEX
  5
30B
100
AcDbEntity
  8
0
100
AcDbVertex
100
AcDb2dVertex
 10
632.81842
 20
338.956909
 30
0.0
  0
VERTEX
  5
30C
100
AcDbEntity
  8
0
100
AcDbVertex
100
AcDb2dVertex
 10
632.81842
 20
342.482117
 30
0.0
  0
VERTEX
  5
30D
100
AcDbEntity
  8
0
100
AcDbVertex
100
AcDb2dVertex
 10
632.475525
 20
342.482117
 30
0.0
  0
VERTEX
  5
30E
100
AcDbEntity
  8
0
100
AcDbVertex
100
AcDb2dVertex
 10
632.384705
 20
342.1745
 30
0.0
  0
VERTEX
  5
30F
100
AcDbEntity
  8
0
100
AcDbVertex
100
AcDb2dVertex
 10
632.203186
 20
341.967712
 30
0.0
  0
VERTEX
  5
310
100
AcDbEntity
  8
0
100
AcDbVertex
100
AcDb2dVertex
 10
631.925781
 20
341.84668
 30
0.0
  0
VERTEX
  5
311
100
AcDbEntity
  8
0
100
AcDbVertex
100
AcDb2dVertex
 10
631.54248
 20
341.806335
 30
0.0
  0
VERTEX
  5
312
100
AcDbEntity
  8
0
100
AcDbVertex
100
AcDb2dVertex
 10
631.54248
 20
341.448273
 30
0.0
  0
VERTEX
  5
313
100
AcDbEntity
  8
0
100
AcDbVertex
100
AcDb2dVertex
 10
632.359497
 20
341.448273
 30
0.0
  0
SEQEND
  5
314
100
AcDbEntity
  8
0
  0
LINE
  5
315
100
AcDbEntity
  8
0
 62
     7
100
AcDbLine
 10
590.964478
 20
480.604065
 30
0.0
 11
590.964478
 21
448.177673
 31
0.0
210
0.0
220
0.0
230
1.0
  0
ARC
  5
316
100
AcDbEntity
  8
0
 62
     7
100
AcDbCircle
 10
566.822327
 20
448.177673
 30
0.0
 40
24.142136
210
0.0
220
0.0
230
1.0
100
AcDbArc
 50
269.999997
 51
0.0
  0
LINE
  5
317
100
AcDbEntity
  8
0
 62
     7
100
AcDbLine
 10
534.395935
 20
424.035522
 30
0.0
 11
566.822327
 21
424.035522
 31
0.0
210
0.0
220
0.0
230
1.0
  0
ARC
  5
318
100
AcDbEntity
  8
0
 62
     7
100
AcDbCircle
 10
534.395935
 20
420.5
 30
0.0
 40
3.535534
210
0.0
220
0.0
230
1.0
100
AcDbArc
 50
90.000003
 51
269.999997
  0
LINE
  5
319
100
AcDbEntity
  8
0
 62
     7
100
AcDbLine
 10
534.395935
 20
416.964478
 30
0.0
 11
566.822327
 21
416.964478
 31
0.0
210
0.0
220
0.0
230
1.0
  0
ARC
  5
31A
100
AcDbEntity
  8
0
 62
     7
100
AcDbCircle
 10
566.822327
 20
392.822327
 30
0.0
 40
24.142136
210
0.0
220
0.0
230
1.0
100
AcDbArc
 50
0.0
 51
90.000003
  0
LINE
  5
31B
100
AcDbEntity
  8
0
 62
     7
100
AcDbLine
 10
590.964478
 20
360.395935
 30
0.0
 11
590.964478
 21
392.822327
 31
0.0
210
0.0
220
0.0
230
1.0
  0
ARC
  5
31C
100
AcDbEntity
  8
0
 62
     7
100
AcDbCircle
 10
594.5
 20
360.395935
 30
0.0
 40
3.535534
210
0.0
220
0.0
230
1.0
100
AcDbArc
 50
180.000005
 51
360.0
  0
LINE
  5
31D
100
AcDbEntity
  8
0
 62
     7
100
AcDbLine
 10
598.035522
 20
360.395935
 30
0.0
 11
598.035522
 21
392.822327
 31
0.0
210
0.0
220
0.0
230
1.0
  0
ARC
  5
31E
100
AcDbEntity
  8
0
 62
     7
100
AcDbCircle
 10
622.177673
 20
392.822327
 30
0.0
 40
24.142136
210
0.0
220
0.0
230
1.0
100
AcDbArc
 50
90.000003
 51
180.000005
  0
LINE
  5
31F
100
AcDbEntity
  8
0
 62
     7
100
AcDbLine
 10
654.604065
 20
416.964478
 30
0.0
 11
622.177673
 21
416.964478
 31
0.0
210
0.0
220
0.0
230
1.0
  0
ARC
  5
320
100
AcDbEntity
  8
0
 62
     7
100
AcDbCircle
 10
654.604065
 20
420.5
 30
0.0
 40
3.535534
210
0.0
220
0.0
230
1.0
100
AcDbArc
 50
269.999997
 51
90.000003
  0
LINE
  5
321
100
AcDbEntity
  8
0
 62
     7
100
AcDbLine
 10
654.604065
 20
424.035522
 30
0.0
 11
622.177673
 21
424.035522
 31
0.0
210
0.0
220
0.0
230
1.0
  0
ARC
  5
322
100
AcDbEntity
  8
0
 62
     7
100
AcDbCircle
 10
622.177673
 20
448.177673
 30
0.0
 40
24.142136
210
0.0
220
0.0
230
1.0
100
AcDbArc
 50
179.999995
 51
269.999997
  0
LINE
  5
323
100
AcDbEntity
  8
0
 62
     7
100
AcDbLine
 10
598.035522
 20
480.604065
 30
0.0
 11
598.035522
 21
448.177673
 31
0.0
210
0.0
220
0.0
230
1.0
  0
ARC
  5
324
100
AcDbEntity
  8
0
 62
     7
100
AcDbCircle
 10
594.5
 20
480.604065
 30
0.0
 40
3.535534
210
0.0
220
0.0
230
1.0
100
AcDbArc
 50
360.0
 51
179.999995
  0
CIRCLE
  5
325
100
AcDbEntity
  8
0
 62
     7
100
AcDbCircle
 10
651.068542
 20
420.5
 30
0.0
 40
1.5
210
0.0
220
0.0
230
1.0
  0
CIRCLE
  5
326
100
AcDbEntity
  8
0
 62
     7
100
AcDbCircle
 10
594.5
 20
363.931458
 30
0.0
 40
1.5
210
0.0
220
0.0
230
1.0
  0
CIRCLE
  5
327
100
AcDbEntity
  8
0
 62
     7
100
AcDbCircle
 10
537.931458
 20
420.5
 30
0.0
 40
1.5
210
0.0
220
0.0
230
1.0
  0
CIRCLE
  5
328
100
AcDbEntity
  8
0
 62
     7
100
AcDbCircle
 10
594.5
 20
477.068542
 30
0.0
 40
1.5
210
0.0
220
0.0
230
1.0
  0
ENDSEC
  0
SECTION
  2
OBJECTS
  0
DICTIONARY
  5
19
100
AcDbDictionary
  3
ACAD_GROUP
350
1A
  3
ACAD_MLINESTYLE
350
1B
  0
DICTIONARY
  5
1A
102
{ACAD_REACTORS
330
19
102
}
100
AcDbDictionary
  0
DICTIONARY
  5
1B
102
{ACAD_REACTORS
330
19
102
}
100
AcDbDictionary
  3
STANDARD
350
1C
  0
MLINESTYLE
  5
1C
102
{ACAD_REACTORS
330
1B
102
}
100
AcDbMlineStyle
  2
STANDARD
 70
     0
  3

 62
     0
 51
90.0
 52
90.0
 71
     2
 49
0.5
 62
   256
  6
BYLAYER
 49
-0.5
 62
   256
  6
BYLAYER
  0
ENDSEC
  0
EOF
