  0
SECTION
  2
HEADER
  9
$ACADVER
  1
AC1014
  9
$ACADMAINTVER
 70
     0
  9
$DWGCODEPAGE
  3
ANSI_1252
  9
$INSBASE
 10
0.0
 20
0.0
 30
0.0
  9
$EXTMIN
 10
0.0
 20
0.0
 30
0.0
  9
$EXTMAX
 10
649.5
 20
475.5
 30
2.0
  9
$LIMMIN
 10
0.0
 20
0.0
  9
$LIMMAX
 10
420.0
 20
297.0
  9
$ORTHOMODE
 70
     0
  9
$REGENMODE
 70
     1
  9
$FILLMODE
 70
     1
  9
$QTEXTMODE
 70
     0
  9
$MIRRTEXT
 70
     1
  9
$DRAGMODE
 70
     2
  9
$LTSCALE
 40
1.0
  9
$OSMODE
 70
     0
  9
$ATTMODE
 70
     1
  9
$TEXTSIZE
 40
2.5
  9
$TRACEWID
 40
1.0
  9
$TEXTSTYLE
  7
STANDARD
  9
$CLAYER
  8
0
  9
$CELTYPE
  6
BYLAYER
  9
$CECOLOR
 62
   256
  9
$CELTSCALE
 40
1.0
  9
$DELOBJ
 70
     1
  9
$DISPSILH
 70
     0
  9
$DIMSCALE
 40
1.0
  9
$DIMASZ
 40
2.5
  9
$DIMEXO
 40
0.625
  9
$DIMDLI
 40
3.75
  9
$DIMRND
 40
0.0
  9
$DIMDLE
 40
0.0
  9
$DIMEXE
 40
1.25
  9
$DIMTP
 40
0.0
  9
$DIMTM
 40
0.0
  9
$DIMTXT
 40
2.5
  9
$DIMCEN
 40
2.5
  9
$DIMTSZ
 40
0.0
  9
$DIMTOL
 70
     0
  9
$DIMLIM
 70
     0
  9
$DIMTIH
 70
     0
  9
$DIMTOH
 70
     0
  9
$DIMSE1
 70
     0
  9
$DIMSE2
 70
     0
  9
$DIMTAD
 70
     1
  9
$DIMZIN
 70
     8
  9
$DIMBLK
  1

  9
$DIMASO
 70
     1
  9
$DIMSHO
 70
     1
  9
$DIMPOST
  1

  9
$DIMAPOST
  1

  9
$DIMALT
 70
     0
  9
$DIMALTD
 70
     3
  9
$DIMALTF
 40
0.03937
  9
$DIMLFAC
 40
1.0
  9
$DIMTOFL
 70
     1
  9
$DIMTVP
 40
0.0
  9
$DIMTIX
 70
     0
  9
$DIMSOXD
 70
     0
  9
$DIMSAH
 70
     0
  9
$DIMBLK1
  1

  9
$DIMBLK2
  1

  9
$DIMSTYLE
  2

  9
$DIMCLRD
 70
     0
  9
$DIMCLRE
 70
     0
  9
$DIMCLRT
 70
     0
  9
$DIMTFAC
 40
1.0
  9
$DIMGAP
 40
0.625
  9
$DIMJUST
 70
     0
  9
$DIMSD1
 70
     0
  9
$DIMSD2
 70
     0
  9
$DIMTOLJ
 70
     0
  9
$DIMTZIN
 70
     8
  9
$DIMALTZ
 70
     0
  9
$DIMALTTZ
 70
     0
  9
$DIMFIT
 70
     0
  9
$DIMUPT
 70
     0
  9
$DIMUNIT
 70
     2
  9
$DIMDEC
 70
     2
  9
$DIMTDEC
 70
     2
  9
$DIMALTU
 70
     2
  9
$DIMALTTD
 70
     3
  9
$DIMTXSTY
  7
STANDARD
  9
$DIMAUNIT
 70
     0
  9
$LUNITS
 70
     2
  9
$LUPREC
 70
     4
  9
$SKETCHINC
 40
1.0
  9
$FILLETRAD
 40
2.5
  9
$AUNITS
 70
     0
  9
$AUPREC
 70
     0
  9
$MENU
  1
.
  9
$ELEVATION
 40
0.0
  9
$PELEVATION
 40
0.0
  9
$THICKNESS
 40
0.0
  9
$LIMCHECK
 70
     0
  9
$BLIPMODE
 70
     1
  9
$CHAMFERA
 40
2.5
  9
$CHAMFERB
 40
2.5
  9
$CHAMFERC
 40
0.0
  9
$CHAMFERD
 40
0.0
  9
$SKPOLY
 70
     0
  9
$TDCREATE
 40
0.000000000
  9
$TDUPDATE
 40
0.000000000
  9
$TDINDWG
 40
0.0000000000
  9
$TDUSRTIMER
 40
0.0000000000
  9
$USRTIMER
 70
     1
  9
$ANGBASE
 50
0.0
  9
$ANGDIR
 70
     0
  9
$PDMODE
 70
     0
  9
$PDSIZE
 40
0.0
  9
$PLINEWID
 40
0.0
  9
$COORDS
 70
     0
  9
$SPLFRAME
 70
     0
  9
$SPLINETYPE
 70
     6
  9
$SPLINESEGS
 70
     8
  9
$ATTDIA
 70
     0
  9
$ATTREQ
 70
     1
  9
$HANDLING
 70
     1
  9
$HANDSEED
  5
438
  9
$SURFTAB1
 70
     6
  9
$SURFTAB2
 70
     6
  9
$SURFTYPE
 70
     6
  9
$SURFU
 70
     6
  9
$SURFV
 70
     6
  9
$UCSNAME
  2

  9
$UCSORG
 10
0.0
 20
0.0
 30
0.0
  9
$UCSXDIR
 10
1.0
 20
0.0
 30
0.0
  9
$UCSYDIR
 10
0.0
 20
1.0
 30
0.0
  9
$PUCSNAME
  2

  9
$PUCSORG
 10
0.0
 20
0.0
 30
0.0
  9
$PUCSXDIR
 10
1.0
 20
0.0
 30
0.0
  9
$PUCSYDIR
 10
0.0
 20
1.0
 30
0.0
  9
$USERI1
 70
     0
  9
$USERI2
 70
     0
  9
$USERI3
 70
     0
  9
$USERI4
 70
     0
  9
$USERI5
 70
     0
  9
$USERR1
 40
0.0
  9
$USERR2
 40
0.0
  9
$USERR3
 40
0.0
  9
$USERR4
 40
0.0
  9
$USERR5
 40
0.0
  9
$WORLDVIEW
 70
     1
  9
$SHADEDGE
 70
     3
  9
$SHADEDIF
 70
    70
  9
$TILEMODE
 70
     1
  9
$MAXACTVP
 70
    48
  9
$PINSBASE
 10
0.0
 20
0.0
 30
0.0
  9
$PLIMCHECK
 70
     0
  9
$PEXTMIN
 10
0.0
 20
0.0
 30
0.0
  9
$PEXTMAX
 10
649.5
 20
475.5
 30
2.0
  9
$PLIMMIN
 10
0.0
 20
0.0
  9
$PLIMMAX
 10
420.0
 20
297.0
  9
$UNITMODE
 70
     0
  9
$VISRETAIN
 70
     0
  9
$PLINEGEN
 70
     0
  9
$PSLTSCALE
 70
     1
  9
$TREEDEPTH
 70
  3020
  9
$PICKSTYLE
 70
     1
  9
$CMLSTYLE
  2
STANDARD
  9
$CMLJUST
 70
     0
  9
$CMLSCALE
 40
20.0
  9
$PROXYGRAPHICS
 70
     1
  9
$MEASUREMENT
 70
     1
  0
ENDSEC
  0
SECTION
  2
CLASSES
  0
CLASS
  1
LWPOLYLINE
  2
AcDbPolyline
  3
"AutoCAD"
 90
        0
280
     0
281
     1
  0
CLASS
  1
IMAGE
  2
AcDbRasterImage
  3
ISM
 90
      127
280
     0
281
     1
  0
CLASS
  1
OLE2FRAME
  2
AcDbOle2Frame
  3
""
 90
        0
280
     0
281
     1
  0
CLASS
  1
HATCH
  2
AcDbHatch
  3
"ACAD_SEDONA"
 90
        0
280
     0
281
     1
  0
CLASS
  1
DICTIONARYVAR
  2
AcDbDictionaryVar
  3
"AutoCAD"
 90
        0
280
     0
281
     0
  0
CLASS
  1
RASTERVARIABLES
  2
AcDbRasterVariables
  3
ISM
 90
        0
280
     0
281
     0
  0
CLASS
  1
IMAGEDEF
  2
AcDbRasterImageDef
  3
ISM
 90
        0
280
     0
281
     0
  0
CLASS
  1
IMAGEDEF_REACTOR
  2
AcDbRasterImageDefReactor
  3
ISM
 90
        1
280
     0
281
     0
  0
CLASS
  1
IDBUFFER
  2
AcDbIdBuffer
  3
"Acad"
 90
        0
280
     0
281
     0
  0
CLASS
  1
SPATIAL_FILTER
  2
AcDbSpatialFilter
  3
"Acad"
 90
        0
280
     0
281
     0
  0
CLASS
  1
XRECORD
  2
AcDbXrecord
  3
"<Built In>"
 90
        0
280
     0
281
     0
  0
CLASS
  1
SORTENTSTABLE
  2
AcDbSortentsTable
  3
"AutoCAD"
 90
        0
280
     0
281
     0
  0
CLASS
  1
LAYER_INDEX
  2
AcDbLayerIndex
  3
"Acad"
 90
        0
280
     0
281
     0
  0
CLASS
  1
SPATIAL_INDEX
  2
AcDbSpatialIndex
  3
"Acad"
 90
        0
280
     0
281
     0
  0
CLASS
  1
OBJECT_PTR
  2
CAseDLPNTableRecord
  3
"ASE-LPNTableRecord"
 90
        1
280
     0
281
     0
  0
CLASS
  1
LAYOUT
  2
AcDbLayout
  3
"AutoCAD 2000"
 90
        0
280
     0
281
     0
  0
CLASS
  1
PLOTSETTINGS
  2
AcDbPlotSettings
  3
"AutoCAD 2000"
 90
        0
280
     0
281
     0
  0
CLASS
  1
ACDBDICTIONARYWDFLT
  2
AcDbDictionaryWithDefault
  3
"AutoCAD 2000"
 90
        0
280
     0
281
     0
  0
CLASS
  1
ACDBPLACEHOLDER
  2
AcDbPlaceHolder
  3
"AutoCAD 2000"
 90
        0
280
     0
281
     0
  0
CLASS
  1
VBA_PROJECT
  2
AcDbVbaProject
  3
"acadvba"
 90
        0
280
     0
281
     0
  0
CLASS
  1
WIPEOUT
  2
AcDbWipeout
  3
WipeOut|AutoCAD Express Tool|expresstools@autodesk.com
 90
      127
280
     0
281
     1
  0
CLASS
  1
WIPEOUTVARIABLES
  2
AcDbWipeoutVariables
  3
WipeOut|AutoCAD Express Tool|expresstools@autodesk.com
 90
        0
280
     0
281
     0
  0
CLASS
  1
RTEXT
  2
RText
  3
RText|AutoCAD Express Tool|expresstools@autodesk.com
 90
        0
280
     0
281
     1
  0
CLASS
  1
ARCALIGNEDTEXT
  2
AcDbArcAlignedText
  3
ATEXT|AutoCAD Express Tool|expresstools@autodesk.com
 90
        0
280
     0
281
     1
  0
ENDSEC
  0
SECTION
  2
TABLES
  0
TABLE
  2
VPORT
  5
7
100
AcDbSymbolTable
 70
     1
  0
VPORT
  5
15
100
AcDbSymbolTableRecord
100
AcDbViewportTableRecord
  2
*ACTIVE
 70
     0
 10
0.0
 20
0.0
 11
1.0
 21
1.0
 12
6.591288
 22
4.579184
 13
0.0
 23
0.0
 14
1.0
 24
1.0
 15
0.0
 25
0.0
 16
0.0
 26
0.0
 36
1.0
 17
0.0
 27
0.0
 37
0.0
 40
9.158369
 41
0.688564
 42
50.0
 43
0.0
 44
0.0
 50
0.0
 51
0.0
 71
     0
 72
   100
 73
     1
 74
     1
 75
     0
 76
     0
 77
     0
 78
     0
  0
ENDTAB
  0
TABLE
  2
LTYPE
  5
4
100
AcDbSymbolTable
 70
     3
  0
LTYPE
  5
11
100
AcDbSymbolTableRecord
100
AcDbLinetypeTableRecord
  2
BYBLOCK
 70
    64
  3

 72
    65
 73
     0
 40
0.0
  0
LTYPE
  5
12
100
AcDbSymbolTableRecord
100
AcDbLinetypeTableRecord
  2
BYLAYER
 70
    64
  3

 72
    65
 73
     0
 40
0.0
  0
LTYPE
  5
13
100
AcDbSymbolTableRecord
100
AcDbLinetypeTableRecord
  2
CONTINUOUS
 70
    64
  3
Solid line
 72
    65
 73
     0
 40
0.0
  0
ENDTAB
  0
TABLE
  2
LAYER
  5
2
100
AcDbSymbolTable
 70
     1
  0
LAYER
  5
14
100
AcDbSymbolTableRecord
100
AcDbLayerTableRecord
  2
0
 70
     0
 62
     7
  6
CONTINUOUS
  0
ENDTAB
  0
TABLE
  2
STYLE
  5
3
100
AcDbSymbolTable
 70
     1
  0
STYLE
  5
17
100
AcDbSymbolTableRecord
100
AcDbTextStyleTableRecord
  2
STANDARD
 70
     0
 40
0.0
 41
1.0
 50
0.0
 71
     0
 42
0.0
  3
txt
  4

  0
ENDTAB
  0
TABLE
  2
VIEW
  5
5
100
AcDbSymbolTable
 70
     0
  0
ENDTAB
  0
TABLE
  2
UCS
  5
6
100
AcDbSymbolTable
 70
     0
  0
ENDTAB
  0
TABLE
  2
APPID
  5
8
100
AcDbSymbolTable
 70
     1
  0
APPID
  5
16
100
AcDbSymbolTableRecord
100
AcDbRegAppTableRecord
  2
ACAD
 70
     0
  0
ENDTAB
  0
TABLE
  2
DIMSTYLE
  5
9
100
AcDbSymbolTable
 70
     1
  0
DIMSTYLE
105
18
100
AcDbSymbolTableRecord
100
AcDbDimStyleTableRecord
  2
STANDARD
 70
     0
  3

  4

  5

  6

  7

 40
1.0
 41
0.18
 42
0.0625
 43
0.38
 44
0.18
 45
0.0
 46
0.0
 47
0.0
 48
0.0
 71
     0
 72
     0
 73
     1
 74
     1
 75
     0
 76
     0
 77
     0
 78
     0
140
0.18
141
0.09
142
0.0
143
25.4
144
1.0
145
0.0
146
1.0
147
0.09
170
     0
171
     2
172
     0
173
     0
174
     0
175
     0
176
     0
177
     0
178
     0
270
     2
271
     4
272
     4
273
     2
274
     2
275
     0
280
     0
281
     0
282
     0
283
     1
284
     0
285
     0
286
     0
287
     3
288
     0
340
17
  0
ENDTAB
  0
TABLE
  2
BLOCK_RECORD
  5
1
100
AcDbSymbolTable
 70
     0
  0
BLOCK_RECORD
  5
A
100
AcDbSymbolTableRecord
100
AcDbBlockTableRecord
  2
*MODEL_SPACE
  0
BLOCK_RECORD
  5
B
100
AcDbSymbolTableRecord
100
AcDbBlockTableRecord
  2
*PAPER_SPACE
  0
ENDTAB
  0
ENDSEC
  0
SECTION
  2
BLOCKS
  0
BLOCK
  5
D
100
AcDbEntity
  8
0
100
AcDbBlockBegin
  2
*MODEL_SPACE
 70
     0
 10
0.0
 20
0.0
 30
0.0
  3
*MODEL_SPACE
  1

  0
ENDBLK
  5
E
100
AcDbEntity
  8
0
100
AcDbBlockEnd
  0
BLOCK
  5
F
100
AcDbEntity
 67
     1
  8
0
100
AcDbBlockBegin
  2
*PAPER_SPACE
 70
     0
 10
0.0
 20
0.0
 30
0.0
  3
*PAPER_SPACE
  1

  0
ENDBLK
  5
10
100
AcDbEntity
 67
     1
  8
0
100
AcDbBlockEnd
  0
ENDSEC
  0
SECTION
  2
ENTITIES
  0
VIEWPORT
  5
437
100
AcDbEntity
 67
     1
  8
0
 62
     0
 48
0.0
100
AcDbViewport
 10
0.0
 20
0.0
 30
0.0
 40
1000.0
 41
1000.0
 68
     1
 69
     1
1001
ACAD
1000
MVIEW
1002
{
1070
    16
1010
0.0
1020
0.0
1030
0.0
1010
0.0
1020
0.0
1030
1.0
1040
0.0
1040
1000.0
1040
0.0
1040
0.0
1040
50.0
1040
0.0
1040
0.0
1070
     0
1070
   100
1070
     1
1070
     1
1070
     0
1070
     0
1070
     0
1070
     0
1040
0.0
1040
0.0
1040
0.0
1040
1.0
1040
1.0
1040
1.0
1040
1.0
1070
     0
1002
{
1002
}
1002
}
  0
POLYLINE
  5
1D
100
AcDbEntity
  8
0
 62
     7
100
AcDb2dPolyline
 66
     1
 10
0.0
 20
0.0
 30
0.0
 70
     1
 71
     7
  0
VERTEX
  5
1E
100
AcDbEntity
  8
0
100
AcDbVertex
100
AcDb2dVertex
 10
596.895508
 20
357.148407
 30
0.0
  0
VERTEX
  5
1F
100
AcDbEntity
  8
0
100
AcDbVertex
100
AcDb2dVertex
 10
596.018005
 20
354.167877
 30
0.0
  0
VERTEX
  5
20
100
AcDbEntity
  8
0
100
AcDbVertex
100
AcDb2dVertex
 10
595.115295
 20
357.148407
 30
0.0
  0
VERTEX
  5
21
100
AcDbEntity
  8
0
100
AcDbVertex
100
AcDb2dVertex
 10
594.636169
 20
357.148407
 30
0.0
  0
VERTEX
  5
22
100
AcDbEntity
  8
0
100
AcDbVertex
100
AcDb2dVertex
 10
595.765869
 20
353.643372
 30
0.0
  0
VERTEX
  5
23
100
AcDbEntity
  8
0
100
AcDbVertex
100
AcDb2dVertex
 10
596.270203
 20
353.643372
 30
0.0
  0
VERTEX
  5
24
100
AcDbEntity
  8
0
100
AcDbVertex
100
AcDb2dVertex
 10
597.374634
 20
357.148407
 30
0.0
  0
SEQEND
  5
25
100
AcDbEntity
  8
0
  0
POLYLINE
  5
26
100
AcDbEntity
  8
0
 62
     7
100
AcDb2dPolyline
 66
     1
 10
0.0
 20
0.0
 30
0.0
 70
     1
 71
    16
  0
VERTEX
  5
27
100
AcDbEntity
  8
0
100
AcDbVertex
100
AcDb2dVertex
 10
597.878967
 20
354.994965
 30
0.0
  0
VERTEX
  5
28
100
AcDbEntity
  8
0
100
AcDbVertex
100
AcDb2dVertex
 10
597.959656
 20
354.379669
 30
0.0
  0
VERTEX
  5
29
100
AcDbEntity
  8
0
100
AcDbVertex
100
AcDb2dVertex
 10
598.19165
 20
353.925781
 30
0.0
  0
VERTEX
  5
2A
100
AcDbEntity
  8
0
100
AcDbVertex
100
AcDb2dVertex
 10
598.559814
 20
353.643372
 30
0.0
  0
VERTEX
  5
2B
100
AcDbEntity
  8
0
100
AcDbVertex
100
AcDb2dVertex
 10
599.054016
 20
353.547546
 30
0.0
  0
VERTEX
  5
2C
100
AcDbEntity
  8
0
100
AcDbVertex
100
AcDb2dVertex
 10
599.543213
 20
353.643372
 30
0.0
  0
VERTEX
  5
2D
100
AcDbEntity
  8
0
100
AcDbVertex
100
AcDb2dVertex
 10
599.911377
 20
353.920746
 30
0.0
  0
VERTEX
  5
2E
100
AcDbEntity
  8
0
100
AcDbVertex
100
AcDb2dVertex
 10
600.143372
 20
354.374634
 30
0.0
  0
VERTEX
  5
2F
100
AcDbEntity
  8
0
100
AcDbVertex
100
AcDb2dVertex
 10
600.229126
 20
354.994965
 30
0.0
  0
VERTEX
  5
30
100
AcDbEntity
  8
0
100
AcDbVertex
100
AcDb2dVertex
 10
600.143372
 20
355.610229
 30
0.0
  0
VERTEX
  5
31
100
AcDbEntity
  8
0
100
AcDbVertex
100
AcDb2dVertex
 10
599.911377
 20
356.069153
 30
0.0
  0
VERTEX
  5
32
100
AcDbEntity
  8
0
100
AcDbVertex
100
AcDb2dVertex
 10
599.543213
 20
356.346527
 30
0.0
  0
VERTEX
  5
33
100
AcDbEntity
  8
0
100
AcDbVertex
100
AcDb2dVertex
 10
599.054016
 20
356.447418
 30
0.0
  0
VERTEX
  5
34
100
AcDbEntity
  8
0
100
AcDbVertex
100
AcDb2dVertex
 10
598.559814
 20
356.346527
 30
0.0
  0
VERTEX
  5
35
100
AcDbEntity
  8
0
100
AcDbVertex
100
AcDb2dVertex
 10
598.19165
 20
356.064117
 30
0.0
  0
VERTEX
  5
36
100
AcDbEntity
  8
0
100
AcDbVertex
100
AcDb2dVertex
 10
597.959656
 20
355.610229
 30
0.0
  0
SEQEND
  5
37
100
AcDbEntity
  8
0
  0
POLYLINE
  5
38
100
AcDbEntity
  8
0
 62
     7
100
AcDb2dPolyline
 66
     1
 10
0.0
 20
0.0
 30
0.0
 70
     1
 71
    16
  0
VERTEX
  5
39
100
AcDbEntity
  8
0
100
AcDbVertex
100
AcDb2dVertex
 10
598.332825
 20
355.0
 30
0.0
  0
VERTEX
  5
3A
100
AcDbEntity
  8
0
100
AcDbVertex
100
AcDb2dVertex
 10
598.378235
 20
355.453888
 30
0.0
  0
VERTEX
  5
3B
100
AcDbEntity
  8
0
100
AcDbVertex
100
AcDb2dVertex
 10
598.51947
 20
355.781708
 30
0.0
  0
VERTEX
  5
3C
100
AcDbEntity
  8
0
100
AcDbVertex
100
AcDb2dVertex
 10
598.746399
 20
355.983429
 30
0.0
  0
VERTEX
  5
3D
100
AcDbEntity
  8
0
100
AcDbVertex
100
AcDb2dVertex
 10
599.054016
 20
356.054047
 30
0.0
  0
VERTEX
  5
3E
100
AcDbEntity
  8
0
100
AcDbVertex
100
AcDb2dVertex
 10
599.356628
 20
355.983429
 30
0.0
  0
VERTEX
  5
3F
100
AcDbEntity
  8
0
100
AcDbVertex
100
AcDb2dVertex
 10
599.583557
 20
355.786743
 30
0.0
  0
VERTEX
  5
40
100
AcDbEntity
  8
0
100
AcDbVertex
100
AcDb2dVertex
 10
599.724792
 20
355.453888
 30
0.0
  0
VERTEX
  5
41
100
AcDbEntity
  8
0
100
AcDbVertex
100
AcDb2dVertex
 10
599.775208
 20
355.0
 30
0.0
  0
VERTEX
  5
42
100
AcDbEntity
  8
0
100
AcDbVertex
100
AcDb2dVertex
 10
599.724792
 20
354.541077
 30
0.0
  0
VERTEX
  5
43
100
AcDbEntity
  8
0
100
AcDbVertex
100
AcDb2dVertex
 10
599.583557
 20
354.208221
 30
0.0
  0
VERTEX
  5
44
100
AcDbEntity
  8
0
100
AcDbVertex
100
AcDb2dVertex
 10
599.356628
 20
354.00647
 30
0.0
  0
VERTEX
  5
45
100
AcDbEntity
  8
0
100
AcDbVertex
100
AcDb2dVertex
 10
599.054016
 20
353.940918
 30
0.0
  0
VERTEX
  5
46
100
AcDbEntity
  8
0
100
AcDbVertex
100
AcDb2dVertex
 10
598.746399
 20
354.00647
 30
0.0
  0
VERTEX
  5
47
100
AcDbEntity
  8
0
100
AcDbVertex
100
AcDb2dVertex
 10
598.51947
 20
354.208221
 30
0.0
  0
VERTEX
  5
48
100
AcDbEntity
  8
0
100
AcDbVertex
100
AcDb2dVertex
 10
598.378235
 20
354.541077
 30
0.0
  0
SEQEND
  5
49
100
AcDbEntity
  8
0
  0
POLYLINE
  5
4A
100
AcDbEntity
  8
0
 62
     7
100
AcDb2dPolyline
 66
     1
 10
0.0
 20
0.0
 30
0.0
 70
     1
 71
    22
  0
VERTEX
  5
4B
100
AcDbEntity
  8
0
100
AcDbVertex
100
AcDb2dVertex
 10
601.212524
 20
353.643372
 30
0.0
  0
VERTEX
  5
4C
100
AcDbEntity
  8
0
100
AcDbVertex
100
AcDb2dVertex
 10
601.656311
 20
353.643372
 30
0.0
  0
VERTEX
  5
4D
100
AcDbEntity
  8
0
100
AcDbVertex
100
AcDb2dVertex
 10
601.656311
 20
355.19165
 30
0.0
  0
VERTEX
  5
4E
100
AcDbEntity
  8
0
100
AcDbVertex
100
AcDb2dVertex
 10
601.701721
 20
355.56485
 30
0.0
  0
VERTEX
  5
4F
100
AcDbEntity
  8
0
100
AcDbVertex
100
AcDb2dVertex
 10
601.837891
 20
355.832123
 30
0.0
  0
VERTEX
  5
50
100
AcDbEntity
  8
0
100
AcDbVertex
100
AcDb2dVertex
 10
602.059814
 20
355.99353
 30
0.0
  0
VERTEX
  5
51
100
AcDbEntity
  8
0
100
AcDbVertex
100
AcDb2dVertex
 10
602.357361
 20
356.048981
 30
0.0
  0
VERTEX
  5
52
100
AcDbEntity
  8
0
100
AcDbVertex
100
AcDb2dVertex
 10
602.579224
 20
356.013702
 30
0.0
  0
VERTEX
  5
53
100
AcDbEntity
  8
0
100
AcDbVertex
100
AcDb2dVertex
 10
602.745667
 20
355.912811
 30
0.0
  0
VERTEX
  5
54
100
AcDbEntity
  8
0
100
AcDbVertex
100
AcDb2dVertex
 10
602.846558
 20
355.741364
 30
0.0
  0
VERTEX
  5
55
100
AcDbEntity
  8
0
100
AcDbVertex
100
AcDb2dVertex
 10
602.881836
 20
355.509369
 30
0.0
  0
VERTEX
  5
56
100
AcDbEntity
  8
0
100
AcDbVertex
100
AcDb2dVertex
 10
603.330688
 20
355.509369
 30
0.0
  0
VERTEX
  5
57
100
AcDbEntity
  8
0
100
AcDbVertex
100
AcDb2dVertex
 10
603.270203
 20
355.917877
 30
0.0
  0
VERTEX
  5
58
100
AcDbEntity
  8
0
100
AcDbVertex
100
AcDb2dVertex
 10
603.10376
 20
356.210388
 30
0.0
  0
VERTEX
  5
59
100
AcDbEntity
  8
0
100
AcDbVertex
100
AcDb2dVertex
 10
602.826355
 20
356.386902
 30
0.0
  0
VERTEX
  5
5A
100
AcDbEntity
  8
0
100
AcDbVertex
100
AcDb2dVertex
 10
602.44812
 20
356.447418
 30
0.0
  0
VERTEX
  5
5B
100
AcDbEntity
  8
0
100
AcDbVertex
100
AcDb2dVertex
 10
602.190918
 20
356.407074
 30
0.0
  0
VERTEX
  5
5C
100
AcDbEntity
  8
0
100
AcDbVertex
100
AcDb2dVertex
 10
601.968994
 20
356.306183
 30
0.0
  0
VERTEX
  5
5D
100
AcDbEntity
  8
0
100
AcDbVertex
100
AcDb2dVertex
 10
601.772339
 20
356.134735
 30
0.0
  0
VERTEX
  5
5E
100
AcDbEntity
  8
0
100
AcDbVertex
100
AcDb2dVertex
 10
601.615967
 20
355.90274
 30
0.0
  0
VERTEX
  5
5F
100
AcDbEntity
  8
0
100
AcDbVertex
100
AcDb2dVertex
 10
601.615967
 20
356.351593
 30
0.0
  0
VERTEX
  5
60
100
AcDbEntity
  8
0
100
AcDbVertex
100
AcDb2dVertex
 10
601.212524
 20
356.351593
 30
0.0
  0
SEQEND
  5
61
100
AcDbEntity
  8
0
  0
POLYLINE
  5
62
100
AcDbEntity
  8
0
 62
     7
100
AcDb2dPolyline
 66
     1
 10
0.0
 20
0.0
 30
0.0
 70
     1
 71
    19
  0
VERTEX
  5
63
100
AcDbEntity
  8
0
100
AcDbVertex
100
AcDb2dVertex
 10
605.746399
 20
354.061951
 30
0.0
  0
VERTEX
  5
64
100
AcDbEntity
  8
0
100
AcDbVertex
100
AcDb2dVertex
 10
605.746399
 20
353.643372
 30
0.0
  0
VERTEX
  5
65
100
AcDbEntity
  8
0
100
AcDbVertex
100
AcDb2dVertex
 10
606.190186
 20
353.643372
 30
0.0
  0
VERTEX
  5
66
100
AcDbEntity
  8
0
100
AcDbVertex
100
AcDb2dVertex
 10
606.190186
 20
357.264404
 30
0.0
  0
VERTEX
  5
67
100
AcDbEntity
  8
0
100
AcDbVertex
100
AcDb2dVertex
 10
605.751465
 20
357.264404
 30
0.0
  0
VERTEX
  5
68
100
AcDbEntity
  8
0
100
AcDbVertex
100
AcDb2dVertex
 10
605.751465
 20
355.938049
 30
0.0
  0
VERTEX
  5
69
100
AcDbEntity
  8
0
100
AcDbVertex
100
AcDb2dVertex
 10
605.413574
 20
356.32132
 30
0.0
  0
VERTEX
  5
6A
100
AcDbEntity
  8
0
100
AcDbVertex
100
AcDb2dVertex
 10
605.206787
 20
356.412109
 30
0.0
  0
VERTEX
  5
6B
100
AcDbEntity
  8
0
100
AcDbVertex
100
AcDb2dVertex
 10
604.969727
 20
356.447418
 30
0.0
  0
VERTEX
  5
6C
100
AcDbEntity
  8
0
100
AcDbVertex
100
AcDb2dVertex
 10
604.541077
 20
356.346527
 30
0.0
  0
VERTEX
  5
6D
100
AcDbEntity
  8
0
100
AcDbVertex
100
AcDb2dVertex
 10
604.208191
 20
356.064117
 30
0.0
  0
VERTEX
  5
6E
100
AcDbEntity
  8
0
100
AcDbVertex
100
AcDb2dVertex
 10
603.991333
 20
355.610229
 30
0.0
  0
VERTEX
  5
6F
100
AcDbEntity
  8
0
100
AcDbVertex
100
AcDb2dVertex
 10
603.91571
 20
355.0
 30
0.0
  0
VERTEX
  5
70
100
AcDbEntity
  8
0
100
AcDbVertex
100
AcDb2dVertex
 10
603.991333
 20
354.389771
 30
0.0
  0
VERTEX
  5
71
100
AcDbEntity
  8
0
100
AcDbVertex
100
AcDb2dVertex
 10
604.208191
 20
353.930847
 30
0.0
  0
VERTEX
  5
72
100
AcDbEntity
  8
0
100
AcDbVertex
100
AcDb2dVertex
 10
604.541077
 20
353.643372
 30
0.0
  0
VERTEX
  5
73
100
AcDbEntity
  8
0
100
AcDbVertex
100
AcDb2dVertex
 10
604.969727
 20
353.547546
 30
0.0
  0
VERTEX
  5
74
100
AcDbEntity
  8
0
100
AcDbVertex
100
AcDb2dVertex
 10
605.206787
 20
353.582855
 30
0.0
  0
VERTEX
  5
75
100
AcDbEntity
  8
0
100
AcDbVertex
100
AcDb2dVertex
 10
605.418579
 20
353.673645
 30
0.0
  0
SEQEND
  5
76
100
AcDbEntity
  8
0
  0
POLYLINE
  5
77
100
AcDbEntity
  8
0
 62
     7
100
AcDb2dPolyline
 66
     1
 10
0.0
 20
0.0
 30
0.0
 70
     1
 71
    16
  0
VERTEX
  5
78
100
AcDbEntity
  8
0
100
AcDbVertex
100
AcDb2dVertex
 10
605.04541
 20
356.048981
 30
0.0
  0
VERTEX
  5
79
100
AcDbEntity
  8
0
100
AcDbVertex
100
AcDb2dVertex
 10
605.337891
 20
355.978394
 30
0.0
  0
VERTEX
  5
7A
100
AcDbEntity
  8
0
100
AcDbVertex
100
AcDb2dVertex
 10
605.559814
 20
355.781708
 30
0.0
  0
VERTEX
  5
7B
100
AcDbEntity
  8
0
100
AcDbVertex
100
AcDb2dVertex
 10
605.690918
 20
355.453888
 30
0.0
  0
VERTEX
  5
7C
100
AcDbEntity
  8
0
100
AcDbVertex
100
AcDb2dVertex
 10
605.741333
 20
355.0
 30
0.0
  0
VERTEX
  5
7D
100
AcDbEntity
  8
0
100
AcDbVertex
100
AcDb2dVertex
 10
605.690918
 20
354.541077
 30
0.0
  0
VERTEX
  5
7E
100
AcDbEntity
  8
0
100
AcDbVertex
100
AcDb2dVertex
 10
605.559814
 20
354.213257
 30
0.0
  0
VERTEX
  5
7F
100
AcDbEntity
  8
0
100
AcDbVertex
100
AcDb2dVertex
 10
605.337891
 20
354.011536
 30
0.0
  0
VERTEX
  5
80
100
AcDbEntity
  8
0
100
AcDbVertex
100
AcDb2dVertex
 10
605.04541
 20
353.945953
 30
0.0
  0
VERTEX
  5
81
100
AcDbEntity
  8
0
100
AcDbVertex
100
AcDb2dVertex
 10
604.768005
 20
354.011536
 30
0.0
  0
VERTEX
  5
82
100
AcDbEntity
  8
0
100
AcDbVertex
100
AcDb2dVertex
 10
604.556213
 20
354.213257
 30
0.0
  0
VERTEX
  5
83
100
AcDbEntity
  8
0
100
AcDbVertex
100
AcDb2dVertex
 10
604.414978
 20
354.546112
 30
0.0
  0
VERTEX
  5
84
100
AcDbEntity
  8
0
100
AcDbVertex
100
AcDb2dVertex
 10
604.369568
 20
355.0
 30
0.0
  0
VERTEX
  5
85
100
AcDbEntity
  8
0
100
AcDbVertex
100
AcDb2dVertex
 10
604.414978
 20
355.448853
 30
0.0
  0
VERTEX
  5
86
100
AcDbEntity
  8
0
100
AcDbVertex
100
AcDb2dVertex
 10
604.556213
 20
355.776642
 30
0.0
  0
VERTEX
  5
87
100
AcDbEntity
  8
0
100
AcDbVertex
100
AcDb2dVertex
 10
604.768005
 20
355.978394
 30
0.0
  0
SEQEND
  5
88
100
AcDbEntity
  8
0
  0
POLYLINE
  5
89
100
AcDbEntity
  8
0
 62
     7
100
AcDb2dPolyline
 66
     1
 10
0.0
 20
0.0
 30
0.0
 70
     1
 71
    27
  0
VERTEX
  5
8A
100
AcDbEntity
  8
0
100
AcDbVertex
100
AcDb2dVertex
 10
607.50647
 20
354.868866
 30
0.0
  0
VERTEX
  5
8B
100
AcDbEntity
  8
0
100
AcDbVertex
100
AcDb2dVertex
 10
609.281677
 20
354.868866
 30
0.0
  0
VERTEX
  5
8C
100
AcDbEntity
  8
0
100
AcDbVertex
100
AcDb2dVertex
 10
609.286743
 20
355.075653
 30
0.0
  0
VERTEX
  5
8D
100
AcDbEntity
  8
0
100
AcDbVertex
100
AcDb2dVertex
 10
609.206055
 20
355.655609
 30
0.0
  0
VERTEX
  5
8E
100
AcDbEntity
  8
0
100
AcDbVertex
100
AcDb2dVertex
 10
608.984131
 20
356.089325
 30
0.0
  0
VERTEX
  5
8F
100
AcDbEntity
  8
0
100
AcDbVertex
100
AcDb2dVertex
 10
608.631104
 20
356.351593
 30
0.0
  0
VERTEX
  5
90
100
AcDbEntity
  8
0
100
AcDbVertex
100
AcDb2dVertex
 10
608.162109
 20
356.447418
 30
0.0
  0
VERTEX
  5
91
100
AcDbEntity
  8
0
100
AcDbVertex
100
AcDb2dVertex
 10
607.703186
 20
356.346527
 30
0.0
  0
VERTEX
  5
92
100
AcDbEntity
  8
0
100
AcDbVertex
100
AcDb2dVertex
 10
607.350159
 20
356.064117
 30
0.0
  0
VERTEX
  5
93
100
AcDbEntity
  8
0
100
AcDbVertex
100
AcDb2dVertex
 10
607.123169
 20
355.605194
 30
0.0
  0
VERTEX
  5
94
100
AcDbEntity
  8
0
100
AcDbVertex
100
AcDb2dVertex
 10
607.04248
 20
355.0
 30
0.0
  0
VERTEX
  5
95
100
AcDbEntity
  8
0
100
AcDbVertex
100
AcDb2dVertex
 10
607.118164
 20
354.379669
 30
0.0
  0
VERTEX
  5
96
100
AcDbEntity
  8
0
100
AcDbVertex
100
AcDb2dVertex
 10
607.345093
 20
353.925781
 30
0.0
  0
VERTEX
  5
97
100
AcDbEntity
  8
0
100
AcDbVertex
100
AcDb2dVertex
 10
607.693054
 20
353.643372
 30
0.0
  0
VERTEX
  5
98
100
AcDbEntity
  8
0
100
AcDbVertex
100
AcDb2dVertex
 10
608.146973
 20
353.547546
 30
0.0
  0
VERTEX
  5
99
100
AcDbEntity
  8
0
100
AcDbVertex
100
AcDb2dVertex
 10
608.540344
 20
353.613098
 30
0.0
  0
VERTEX
  5
9A
100
AcDbEntity
  8
0
100
AcDbVertex
100
AcDb2dVertex
 10
608.863098
 20
353.784576
 30
0.0
  0
VERTEX
  5
9B
100
AcDbEntity
  8
0
100
AcDbVertex
100
AcDb2dVertex
 10
609.100159
 20
354.056915
 30
0.0
  0
VERTEX
  5
9C
100
AcDbEntity
  8
0
100
AcDbVertex
100
AcDb2dVertex
 10
609.236328
 20
354.420013
 30
0.0
  0
VERTEX
  5
9D
100
AcDbEntity
  8
0
100
AcDbVertex
100
AcDb2dVertex
 10
608.797546
 20
354.420013
 30
0.0
  0
VERTEX
  5
9E
100
AcDbEntity
  8
0
100
AcDbVertex
100
AcDb2dVertex
 10
608.706787
 20
354.218292
 30
0.0
  0
VERTEX
  5
9F
100
AcDbEntity
  8
0
100
AcDbVertex
100
AcDb2dVertex
 10
608.575623
 20
354.067017
 30
0.0
  0
VERTEX
  5
A0
100
AcDbEntity
  8
0
100
AcDbVertex
100
AcDb2dVertex
 10
608.202454
 20
353.945953
 30
0.0
  0
VERTEX
  5
A1
100
AcDbEntity
  8
0
100
AcDbVertex
100
AcDb2dVertex
 10
607.914978
 20
354.001434
 30
0.0
  0
VERTEX
  5
A2
100
AcDbEntity
  8
0
100
AcDbVertex
100
AcDb2dVertex
 10
607.69812
 20
354.177948
 30
0.0
  0
VERTEX
  5
A3
100
AcDbEntity
  8
0
100
AcDbVertex
100
AcDb2dVertex
 10
607.556946
 20
354.465424
 30
0.0
  0
VERTEX
  5
A4
100
AcDbEntity
  8
0
100
AcDbVertex
100
AcDb2dVertex
 10
607.50647
 20
354.85376
 30
0.0
  0
SEQEND
  5
A5
100
AcDbEntity
  8
0
  0
POLYLINE
  5
A6
100
AcDbEntity
  8
0
 62
     7
100
AcDb2dPolyline
 66
     1
 10
0.0
 20
0.0
 30
0.0
 70
     1
 71
     9
  0
VERTEX
  5
A7
100
AcDbEntity
  8
0
100
AcDbVertex
100
AcDb2dVertex
 10
607.50647
 20
355.242065
 30
0.0
  0
VERTEX
  5
A8
100
AcDbEntity
  8
0
100
AcDbVertex
100
AcDb2dVertex
 10
607.561951
 20
355.590057
 30
0.0
  0
VERTEX
  5
A9
100
AcDbEntity
  8
0
100
AcDbVertex
100
AcDb2dVertex
 10
607.69812
 20
355.84726
 30
0.0
  0
VERTEX
  5
AA
100
AcDbEntity
  8
0
100
AcDbVertex
100
AcDb2dVertex
 10
607.904907
 20
356.003601
 30
0.0
  0
VERTEX
  5
AB
100
AcDbEntity
  8
0
100
AcDbVertex
100
AcDb2dVertex
 10
608.177246
 20
356.059082
 30
0.0
  0
VERTEX
  5
AC
100
AcDbEntity
  8
0
100
AcDbVertex
100
AcDb2dVertex
 10
608.444519
 20
356.003601
 30
0.0
  0
VERTEX
  5
AD
100
AcDbEntity
  8
0
100
AcDbVertex
100
AcDb2dVertex
 10
608.651306
 20
355.84726
 30
0.0
  0
VERTEX
  5
AE
100
AcDbEntity
  8
0
100
AcDbVertex
100
AcDb2dVertex
 10
608.777405
 20
355.590057
 30
0.0
  0
VERTEX
  5
AF
100
AcDbEntity
  8
0
100
AcDbVertex
100
AcDb2dVertex
 10
608.822754
 20
355.242065
 30
0.0
  0
SEQEND
  5
B0
100
AcDbEntity
  8
0
  0
POLYLINE
  5
B1
100
AcDbEntity
  8
0
 62
     7
100
AcDb2dPolyline
 66
     1
 10
0.0
 20
0.0
 30
0.0
 70
     1
 71
    22
  0
VERTEX
  5
B2
100
AcDbEntity
  8
0
100
AcDbVertex
100
AcDb2dVertex
 10
610.320618
 20
353.643372
 30
0.0
  0
VERTEX
  5
B3
100
AcDbEntity
  8
0
100
AcDbVertex
100
AcDb2dVertex
 10
610.764404
 20
353.643372
 30
0.0
  0
VERTEX
  5
B4
100
AcDbEntity
  8
0
100
AcDbVertex
100
AcDb2dVertex
 10
610.764404
 20
355.19165
 30
0.0
  0
VERTEX
  5
B5
100
AcDbEntity
  8
0
100
AcDbVertex
100
AcDb2dVertex
 10
610.809814
 20
355.56485
 30
0.0
  0
VERTEX
  5
B6
100
AcDbEntity
  8
0
100
AcDbVertex
100
AcDb2dVertex
 10
610.945984
 20
355.832123
 30
0.0
  0
VERTEX
  5
B7
100
AcDbEntity
  8
0
100
AcDbVertex
100
AcDb2dVertex
 10
611.167847
 20
355.99353
 30
0.0
  0
VERTEX
  5
B8
100
AcDbEntity
  8
0
100
AcDbVertex
100
AcDb2dVertex
 10
611.465393
 20
356.048981
 30
0.0
  0
VERTEX
  5
B9
100
AcDbEntity
  8
0
100
AcDbVertex
100
AcDb2dVertex
 10
611.687317
 20
356.013702
 30
0.0
  0
VERTEX
  5
BA
100
AcDbEntity
  8
0
100
AcDbVertex
100
AcDb2dVertex
 10
611.85376
 20
355.912811
 30
0.0
  0
VERTEX
  5
BB
100
AcDbEntity
  8
0
100
AcDbVertex
100
AcDb2dVertex
 10
611.95459
 20
355.741364
 30
0.0
  0
VERTEX
  5
BC
100
AcDbEntity
  8
0
100
AcDbVertex
100
AcDb2dVertex
 10
611.989929
 20
355.509369
 30
0.0
  0
VERTEX
  5
BD
100
AcDbEntity
  8
0
100
AcDbVertex
100
AcDb2dVertex
 10
612.438782
 20
355.509369
 30
0.0
  0
VERTEX
  5
BE
100
AcDbEntity
  8
0
100
AcDbVertex
100
AcDb2dVertex
 10
612.378235
 20
355.917877
 30
0.0
  0
VERTEX
  5
BF
100
AcDbEntity
  8
0
100
AcDbVertex
100
AcDb2dVertex
 10
612.211792
 20
356.210388
 30
0.0
  0
VERTEX
  5
C0
100
AcDbEntity
  8
0
100
AcDbVertex
100
AcDb2dVertex
 10
611.934448
 20
356.386902
 30
0.0
  0
VERTEX
  5
C1
100
AcDbEntity
  8
0
100
AcDbVertex
100
AcDb2dVertex
 10
611.556213
 20
356.447418
 30
0.0
  0
VERTEX
  5
C2
100
AcDbEntity
  8
0
100
AcDbVertex
100
AcDb2dVertex
 10
611.299011
 20
356.407074
 30
0.0
  0
VERTEX
  5
C3
100
AcDbEntity
  8
0
100
AcDbVertex
100
AcDb2dVertex
 10
611.077087
 20
356.306183
 30
0.0
  0
VERTEX
  5
C4
100
AcDbEntity
  8
0
100
AcDbVertex
100
AcDb2dVertex
 10
610.880432
 20
356.134735
 30
0.0
  0
VERTEX
  5
C5
100
AcDbEntity
  8
0
100
AcDbVertex
100
AcDb2dVertex
 10
610.72406
 20
355.90274
 30
0.0
  0
VERTEX
  5
C6
100
AcDbEntity
  8
0
100
AcDbVertex
100
AcDb2dVertex
 10
610.72406
 20
356.351593
 30
0.0
  0
VERTEX
  5
C7
100
AcDbEntity
  8
0
100
AcDbVertex
100
AcDb2dVertex
 10
610.320618
 20
356.351593
 30
0.0
  0
SEQEND
  5
C8
100
AcDbEntity
  8
0
  0
POLYLINE
  5
C9
100
AcDbEntity
  8
0
 62
     7
100
AcDb2dPolyline
 66
     1
 10
0.0
 20
0.0
 30
0.0
 70
     1
 71
    42
  0
VERTEX
  5
CA
100
AcDbEntity
  8
0
100
AcDbVertex
100
AcDb2dVertex
 10
614.799011
 20
353.996399
 30
0.0
  0
VERTEX
  5
CB
100
AcDbEntity
  8
0
100
AcDbVertex
100
AcDb2dVertex
 10
614.799011
 20
353.981262
 30
0.0
  0
VERTEX
  5
CC
100
AcDbEntity
  8
0
100
AcDbVertex
100
AcDb2dVertex
 10
614.824219
 20
353.809784
 30
0.0
  0
VERTEX
  5
CD
100
AcDbEntity
  8
0
100
AcDbVertex
100
AcDb2dVertex
 10
614.899841
 20
353.688751
 30
0.0
  0
VERTEX
  5
CE
100
AcDbEntity
  8
0
100
AcDbVertex
100
AcDb2dVertex
 10
615.21759
 20
353.592926
 30
0.0
  0
VERTEX
  5
CF
100
AcDbEntity
  8
0
100
AcDbVertex
100
AcDb2dVertex
 10
615.464722
 20
353.63327
 30
0.0
  0
VERTEX
  5
D0
100
AcDbEntity
  8
0
100
AcDbVertex
100
AcDb2dVertex
 10
615.464722
 20
353.976227
 30
0.0
  0
VERTEX
  5
D1
100
AcDbEntity
  8
0
100
AcDbVertex
100
AcDb2dVertex
 10
615.358765
 20
353.96109
 30
0.0
  0
VERTEX
  5
D2
100
AcDbEntity
  8
0
100
AcDbVertex
100
AcDb2dVertex
 10
615.21759
 20
354.026642
 30
0.0
  0
VERTEX
  5
D3
100
AcDbEntity
  8
0
100
AcDbVertex
100
AcDb2dVertex
 10
615.192383
 20
354.228394
 30
0.0
  0
VERTEX
  5
D4
100
AcDbEntity
  8
0
100
AcDbVertex
100
AcDb2dVertex
 10
615.192383
 20
355.630402
 30
0.0
  0
VERTEX
  5
D5
100
AcDbEntity
  8
0
100
AcDbVertex
100
AcDb2dVertex
 10
615.131836
 20
355.988464
 30
0.0
  0
VERTEX
  5
D6
100
AcDbEntity
  8
0
100
AcDbVertex
100
AcDb2dVertex
 10
614.955322
 20
356.240631
 30
0.0
  0
VERTEX
  5
D7
100
AcDbEntity
  8
0
100
AcDbVertex
100
AcDb2dVertex
 10
614.647705
 20
356.391937
 30
0.0
  0
VERTEX
  5
D8
100
AcDbEntity
  8
0
100
AcDbVertex
100
AcDb2dVertex
 10
614.213989
 20
356.447418
 30
0.0
  0
VERTEX
  5
D9
100
AcDbEntity
  8
0
100
AcDbVertex
100
AcDb2dVertex
 10
613.790344
 20
356.386902
 30
0.0
  0
VERTEX
  5
DA
100
AcDbEntity
  8
0
100
AcDbVertex
100
AcDb2dVertex
 10
613.477661
 20
356.215424
 30
0.0
  0
VERTEX
  5
DB
100
AcDbEntity
  8
0
100
AcDbVertex
100
AcDb2dVertex
 10
613.281006
 20
355.94812
 30
0.0
  0
VERTEX
  5
DC
100
AcDbEntity
  8
0
100
AcDbVertex
100
AcDb2dVertex
 10
613.215393
 20
355.595093
 30
0.0
  0
VERTEX
  5
DD
100
AcDbEntity
  8
0
100
AcDbVertex
100
AcDb2dVertex
 10
613.215393
 20
355.56485
 30
0.0
  0
VERTEX
  5
DE
100
AcDbEntity
  8
0
100
AcDbVertex
100
AcDb2dVertex
 10
613.613831
 20
355.56485
 30
0.0
  0
VERTEX
  5
DF
100
AcDbEntity
  8
0
100
AcDbVertex
100
AcDb2dVertex
 10
613.649109
 20
355.776642
 30
0.0
  0
VERTEX
  5
E0
100
AcDbEntity
  8
0
100
AcDbVertex
100
AcDb2dVertex
 10
613.760071
 20
355.927948
 30
0.0
  0
VERTEX
  5
E1
100
AcDbEntity
  8
0
100
AcDbVertex
100
AcDb2dVertex
 10
613.94165
 20
356.018738
 30
0.0
  0
VERTEX
  5
E2
100
AcDbEntity
  8
0
100
AcDbVertex
100
AcDb2dVertex
 10
614.198853
 20
356.054047
 30
0.0
  0
VERTEX
  5
E3
100
AcDbEntity
  8
0
100
AcDbVertex
100
AcDb2dVertex
 10
614.445984
 20
356.028809
 30
0.0
  0
VERTEX
  5
E4
100
AcDbEntity
  8
0
100
AcDbVertex
100
AcDb2dVertex
 10
614.622498
 20
355.953156
 30
0.0
  0
VERTEX
  5
E5
100
AcDbEntity
  8
0
100
AcDbVertex
100
AcDb2dVertex
 10
614.728394
 20
355.822052
 30
0.0
  0
VERTEX
  5
E6
100
AcDbEntity
  8
0
100
AcDbVertex
100
AcDb2dVertex
 10
614.763672
 20
355.640503
 30
0.0
  0
VERTEX
  5
E7
100
AcDbEntity
  8
0
100
AcDbVertex
100
AcDb2dVertex
 10
614.74353
 20
355.42868
 30
0.0
  0
VERTEX
  5
E8
100
AcDbEntity
  8
0
100
AcDbVertex
100
AcDb2dVertex
 10
614.662842
 20
355.322754
 30
0.0
  0
VERTEX
  5
E9
100
AcDbEntity
  8
0
100
AcDbVertex
100
AcDb2dVertex
 10
614.461121
 20
355.272339
 30
0.0
  0
VERTEX
  5
EA
100
AcDbEntity
  8
0
100
AcDbVertex
100
AcDb2dVertex
 10
614.082825
 20
355.231995
 30
0.0
  0
VERTEX
  5
EB
100
AcDbEntity
  8
0
100
AcDbVertex
100
AcDb2dVertex
 10
613.649109
 20
355.141205
 30
0.0
  0
VERTEX
  5
EC
100
AcDbEntity
  8
0
100
AcDbVertex
100
AcDb2dVertex
 10
613.341492
 20
354.979828
 30
0.0
  0
VERTEX
  5
ED
100
AcDbEntity
  8
0
100
AcDbVertex
100
AcDb2dVertex
 10
613.159912
 20
354.727661
 30
0.0
  0
VERTEX
  5
EE
100
AcDbEntity
  8
0
100
AcDbVertex
100
AcDb2dVertex
 10
613.104492
 20
354.354462
 30
0.0
  0
VERTEX
  5
EF
100
AcDbEntity
  8
0
100
AcDbVertex
100
AcDb2dVertex
 10
613.154907
 20
354.021606
 30
0.0
  0
VERTEX
  5
F0
100
AcDbEntity
  8
0
100
AcDbVertex
100
AcDb2dVertex
 10
613.311218
 20
353.774506
 30
0.0
  0
VERTEX
  5
F1
100
AcDbEntity
  8
0
100
AcDbVertex
100
AcDb2dVertex
 10
613.563416
 20
353.618164
 30
0.0
  0
VERTEX
  5
F2
100
AcDbEntity
  8
0
100
AcDbVertex
100
AcDb2dVertex
 10
613.911377
 20
353.562683
 30
0.0
  0
VERTEX
  5
F3
100
AcDbEntity
  8
0
100
AcDbVertex
100
AcDb2dVertex
 10
614.380432
 20
353.668579
 30
0.0
  0
SEQEND
  5
F4
100
AcDbEntity
  8
0
  0
POLYLINE
  5
F5
100
AcDbEntity
  8
0
 62
     7
100
AcDb2dPolyline
 66
     1
 10
0.0
 20
0.0
 30
0.0
 70
     1
 71
    14
  0
VERTEX
  5
F6
100
AcDbEntity
  8
0
100
AcDbVertex
100
AcDb2dVertex
 10
614.748535
 20
354.591492
 30
0.0
  0
VERTEX
  5
F7
100
AcDbEntity
  8
0
100
AcDbVertex
100
AcDb2dVertex
 10
614.688049
 20
354.329254
 30
0.0
  0
VERTEX
  5
F8
100
AcDbEntity
  8
0
100
AcDbVertex
100
AcDb2dVertex
 10
614.526672
 20
354.127533
 30
0.0
  0
VERTEX
  5
F9
100
AcDbEntity
  8
0
100
AcDbVertex
100
AcDb2dVertex
 10
614.284607
 20
353.996399
 30
0.0
  0
VERTEX
  5
FA
100
AcDbEntity
  8
0
100
AcDbVertex
100
AcDb2dVertex
 10
613.987061
 20
353.951019
 30
0.0
  0
VERTEX
  5
FB
100
AcDbEntity
  8
0
100
AcDbVertex
100
AcDb2dVertex
 10
613.79541
 20
353.976227
 30
0.0
  0
VERTEX
  5
FC
100
AcDbEntity
  8
0
100
AcDbVertex
100
AcDb2dVertex
 10
613.659241
 20
354.056915
 30
0.0
  0
VERTEX
  5
FD
100
AcDbEntity
  8
0
100
AcDbVertex
100
AcDb2dVertex
 10
613.573486
 20
354.19812
 30
0.0
  0
VERTEX
  5
FE
100
AcDbEntity
  8
0
100
AcDbVertex
100
AcDb2dVertex
 10
613.548279
 20
354.394806
 30
0.0
  0
VERTEX
  5
FF
100
AcDbEntity
  8
0
100
AcDbVertex
100
AcDb2dVertex
 10
613.56842
 20
354.57132
 30
0.0
  0
VERTEX
  5
100
100
AcDbEntity
  8
0
100
AcDbVertex
100
AcDb2dVertex
 10
613.649109
 20
354.697418
 30
0.0
  0
VERTEX
  5
101
100
AcDbEntity
  8
0
100
AcDbVertex
100
AcDb2dVertex
 10
613.971924
 20
354.838623
 30
0.0
  0
VERTEX
  5
102
100
AcDbEntity
  8
0
100
AcDbVertex
100
AcDb2dVertex
 10
614.380432
 20
354.899139
 30
0.0
  0
VERTEX
  5
103
100
AcDbEntity
  8
0
100
AcDbVertex
100
AcDb2dVertex
 10
614.748535
 20
355.020172
 30
0.0
  0
SEQEND
  5
104
100
AcDbEntity
  8
0
  0
POLYLINE
  5
105
100
AcDbEntity
  8
0
 62
     7
100
AcDb2dPolyline
 66
     1
 10
0.0
 20
0.0
 30
0.0
 70
     1
 71
    24
  0
VERTEX
  5
106
100
AcDbEntity
  8
0
100
AcDbVertex
100
AcDb2dVertex
 10
616.226196
 20
353.643372
 30
0.0
  0
VERTEX
  5
107
100
AcDbEntity
  8
0
100
AcDbVertex
100
AcDb2dVertex
 10
616.670044
 20
353.643372
 30
0.0
  0
VERTEX
  5
108
100
AcDbEntity
  8
0
100
AcDbVertex
100
AcDb2dVertex
 10
616.670044
 20
355.206787
 30
0.0
  0
VERTEX
  5
109
100
AcDbEntity
  8
0
100
AcDbVertex
100
AcDb2dVertex
 10
616.715393
 20
355.56485
 30
0.0
  0
VERTEX
  5
10A
100
AcDbEntity
  8
0
100
AcDbVertex
100
AcDb2dVertex
 10
616.861694
 20
355.827087
 30
0.0
  0
VERTEX
  5
10B
100
AcDbEntity
  8
0
100
AcDbVertex
100
AcDb2dVertex
 10
617.088623
 20
355.988464
 30
0.0
  0
VERTEX
  5
10C
100
AcDbEntity
  8
0
100
AcDbVertex
100
AcDb2dVertex
 10
617.391235
 20
356.048981
 30
0.0
  0
VERTEX
  5
10D
100
AcDbEntity
  8
0
100
AcDbVertex
100
AcDb2dVertex
 10
617.633301
 20
355.998566
 30
0.0
  0
VERTEX
  5
10E
100
AcDbEntity
  8
0
100
AcDbVertex
100
AcDb2dVertex
 10
617.784607
 20
355.862396
 30
0.0
  0
VERTEX
  5
10F
100
AcDbEntity
  8
0
100
AcDbVertex
100
AcDb2dVertex
 10
617.860229
 20
355.635437
 30
0.0
  0
VERTEX
  5
110
100
AcDbEntity
  8
0
100
AcDbVertex
100
AcDb2dVertex
 10
617.885437
 20
355.332855
 30
0.0
  0
VERTEX
  5
111
100
AcDbEntity
  8
0
100
AcDbVertex
100
AcDb2dVertex
 10
617.885437
 20
353.643372
 30
0.0
  0
VERTEX
  5
112
100
AcDbEntity
  8
0
100
AcDbVertex
100
AcDb2dVertex
 10
618.329224
 20
353.643372
 30
0.0
  0
VERTEX
  5
113
100
AcDbEntity
  8
0
100
AcDbVertex
100
AcDb2dVertex
 10
618.329224
 20
355.423645
 30
0.0
  0
VERTEX
  5
114
100
AcDbEntity
  8
0
100
AcDbVertex
100
AcDb2dVertex
 10
618.309082
 20
355.781708
 30
0.0
  0
VERTEX
  5
115
100
AcDbEntity
  8
0
100
AcDbVertex
100
AcDb2dVertex
 10
618.218323
 20
356.079254
 30
0.0
  0
VERTEX
  5
116
100
AcDbEntity
  8
0
100
AcDbVertex
100
AcDb2dVertex
 10
617.920776
 20
356.351593
 30
0.0
  0
VERTEX
  5
117
100
AcDbEntity
  8
0
100
AcDbVertex
100
AcDb2dVertex
 10
617.456787
 20
356.447418
 30
0.0
  0
VERTEX
  5
118
100
AcDbEntity
  8
0
100
AcDbVertex
100
AcDb2dVertex
 10
617.199585
 20
356.412109
 30
0.0
  0
VERTEX
  5
119
100
AcDbEntity
  8
0
100
AcDbVertex
100
AcDb2dVertex
 10
616.982727
 20
356.316284
 30
0.0
  0
VERTEX
  5
11A
100
AcDbEntity
  8
0
100
AcDbVertex
100
AcDb2dVertex
 10
616.796082
 20
356.154907
 30
0.0
  0
VERTEX
  5
11B
100
AcDbEntity
  8
0
100
AcDbVertex
100
AcDb2dVertex
 10
616.649841
 20
355.938049
 30
0.0
  0
VERTEX
  5
11C
100
AcDbEntity
  8
0
100
AcDbVertex
100
AcDb2dVertex
 10
616.649841
 20
356.351593
 30
0.0
  0
VERTEX
  5
11D
100
AcDbEntity
  8
0
100
AcDbVertex
100
AcDb2dVertex
 10
616.226196
 20
356.351593
 30
0.0
  0
SEQEND
  5
11E
100
AcDbEntity
  8
0
  0
POLYLINE
  5
11F
100
AcDbEntity
  8
0
 62
     7
100
AcDb2dPolyline
 66
     1
 10
0.0
 20
0.0
 30
0.0
 70
     1
 71
    50
  0
VERTEX
  5
120
100
AcDbEntity
  8
0
100
AcDbVertex
100
AcDb2dVertex
 10
620.588623
 20
355.221893
 30
0.0
  0
VERTEX
  5
121
100
AcDbEntity
  8
0
100
AcDbVertex
100
AcDb2dVertex
 10
620.159912
 20
355.322754
 30
0.0
  0
VERTEX
  5
122
100
AcDbEntity
  8
0
100
AcDbVertex
100
AcDb2dVertex
 10
619.842224
 20
355.438751
 30
0.0
  0
VERTEX
  5
123
100
AcDbEntity
  8
0
100
AcDbVertex
100
AcDb2dVertex
 10
619.736328
 20
355.675781
 30
0.0
  0
VERTEX
  5
124
100
AcDbEntity
  8
0
100
AcDbVertex
100
AcDb2dVertex
 10
619.766602
 20
355.842224
 30
0.0
  0
VERTEX
  5
125
100
AcDbEntity
  8
0
100
AcDbVertex
100
AcDb2dVertex
 10
619.872498
 20
355.963257
 30
0.0
  0
VERTEX
  5
126
100
AcDbEntity
  8
0
100
AcDbVertex
100
AcDb2dVertex
 10
620.043945
 20
356.03891
 30
0.0
  0
VERTEX
  5
127
100
AcDbEntity
  8
0
100
AcDbVertex
100
AcDb2dVertex
 10
620.291077
 20
356.069153
 30
0.0
  0
VERTEX
  5
128
100
AcDbEntity
  8
0
100
AcDbVertex
100
AcDb2dVertex
 10
620.528076
 20
356.03891
 30
0.0
  0
VERTEX
  5
129
100
AcDbEntity
  8
0
100
AcDbVertex
100
AcDb2dVertex
 10
620.714722
 20
355.94812
 30
0.0
  0
VERTEX
  5
12A
100
AcDbEntity
  8
0
100
AcDbVertex
100
AcDb2dVertex
 10
620.835754
 20
355.811951
 30
0.0
  0
VERTEX
  5
12B
100
AcDbEntity
  8
0
100
AcDbVertex
100
AcDb2dVertex
 10
620.886169
 20
355.630402
 30
0.0
  0
VERTEX
  5
12C
100
AcDbEntity
  8
0
100
AcDbVertex
100
AcDb2dVertex
 10
621.319885
 20
355.630402
 30
0.0
  0
VERTEX
  5
12D
100
AcDbEntity
  8
0
100
AcDbVertex
100
AcDb2dVertex
 10
621.319885
 20
355.640503
 30
0.0
  0
VERTEX
  5
12E
100
AcDbEntity
  8
0
100
AcDbVertex
100
AcDb2dVertex
 10
621.244263
 20
355.968292
 30
0.0
  0
VERTEX
  5
12F
100
AcDbEntity
  8
0
100
AcDbVertex
100
AcDb2dVertex
 10
621.037476
 20
356.225494
 30
0.0
  0
VERTEX
  5
130
100
AcDbEntity
  8
0
100
AcDbVertex
100
AcDb2dVertex
 10
620.714722
 20
356.386902
 30
0.0
  0
VERTEX
  5
131
100
AcDbEntity
  8
0
100
AcDbVertex
100
AcDb2dVertex
 10
620.291077
 20
356.447418
 30
0.0
  0
VERTEX
  5
132
100
AcDbEntity
  8
0
100
AcDbVertex
100
AcDb2dVertex
 10
619.862366
 20
356.386902
 30
0.0
  0
VERTEX
  5
133
100
AcDbEntity
  8
0
100
AcDbVertex
100
AcDb2dVertex
 10
619.549683
 20
356.220459
 30
0.0
  0
VERTEX
  5
134
100
AcDbEntity
  8
0
100
AcDbVertex
100
AcDb2dVertex
 10
619.353027
 20
355.973328
 30
0.0
  0
VERTEX
  5
135
100
AcDbEntity
  8
0
100
AcDbVertex
100
AcDb2dVertex
 10
619.29248
 20
355.660675
 30
0.0
  0
VERTEX
  5
136
100
AcDbEntity
  8
0
100
AcDbVertex
100
AcDb2dVertex
 10
619.337891
 20
355.358063
 30
0.0
  0
VERTEX
  5
137
100
AcDbEntity
  8
0
100
AcDbVertex
100
AcDb2dVertex
 10
619.479126
 20
355.14624
 30
0.0
  0
VERTEX
  5
138
100
AcDbEntity
  8
0
100
AcDbVertex
100
AcDb2dVertex
 10
619.711121
 20
354.994965
 30
0.0
  0
VERTEX
  5
139
100
AcDbEntity
  8
0
100
AcDbVertex
100
AcDb2dVertex
 10
620.049011
 20
354.889038
 30
0.0
  0
VERTEX
  5
13A
100
AcDbEntity
  8
0
100
AcDbVertex
100
AcDb2dVertex
 10
620.543213
 20
354.768005
 30
0.0
  0
VERTEX
  5
13B
100
AcDbEntity
  8
0
100
AcDbVertex
100
AcDb2dVertex
 10
620.845825
 20
354.641937
 30
0.0
  0
VERTEX
  5
13C
100
AcDbEntity
  8
0
100
AcDbVertex
100
AcDb2dVertex
 10
620.926514
 20
354.541077
 30
0.0
  0
VERTEX
  5
13D
100
AcDbEntity
  8
0
100
AcDbVertex
100
AcDb2dVertex
 10
620.956787
 20
354.389771
 30
0.0
  0
VERTEX
  5
13E
100
AcDbEntity
  8
0
100
AcDbVertex
100
AcDb2dVertex
 10
620.911377
 20
354.203156
 30
0.0
  0
VERTEX
  5
13F
100
AcDbEntity
  8
0
100
AcDbVertex
100
AcDb2dVertex
 10
620.790344
 20
354.061951
 30
0.0
  0
VERTEX
  5
140
100
AcDbEntity
  8
0
100
AcDbVertex
100
AcDb2dVertex
 10
620.593689
 20
353.971191
 30
0.0
  0
VERTEX
  5
141
100
AcDbEntity
  8
0
100
AcDbVertex
100
AcDb2dVertex
 10
620.331421
 20
353.940918
 30
0.0
  0
VERTEX
  5
142
100
AcDbEntity
  8
0
100
AcDbVertex
100
AcDb2dVertex
 10
620.054016
 20
353.971191
 30
0.0
  0
VERTEX
  5
143
100
AcDbEntity
  8
0
100
AcDbVertex
100
AcDb2dVertex
 10
619.852295
 20
354.077087
 30
0.0
  0
VERTEX
  5
144
100
AcDbEntity
  8
0
100
AcDbVertex
100
AcDb2dVertex
 10
619.716125
 20
354.248566
 30
0.0
  0
VERTEX
  5
145
100
AcDbEntity
  8
0
100
AcDbVertex
100
AcDb2dVertex
 10
619.660645
 20
354.485596
 30
0.0
  0
VERTEX
  5
146
100
AcDbEntity
  8
0
100
AcDbVertex
100
AcDb2dVertex
 10
619.231995
 20
354.485596
 30
0.0
  0
VERTEX
  5
147
100
AcDbEntity
  8
0
100
AcDbVertex
100
AcDb2dVertex
 10
619.302612
 20
354.082123
 30
0.0
  0
VERTEX
  5
148
100
AcDbEntity
  8
0
100
AcDbVertex
100
AcDb2dVertex
 10
619.509338
 20
353.789612
 30
0.0
  0
VERTEX
  5
149
100
AcDbEntity
  8
0
100
AcDbVertex
100
AcDb2dVertex
 10
619.837158
 20
353.613098
 30
0.0
  0
VERTEX
  5
14A
100
AcDbEntity
  8
0
100
AcDbVertex
100
AcDb2dVertex
 10
620.291077
 20
353.547546
 30
0.0
  0
VERTEX
  5
14B
100
AcDbEntity
  8
0
100
AcDbVertex
100
AcDb2dVertex
 10
620.765137
 20
353.613098
 30
0.0
  0
VERTEX
  5
14C
100
AcDbEntity
  8
0
100
AcDbVertex
100
AcDb2dVertex
 10
621.113098
 20
353.789612
 30
0.0
  0
VERTEX
  5
14D
100
AcDbEntity
  8
0
100
AcDbVertex
100
AcDb2dVertex
 10
621.324951
 20
354.072052
 30
0.0
  0
VERTEX
  5
14E
100
AcDbEntity
  8
0
100
AcDbVertex
100
AcDb2dVertex
 10
621.400574
 20
354.440216
 30
0.0
  0
VERTEX
  5
14F
100
AcDbEntity
  8
0
100
AcDbVertex
100
AcDb2dVertex
 10
621.345093
 20
354.757935
 30
0.0
  0
VERTEX
  5
150
100
AcDbEntity
  8
0
100
AcDbVertex
100
AcDb2dVertex
 10
621.188782
 20
354.974792
 30
0.0
  0
VERTEX
  5
151
100
AcDbEntity
  8
0
100
AcDbVertex
100
AcDb2dVertex
 10
620.93158
 20
355.115997
 30
0.0
  0
SEQEND
  5
152
100
AcDbEntity
  8
0
  0
POLYLINE
  5
153
100
AcDbEntity
  8
0
 62
     7
100
AcDb2dPolyline
 66
     1
 10
0.0
 20
0.0
 30
0.0
 70
     1
 71
    10
  0
VERTEX
  5
154
100
AcDbEntity
  8
0
100
AcDbVertex
100
AcDb2dVertex
 10
623.654907
 20
354.016571
 30
0.0
  0
VERTEX
  5
155
100
AcDbEntity
  8
0
100
AcDbVertex
100
AcDb2dVertex
 10
623.654907
 20
356.260803
 30
0.0
  0
VERTEX
  5
156
100
AcDbEntity
  8
0
100
AcDbVertex
100
AcDb2dVertex
 10
622.515137
 20
356.260803
 30
0.0
  0
VERTEX
  5
157
100
AcDbEntity
  8
0
100
AcDbVertex
100
AcDb2dVertex
 10
622.515137
 20
355.882568
 30
0.0
  0
VERTEX
  5
158
100
AcDbEntity
  8
0
100
AcDbVertex
100
AcDb2dVertex
 10
623.211121
 20
355.882568
 30
0.0
  0
VERTEX
  5
159
100
AcDbEntity
  8
0
100
AcDbVertex
100
AcDb2dVertex
 10
623.211121
 20
354.016571
 30
0.0
  0
VERTEX
  5
15A
100
AcDbEntity
  8
0
100
AcDbVertex
100
AcDb2dVertex
 10
622.303345
 20
354.016571
 30
0.0
  0
VERTEX
  5
15B
100
AcDbEntity
  8
0
100
AcDbVertex
100
AcDb2dVertex
 10
622.303345
 20
353.643372
 30
0.0
  0
VERTEX
  5
15C
100
AcDbEntity
  8
0
100
AcDbVertex
100
AcDb2dVertex
 10
624.572754
 20
353.643372
 30
0.0
  0
VERTEX
  5
15D
100
AcDbEntity
  8
0
100
AcDbVertex
100
AcDb2dVertex
 10
624.572754
 20
354.016571
 30
0.0
  0
SEQEND
  5
15E
100
AcDbEntity
  8
0
  0
POLYLINE
  5
15F
100
AcDbEntity
  8
0
 62
     7
100
AcDb2dPolyline
 66
     1
 10
0.0
 20
0.0
 30
0.0
 70
     1
 71
     4
  0
VERTEX
  5
160
100
AcDbEntity
  8
0
100
AcDbVertex
100
AcDb2dVertex
 10
623.670044
 20
357.264404
 30
0.0
  0
VERTEX
  5
161
100
AcDbEntity
  8
0
100
AcDbVertex
100
AcDb2dVertex
 10
623.200989
 20
357.264404
 30
0.0
  0
VERTEX
  5
162
100
AcDbEntity
  8
0
100
AcDbVertex
100
AcDb2dVertex
 10
623.200989
 20
356.760101
 30
0.0
  0
VERTEX
  5
163
100
AcDbEntity
  8
0
100
AcDbVertex
100
AcDb2dVertex
 10
623.670044
 20
356.760101
 30
0.0
  0
SEQEND
  5
164
100
AcDbEntity
  8
0
  0
POLYLINE
  5
165
100
AcDbEntity
  8
0
 62
     7
100
AcDb2dPolyline
 66
     1
 10
0.0
 20
0.0
 30
0.0
 70
     1
 71
    34
  0
VERTEX
  5
166
100
AcDbEntity
  8
0
100
AcDbVertex
100
AcDb2dVertex
 10
627.059082
 20
355.453888
 30
0.0
  0
VERTEX
  5
167
100
AcDbEntity
  8
0
100
AcDbVertex
100
AcDb2dVertex
 10
627.497864
 20
355.453888
 30
0.0
  0
VERTEX
  5
168
100
AcDbEntity
  8
0
100
AcDbVertex
100
AcDb2dVertex
 10
627.407043
 20
355.857361
 30
0.0
  0
VERTEX
  5
169
100
AcDbEntity
  8
0
100
AcDbVertex
100
AcDb2dVertex
 10
627.190186
 20
356.175079
 30
0.0
  0
VERTEX
  5
16A
100
AcDbEntity
  8
0
100
AcDbVertex
100
AcDb2dVertex
 10
626.852295
 20
356.371765
 30
0.0
  0
VERTEX
  5
16B
100
AcDbEntity
  8
0
100
AcDbVertex
100
AcDb2dVertex
 10
626.413574
 20
356.447418
 30
0.0
  0
VERTEX
  5
16C
100
AcDbEntity
  8
0
100
AcDbVertex
100
AcDb2dVertex
 10
625.929382
 20
356.346527
 30
0.0
  0
VERTEX
  5
16D
100
AcDbEntity
  8
0
100
AcDbVertex
100
AcDb2dVertex
 10
625.561218
 20
356.064117
 30
0.0
  0
VERTEX
  5
16E
100
AcDbEntity
  8
0
100
AcDbVertex
100
AcDb2dVertex
 10
625.329224
 20
355.605194
 30
0.0
  0
VERTEX
  5
16F
100
AcDbEntity
  8
0
100
AcDbVertex
100
AcDb2dVertex
 10
625.248535
 20
354.989899
 30
0.0
  0
VERTEX
  5
170
100
AcDbEntity
  8
0
100
AcDbVertex
100
AcDb2dVertex
 10
625.324219
 20
354.379669
 30
0.0
  0
VERTEX
  5
171
100
AcDbEntity
  8
0
100
AcDbVertex
100
AcDb2dVertex
 10
625.551147
 20
353.925781
 30
0.0
  0
VERTEX
  5
172
100
AcDbEntity
  8
0
100
AcDbVertex
100
AcDb2dVertex
 10
625.909241
 20
353.643372
 30
0.0
  0
VERTEX
  5
173
100
AcDbEntity
  8
0
100
AcDbVertex
100
AcDb2dVertex
 10
626.398438
 20
353.547546
 30
0.0
  0
VERTEX
  5
174
100
AcDbEntity
  8
0
100
AcDbVertex
100
AcDb2dVertex
 10
626.832153
 20
353.623199
 30
0.0
  0
VERTEX
  5
175
100
AcDbEntity
  8
0
100
AcDbVertex
100
AcDb2dVertex
 10
627.170044
 20
353.835022
 30
0.0
  0
VERTEX
  5
176
100
AcDbEntity
  8
0
100
AcDbVertex
100
AcDb2dVertex
 10
627.402039
 20
354.167877
 30
0.0
  0
VERTEX
  5
177
100
AcDbEntity
  8
0
100
AcDbVertex
100
AcDb2dVertex
 10
627.502869
 20
354.611664
 30
0.0
  0
VERTEX
  5
178
100
AcDbEntity
  8
0
100
AcDbVertex
100
AcDb2dVertex
 10
627.079224
 20
354.611664
 30
0.0
  0
VERTEX
  5
179
100
AcDbEntity
  8
0
100
AcDbVertex
100
AcDb2dVertex
 10
627.003601
 20
354.329254
 30
0.0
  0
VERTEX
  5
17A
100
AcDbEntity
  8
0
100
AcDbVertex
100
AcDb2dVertex
 10
626.862366
 20
354.117432
 30
0.0
  0
VERTEX
  5
17B
100
AcDbEntity
  8
0
100
AcDbVertex
100
AcDb2dVertex
 10
626.660645
 20
353.986298
 30
0.0
  0
VERTEX
  5
17C
100
AcDbEntity
  8
0
100
AcDbVertex
100
AcDb2dVertex
 10
626.413574
 20
353.945953
 30
0.0
  0
VERTEX
  5
17D
100
AcDbEntity
  8
0
100
AcDbVertex
100
AcDb2dVertex
 10
626.105896
 20
354.011536
 30
0.0
  0
VERTEX
  5
17E
100
AcDbEntity
  8
0
100
AcDbVertex
100
AcDb2dVertex
 10
625.884033
 20
354.213257
 30
0.0
  0
VERTEX
  5
17F
100
AcDbEntity
  8
0
100
AcDbVertex
100
AcDb2dVertex
 10
625.747864
 20
354.541077
 30
0.0
  0
VERTEX
  5
180
100
AcDbEntity
  8
0
100
AcDbVertex
100
AcDb2dVertex
 10
625.702454
 20
355.005035
 30
0.0
  0
VERTEX
  5
181
100
AcDbEntity
  8
0
100
AcDbVertex
100
AcDb2dVertex
 10
625.747864
 20
355.458923
 30
0.0
  0
VERTEX
  5
182
100
AcDbEntity
  8
0
100
AcDbVertex
100
AcDb2dVertex
 10
625.889038
 20
355.786743
 30
0.0
  0
VERTEX
  5
183
100
AcDbEntity
  8
0
100
AcDbVertex
100
AcDb2dVertex
 10
626.115967
 20
355.988464
 30
0.0
  0
VERTEX
  5
184
100
AcDbEntity
  8
0
100
AcDbVertex
100
AcDb2dVertex
 10
626.413574
 20
356.059082
 30
0.0
  0
VERTEX
  5
185
100
AcDbEntity
  8
0
100
AcDbVertex
100
AcDb2dVertex
 10
626.675781
 20
356.013702
 30
0.0
  0
VERTEX
  5
186
100
AcDbEntity
  8
0
100
AcDbVertex
100
AcDb2dVertex
 10
626.872498
 20
355.897705
 30
0.0
  0
VERTEX
  5
187
100
AcDbEntity
  8
0
100
AcDbVertex
100
AcDb2dVertex
 10
627.003601
 20
355.706055
 30
0.0
  0
SEQEND
  5
188
100
AcDbEntity
  8
0
  0
POLYLINE
  5
189
100
AcDbEntity
  8
0
 62
     7
100
AcDb2dPolyline
 66
     1
 10
0.0
 20
0.0
 30
0.0
 70
     1
 71
    24
  0
VERTEX
  5
18A
100
AcDbEntity
  8
0
100
AcDbVertex
100
AcDb2dVertex
 10
628.3703
 20
353.643372
 30
0.0
  0
VERTEX
  5
18B
100
AcDbEntity
  8
0
100
AcDbVertex
100
AcDb2dVertex
 10
628.814087
 20
353.643372
 30
0.0
  0
VERTEX
  5
18C
100
AcDbEntity
  8
0
100
AcDbVertex
100
AcDb2dVertex
 10
628.814087
 20
355.206787
 30
0.0
  0
VERTEX
  5
18D
100
AcDbEntity
  8
0
100
AcDbVertex
100
AcDb2dVertex
 10
628.859497
 20
355.56485
 30
0.0
  0
VERTEX
  5
18E
100
AcDbEntity
  8
0
100
AcDbVertex
100
AcDb2dVertex
 10
629.005737
 20
355.827087
 30
0.0
  0
VERTEX
  5
18F
100
AcDbEntity
  8
0
100
AcDbVertex
100
AcDb2dVertex
 10
629.232727
 20
355.988464
 30
0.0
  0
VERTEX
  5
190
100
AcDbEntity
  8
0
100
AcDbVertex
100
AcDb2dVertex
 10
629.535278
 20
356.048981
 30
0.0
  0
VERTEX
  5
191
100
AcDbEntity
  8
0
100
AcDbVertex
100
AcDb2dVertex
 10
629.777344
 20
355.998566
 30
0.0
  0
VERTEX
  5
192
100
AcDbEntity
  8
0
100
AcDbVertex
100
AcDb2dVertex
 10
629.92865
 20
355.862396
 30
0.0
  0
VERTEX
  5
193
100
AcDbEntity
  8
0
100
AcDbVertex
100
AcDb2dVertex
 10
630.004333
 20
355.635437
 30
0.0
  0
VERTEX
  5
194
100
AcDbEntity
  8
0
100
AcDbVertex
100
AcDb2dVertex
 10
630.029541
 20
355.332855
 30
0.0
  0
VERTEX
  5
195
100
AcDbEntity
  8
0
100
AcDbVertex
100
AcDb2dVertex
 10
630.029541
 20
353.643372
 30
0.0
  0
VERTEX
  5
196
100
AcDbEntity
  8
0
100
AcDbVertex
100
AcDb2dVertex
 10
630.473328
 20
353.643372
 30
0.0
  0
VERTEX
  5
197
100
AcDbEntity
  8
0
100
AcDbVertex
100
AcDb2dVertex
 10
630.473328
 20
355.423645
 30
0.0
  0
VERTEX
  5
198
100
AcDbEntity
  8
0
100
AcDbVertex
100
AcDb2dVertex
 10
630.453186
 20
355.781708
 30
0.0
  0
VERTEX
  5
199
100
AcDbEntity
  8
0
100
AcDbVertex
100
AcDb2dVertex
 10
630.362366
 20
356.079254
 30
0.0
  0
VERTEX
  5
19A
100
AcDbEntity
  8
0
100
AcDbVertex
100
AcDb2dVertex
 10
630.064819
 20
356.351593
 30
0.0
  0
VERTEX
  5
19B
100
AcDbEntity
  8
0
100
AcDbVertex
100
AcDb2dVertex
 10
629.600891
 20
356.447418
 30
0.0
  0
VERTEX
  5
19C
100
AcDbEntity
  8
0
100
AcDbVertex
100
AcDb2dVertex
 10
629.348694
 20
356.412109
 30
0.0
  0
VERTEX
  5
19D
100
AcDbEntity
  8
0
100
AcDbVertex
100
AcDb2dVertex
 10
629.131836
 20
356.316284
 30
0.0
  0
VERTEX
  5
19E
100
AcDbEntity
  8
0
100
AcDbVertex
100
AcDb2dVertex
 10
628.950317
 20
356.164978
 30
0.0
  0
VERTEX
  5
19F
100
AcDbEntity
  8
0
100
AcDbVertex
100
AcDb2dVertex
 10
628.814087
 20
355.958221
 30
0.0
  0
VERTEX
  5
1A0
100
AcDbEntity
  8
0
100
AcDbVertex
100
AcDb2dVertex
 10
628.814087
 20
357.264404
 30
0.0
  0
VERTEX
  5
1A1
100
AcDbEntity
  8
0
100
AcDbVertex
100
AcDb2dVertex
 10
628.3703
 20
357.264404
 30
0.0
  0
SEQEND
  5
1A2
100
AcDbEntity
  8
0
  0
POLYLINE
  5
1A3
100
AcDbEntity
  8
0
 62
     7
100
AcDb2dPolyline
 66
     1
 10
0.0
 20
0.0
 30
0.0
 70
     1
 71
    22
  0
VERTEX
  5
1A4
100
AcDbEntity
  8
0
100
AcDbVertex
100
AcDb2dVertex
 10
632.001465
 20
355.882568
 30
0.0
  0
VERTEX
  5
1A5
100
AcDbEntity
  8
0
100
AcDbVertex
100
AcDb2dVertex
 10
632.001465
 20
354.52594
 30
0.0
  0
VERTEX
  5
1A6
100
AcDbEntity
  8
0
100
AcDbVertex
100
AcDb2dVertex
 10
632.031677
 20
354.087189
 30
0.0
  0
VERTEX
  5
1A7
100
AcDbEntity
  8
0
100
AcDbVertex
100
AcDb2dVertex
 10
632.172913
 20
353.784576
 30
0.0
  0
VERTEX
  5
1A8
100
AcDbEntity
  8
0
100
AcDbVertex
100
AcDb2dVertex
 10
632.455322
 20
353.608063
 30
0.0
  0
VERTEX
  5
1A9
100
AcDbEntity
  8
0
100
AcDbVertex
100
AcDb2dVertex
 10
632.934448
 20
353.547546
 30
0.0
  0
VERTEX
  5
1AA
100
AcDbEntity
  8
0
100
AcDbVertex
100
AcDb2dVertex
 10
633.458923
 20
353.572754
 30
0.0
  0
VERTEX
  5
1AB
100
AcDbEntity
  8
0
100
AcDbVertex
100
AcDb2dVertex
 10
633.458923
 20
353.956055
 30
0.0
  0
VERTEX
  5
1AC
100
AcDbEntity
  8
0
100
AcDbVertex
100
AcDb2dVertex
 10
633.075623
 20
353.925781
 30
0.0
  0
VERTEX
  5
1AD
100
AcDbEntity
  8
0
100
AcDbVertex
100
AcDb2dVertex
 10
632.727661
 20
353.966125
 30
0.0
  0
VERTEX
  5
1AE
100
AcDbEntity
  8
0
100
AcDbVertex
100
AcDb2dVertex
 10
632.541077
 20
354.092224
 30
0.0
  0
VERTEX
  5
1AF
100
AcDbEntity
  8
0
100
AcDbVertex
100
AcDb2dVertex
 10
632.460388
 20
354.304047
 30
0.0
  0
VERTEX
  5
1B0
100
AcDbEntity
  8
0
100
AcDbVertex
100
AcDb2dVertex
 10
632.445251
 20
354.601593
 30
0.0
  0
VERTEX
  5
1B1
100
AcDbEntity
  8
0
100
AcDbVertex
100
AcDb2dVertex
 10
632.445251
 20
355.882568
 30
0.0
  0
VERTEX
  5
1B2
100
AcDbEntity
  8
0
100
AcDbVertex
100
AcDb2dVertex
 10
633.458923
 20
355.882568
 30
0.0
  0
VERTEX
  5
1B3
100
AcDbEntity
  8
0
100
AcDbVertex
100
AcDb2dVertex
 10
633.458923
 20
356.260803
 30
0.0
  0
VERTEX
  5
1B4
100
AcDbEntity
  8
0
100
AcDbVertex
100
AcDb2dVertex
 10
632.445251
 20
356.260803
 30
0.0
  0
VERTEX
  5
1B5
100
AcDbEntity
  8
0
100
AcDbVertex
100
AcDb2dVertex
 10
632.445251
 20
357.052582
 30
0.0
  0
VERTEX
  5
1B6
100
AcDbEntity
  8
0
100
AcDbVertex
100
AcDb2dVertex
 10
632.001465
 20
357.052582
 30
0.0
  0
VERTEX
  5
1B7
100
AcDbEntity
  8
0
100
AcDbVertex
100
AcDb2dVertex
 10
632.001465
 20
356.260803
 30
0.0
  0
VERTEX
  5
1B8
100
AcDbEntity
  8
0
100
AcDbVertex
100
AcDb2dVertex
 10
631.234863
 20
356.260803
 30
0.0
  0
VERTEX
  5
1B9
100
AcDbEntity
  8
0
100
AcDbVertex
100
AcDb2dVertex
 10
631.234863
 20
355.882568
 30
0.0
  0
SEQEND
  5
1BA
100
AcDbEntity
  8
0
  0
POLYLINE
  5
1BB
100
AcDbEntity
  8
0
 62
     7
100
AcDb2dPolyline
 66
     1
 10
0.0
 20
0.0
 30
0.0
 70
     1
 71
    13
  0
VERTEX
  5
1BC
100
AcDbEntity
  8
0
100
AcDbVertex
100
AcDb2dVertex
 10
594.757202
 20
347.596527
 30
0.0
  0
VERTEX
  5
1BD
100
AcDbEntity
  8
0
100
AcDbVertex
100
AcDb2dVertex
 10
595.145508
 20
347.596527
 30
0.0
  0
VERTEX
  5
1BE
100
AcDbEntity
  8
0
100
AcDbVertex
100
AcDb2dVertex
 10
595.145508
 20
350.773773
 30
0.0
  0
VERTEX
  5
1BF
100
AcDbEntity
  8
0
100
AcDbVertex
100
AcDb2dVertex
 10
595.801147
 20
347.596527
 30
0.0
  0
VERTEX
  5
1C0
100
AcDbEntity
  8
0
100
AcDbVertex
100
AcDb2dVertex
 10
596.234863
 20
347.596527
 30
0.0
  0
VERTEX
  5
1C1
100
AcDbEntity
  8
0
100
AcDbVertex
100
AcDb2dVertex
 10
596.885437
 20
350.773773
 30
0.0
  0
VERTEX
  5
1C2
100
AcDbEntity
  8
0
100
AcDbVertex
100
AcDb2dVertex
 10
596.885437
 20
347.596527
 30
0.0
  0
VERTEX
  5
1C3
100
AcDbEntity
  8
0
100
AcDbVertex
100
AcDb2dVertex
 10
597.278809
 20
347.596527
 30
0.0
  0
VERTEX
  5
1C4
100
AcDbEntity
  8
0
100
AcDbVertex
100
AcDb2dVertex
 10
597.278809
 20
351.096527
 30
0.0
  0
VERTEX
  5
1C5
100
AcDbEntity
  8
0
100
AcDbVertex
100
AcDb2dVertex
 10
596.663574
 20
351.096527
 30
0.0
  0
VERTEX
  5
1C6
100
AcDbEntity
  8
0
100
AcDbVertex
100
AcDb2dVertex
 10
596.018005
 20
348.010071
 30
0.0
  0
VERTEX
  5
1C7
100
AcDbEntity
  8
0
100
AcDbVertex
100
AcDb2dVertex
 10
595.377502
 20
351.096527
 30
0.0
  0
VERTEX
  5
1C8
100
AcDbEntity
  8
0
100
AcDbVertex
100
AcDb2dVertex
 10
594.757202
 20
351.096527
 30
0.0
  0
SEQEND
  5
1C9
100
AcDbEntity
  8
0
  0
POLYLINE
  5
1CA
100
AcDbEntity
  8
0
 62
     7
100
AcDb2dPolyline
 66
     1
 10
0.0
 20
0.0
 30
0.0
 70
     1
 71
    42
  0
VERTEX
  5
1CB
100
AcDbEntity
  8
0
100
AcDbVertex
100
AcDb2dVertex
 10
599.618896
 20
347.949554
 30
0.0
  0
VERTEX
  5
1CC
100
AcDbEntity
  8
0
100
AcDbVertex
100
AcDb2dVertex
 10
599.618896
 20
347.934418
 30
0.0
  0
VERTEX
  5
1CD
100
AcDbEntity
  8
0
100
AcDbVertex
100
AcDb2dVertex
 10
599.644104
 20
347.762939
 30
0.0
  0
VERTEX
  5
1CE
100
AcDbEntity
  8
0
100
AcDbVertex
100
AcDb2dVertex
 10
599.719727
 20
347.641907
 30
0.0
  0
VERTEX
  5
1CF
100
AcDbEntity
  8
0
100
AcDbVertex
100
AcDb2dVertex
 10
600.037476
 20
347.546082
 30
0.0
  0
VERTEX
  5
1D0
100
AcDbEntity
  8
0
100
AcDbVertex
100
AcDb2dVertex
 10
600.284607
 20
347.586426
 30
0.0
  0
VERTEX
  5
1D1
100
AcDbEntity
  8
0
100
AcDbVertex
100
AcDb2dVertex
 10
600.284607
 20
347.929382
 30
0.0
  0
VERTEX
  5
1D2
100
AcDbEntity
  8
0
100
AcDbVertex
100
AcDb2dVertex
 10
600.17865
 20
347.914246
 30
0.0
  0
VERTEX
  5
1D3
100
AcDbEntity
  8
0
100
AcDbVertex
100
AcDb2dVertex
 10
600.037476
 20
347.979797
 30
0.0
  0
VERTEX
  5
1D4
100
AcDbEntity
  8
0
100
AcDbVertex
100
AcDb2dVertex
 10
600.012268
 20
348.181549
 30
0.0
  0
VERTEX
  5
1D5
100
AcDbEntity
  8
0
100
AcDbVertex
100
AcDb2dVertex
 10
600.012268
 20
349.583557
 30
0.0
  0
VERTEX
  5
1D6
100
AcDbEntity
  8
0
100
AcDbVertex
100
AcDb2dVertex
 10
599.951721
 20
349.94162
 30
0.0
  0
VERTEX
  5
1D7
100
AcDbEntity
  8
0
100
AcDbVertex
100
AcDb2dVertex
 10
599.775208
 20
350.193787
 30
0.0
  0
VERTEX
  5
1D8
100
AcDbEntity
  8
0
100
AcDbVertex
100
AcDb2dVertex
 10
599.46759
 20
350.345093
 30
0.0
  0
VERTEX
  5
1D9
100
AcDbEntity
  8
0
100
AcDbVertex
100
AcDb2dVertex
 10
599.033875
 20
350.400574
 30
0.0
  0
VERTEX
  5
1DA
100
AcDbEntity
  8
0
100
AcDbVertex
100
AcDb2dVertex
 10
598.610229
 20
350.340057
 30
0.0
  0
VERTEX
  5
1DB
100
AcDbEntity
  8
0
100
AcDbVertex
100
AcDb2dVertex
 10
598.297546
 20
350.168579
 30
0.0
  0
VERTEX
  5
1DC
100
AcDbEntity
  8
0
100
AcDbVertex
100
AcDb2dVertex
 10
598.100891
 20
349.901276
 30
0.0
  0
VERTEX
  5
1DD
100
AcDbEntity
  8
0
100
AcDbVertex
100
AcDb2dVertex
 10
598.035278
 20
349.548248
 30
0.0
  0
VERTEX
  5
1DE
100
AcDbEntity
  8
0
100
AcDbVertex
100
AcDb2dVertex
 10
598.035278
 20
349.518005
 30
0.0
  0
VERTEX
  5
1DF
100
AcDbEntity
  8
0
100
AcDbVertex
100
AcDb2dVertex
 10
598.433716
 20
349.518005
 30
0.0
  0
VERTEX
  5
1E0
100
AcDbEntity
  8
0
100
AcDbVertex
100
AcDb2dVertex
 10
598.468994
 20
349.729797
 30
0.0
  0
VERTEX
  5
1E1
100
AcDbEntity
  8
0
100
AcDbVertex
100
AcDb2dVertex
 10
598.579956
 20
349.881104
 30
0.0
  0
VERTEX
  5
1E2
100
AcDbEntity
  8
0
100
AcDbVertex
100
AcDb2dVertex
 10
598.761536
 20
349.971893
 30
0.0
  0
VERTEX
  5
1E3
100
AcDbEntity
  8
0
100
AcDbVertex
100
AcDb2dVertex
 10
599.018738
 20
350.007202
 30
0.0
  0
VERTEX
  5
1E4
100
AcDbEntity
  8
0
100
AcDbVertex
100
AcDb2dVertex
 10
599.265869
 20
349.981964
 30
0.0
  0
VERTEX
  5
1E5
100
AcDbEntity
  8
0
100
AcDbVertex
100
AcDb2dVertex
 10
599.442383
 20
349.906311
 30
0.0
  0
VERTEX
  5
1E6
100
AcDbEntity
  8
0
100
AcDbVertex
100
AcDb2dVertex
 10
599.548279
 20
349.775208
 30
0.0
  0
VERTEX
  5
1E7
100
AcDbEntity
  8
0
100
AcDbVertex
100
AcDb2dVertex
 10
599.583557
 20
349.593658
 30
0.0
  0
VERTEX
  5
1E8
100
AcDbEntity
  8
0
100
AcDbVertex
100
AcDb2dVertex
 10
599.563416
 20
349.381836
 30
0.0
  0
VERTEX
  5
1E9
100
AcDbEntity
  8
0
100
AcDbVertex
100
AcDb2dVertex
 10
599.482727
 20
349.275909
 30
0.0
  0
VERTEX
  5
1EA
100
AcDbEntity
  8
0
100
AcDbVertex
100
AcDb2dVertex
 10
599.281006
 20
349.225494
 30
0.0
  0
VERTEX
  5
1EB
100
AcDbEntity
  8
0
100
AcDbVertex
100
AcDb2dVertex
 10
598.90271
 20
349.18515
 30
0.0
  0
VERTEX
  5
1EC
100
AcDbEntity
  8
0
100
AcDbVertex
100
AcDb2dVertex
 10
598.468994
 20
349.09436
 30
0.0
  0
VERTEX
  5
1ED
100
AcDbEntity
  8
0
100
AcDbVertex
100
AcDb2dVertex
 10
598.161377
 20
348.932983
 30
0.0
  0
VERTEX
  5
1EE
100
AcDbEntity
  8
0
100
AcDbVertex
100
AcDb2dVertex
 10
597.979797
 20
348.680817
 30
0.0
  0
VERTEX
  5
1EF
100
AcDbEntity
  8
0
100
AcDbVertex
100
AcDb2dVertex
 10
597.924377
 20
348.307617
 30
0.0
  0
VERTEX
  5
1F0
100
AcDbEntity
  8
0
100
AcDbVertex
100
AcDb2dVertex
 10
597.974792
 20
347.974762
 30
0.0
  0
VERTEX
  5
1F1
100
AcDbEntity
  8
0
100
AcDbVertex
100
AcDb2dVertex
 10
598.131104
 20
347.727661
 30
0.0
  0
VERTEX
  5
1F2
100
AcDbEntity
  8
0
100
AcDbVertex
100
AcDb2dVertex
 10
598.383301
 20
347.57132
 30
0.0
  0
VERTEX
  5
1F3
100
AcDbEntity
  8
0
100
AcDbVertex
100
AcDb2dVertex
 10
598.731262
 20
347.515839
 30
0.0
  0
VERTEX
  5
1F4
100
AcDbEntity
  8
0
100
AcDbVertex
100
AcDb2dVertex
 10
599.200317
 20
347.621735
 30
0.0
  0
SEQEND
  5
1F5
100
AcDbEntity
  8
0
  0
POLYLINE
  5
1F6
100
AcDbEntity
  8
0
 62
     7
100
AcDb2dPolyline
 66
     1
 10
0.0
 20
0.0
 30
0.0
 70
     1
 71
    14
  0
VERTEX
  5
1F7
100
AcDbEntity
  8
0
100
AcDbVertex
100
AcDb2dVertex
 10
599.56842
 20
348.544647
 30
0.0
  0
VERTEX
  5
1F8
100
AcDbEntity
  8
0
100
AcDbVertex
100
AcDb2dVertex
 10
599.507935
 20
348.28241
 30
0.0
  0
VERTEX
  5
1F9
100
AcDbEntity
  8
0
100
AcDbVertex
100
AcDb2dVertex
 10
599.346558
 20
348.080688
 30
0.0
  0
VERTEX
  5
1FA
100
AcDbEntity
  8
0
100
AcDbVertex
100
AcDb2dVertex
 10
599.104492
 20
347.949554
 30
0.0
  0
VERTEX
  5
1FB
100
AcDbEntity
  8
0
100
AcDbVertex
100
AcDb2dVertex
 10
598.806946
 20
347.904175
 30
0.0
  0
VERTEX
  5
1FC
100
AcDbEntity
  8
0
100
AcDbVertex
100
AcDb2dVertex
 10
598.615295
 20
347.929382
 30
0.0
  0
VERTEX
  5
1FD
100
AcDbEntity
  8
0
100
AcDbVertex
100
AcDb2dVertex
 10
598.479126
 20
348.010071
 30
0.0
  0
VERTEX
  5
1FE
100
AcDbEntity
  8
0
100
AcDbVertex
100
AcDb2dVertex
 10
598.393372
 20
348.151276
 30
0.0
  0
VERTEX
  5
1FF
100
AcDbEntity
  8
0
100
AcDbVertex
100
AcDb2dVertex
 10
598.368164
 20
348.347961
 30
0.0
  0
VERTEX
  5
200
100
AcDbEntity
  8
0
100
AcDbVertex
100
AcDb2dVertex
 10
598.388306
 20
348.524475
 30
0.0
  0
VERTEX
  5
201
100
AcDbEntity
  8
0
100
AcDbVertex
100
AcDb2dVertex
 10
598.468994
 20
348.650574
 30
0.0
  0
VERTEX
  5
202
100
AcDbEntity
  8
0
100
AcDbVertex
100
AcDb2dVertex
 10
598.791809
 20
348.791779
 30
0.0
  0
VERTEX
  5
203
100
AcDbEntity
  8
0
100
AcDbVertex
100
AcDb2dVertex
 10
599.200317
 20
348.852295
 30
0.0
  0
VERTEX
  5
204
100
AcDbEntity
  8
0
100
AcDbVertex
100
AcDb2dVertex
 10
599.56842
 20
348.973328
 30
0.0
  0
SEQEND
  5
205
100
AcDbEntity
  8
0
  0
POLYLINE
  5
206
100
AcDbEntity
  8
0
 62
     7
100
AcDb2dPolyline
 66
     1
 10
0.0
 20
0.0
 30
0.0
 70
     1
 71
    47
  0
VERTEX
  5
207
100
AcDbEntity
  8
0
100
AcDbVertex
100
AcDb2dVertex
 10
601.076355
 20
347.596527
 30
0.0
  0
VERTEX
  5
208
100
AcDbEntity
  8
0
100
AcDbVertex
100
AcDb2dVertex
 10
601.510071
 20
347.596527
 30
0.0
  0
VERTEX
  5
209
100
AcDbEntity
  8
0
100
AcDbVertex
100
AcDb2dVertex
 10
601.510071
 20
350.113098
 30
0.0
  0
VERTEX
  5
20A
100
AcDbEntity
  8
0
100
AcDbVertex
100
AcDb2dVertex
 10
601.540344
 20
350.450989
 30
0.0
  0
VERTEX
  5
20B
100
AcDbEntity
  8
0
100
AcDbVertex
100
AcDb2dVertex
 10
601.64624
 20
350.693054
 30
0.0
  0
VERTEX
  5
20C
100
AcDbEntity
  8
0
100
AcDbVertex
100
AcDb2dVertex
 10
601.82782
 20
350.83429
 30
0.0
  0
VERTEX
  5
20D
100
AcDbEntity
  8
0
100
AcDbVertex
100
AcDb2dVertex
 10
602.095093
 20
350.884705
 30
0.0
  0
VERTEX
  5
20E
100
AcDbEntity
  8
0
100
AcDbVertex
100
AcDb2dVertex
 10
602.322021
 20
350.84436
 30
0.0
  0
VERTEX
  5
20F
100
AcDbEntity
  8
0
100
AcDbVertex
100
AcDb2dVertex
 10
602.498535
 20
350.728363
 30
0.0
  0
VERTEX
  5
210
100
AcDbEntity
  8
0
100
AcDbVertex
100
AcDb2dVertex
 10
602.609497
 20
350.551849
 30
0.0
  0
VERTEX
  5
211
100
AcDbEntity
  8
0
100
AcDbVertex
100
AcDb2dVertex
 10
602.649841
 20
350.319885
 30
0.0
  0
VERTEX
  5
212
100
AcDbEntity
  8
0
100
AcDbVertex
100
AcDb2dVertex
 10
602.604492
 20
350.067719
 30
0.0
  0
VERTEX
  5
213
100
AcDbEntity
  8
0
100
AcDbVertex
100
AcDb2dVertex
 10
602.478394
 20
349.891205
 30
0.0
  0
VERTEX
  5
214
100
AcDbEntity
  8
0
100
AcDbVertex
100
AcDb2dVertex
 10
602.271606
 20
349.780243
 30
0.0
  0
VERTEX
  5
215
100
AcDbEntity
  8
0
100
AcDbVertex
100
AcDb2dVertex
 10
601.989197
 20
349.744934
 30
0.0
  0
VERTEX
  5
216
100
AcDbEntity
  8
0
100
AcDbVertex
100
AcDb2dVertex
 10
601.913574
 20
349.744934
 30
0.0
  0
VERTEX
  5
217
100
AcDbEntity
  8
0
100
AcDbVertex
100
AcDb2dVertex
 10
601.913574
 20
349.376801
 30
0.0
  0
VERTEX
  5
218
100
AcDbEntity
  8
0
100
AcDbVertex
100
AcDb2dVertex
 10
601.989197
 20
349.376801
 30
0.0
  0
VERTEX
  5
219
100
AcDbEntity
  8
0
100
AcDbVertex
100
AcDb2dVertex
 10
602.342224
 20
349.33139
 30
0.0
  0
VERTEX
  5
21A
100
AcDbEntity
  8
0
100
AcDbVertex
100
AcDb2dVertex
 10
602.59436
 20
349.205322
 30
0.0
  0
VERTEX
  5
21B
100
AcDbEntity
  8
0
100
AcDbVertex
100
AcDb2dVertex
 10
602.745667
 20
348.9935
 30
0.0
  0
VERTEX
  5
21C
100
AcDbEntity
  8
0
100
AcDbVertex
100
AcDb2dVertex
 10
602.796082
 20
348.690918
 30
0.0
  0
VERTEX
  5
21D
100
AcDbEntity
  8
0
100
AcDbVertex
100
AcDb2dVertex
 10
602.740662
 20
348.368134
 30
0.0
  0
VERTEX
  5
21E
100
AcDbEntity
  8
0
100
AcDbVertex
100
AcDb2dVertex
 10
602.589355
 20
348.131104
 30
0.0
  0
VERTEX
  5
21F
100
AcDbEntity
  8
0
100
AcDbVertex
100
AcDb2dVertex
 10
602.362366
 20
347.979797
 30
0.0
  0
VERTEX
  5
220
100
AcDbEntity
  8
0
100
AcDbVertex
100
AcDb2dVertex
 10
602.090088
 20
347.929382
 30
0.0
  0
VERTEX
  5
221
100
AcDbEntity
  8
0
100
AcDbVertex
100
AcDb2dVertex
 10
601.883301
 20
347.959625
 30
0.0
  0
VERTEX
  5
222
100
AcDbEntity
  8
0
100
AcDbVertex
100
AcDb2dVertex
 10
601.883301
 20
347.546082
 30
0.0
  0
VERTEX
  5
223
100
AcDbEntity
  8
0
100
AcDbVertex
100
AcDb2dVertex
 10
602.175781
 20
347.510803
 30
0.0
  0
VERTEX
  5
224
100
AcDbEntity
  8
0
100
AcDbVertex
100
AcDb2dVertex
 10
602.599426
 20
347.596527
 30
0.0
  0
VERTEX
  5
225
100
AcDbEntity
  8
0
100
AcDbVertex
100
AcDb2dVertex
 10
602.942383
 20
347.843658
 30
0.0
  0
VERTEX
  5
226
100
AcDbEntity
  8
0
100
AcDbVertex
100
AcDb2dVertex
 10
603.169312
 20
348.231964
 30
0.0
  0
VERTEX
  5
227
100
AcDbEntity
  8
0
100
AcDbVertex
100
AcDb2dVertex
 10
603.255066
 20
348.741333
 30
0.0
  0
VERTEX
  5
228
100
AcDbEntity
  8
0
100
AcDbVertex
100
AcDb2dVertex
 10
603.214722
 20
349.038879
 30
0.0
  0
VERTEX
  5
229
100
AcDbEntity
  8
0
100
AcDbVertex
100
AcDb2dVertex
 10
603.10376
 20
349.296082
 30
0.0
  0
VERTEX
  5
22A
100
AcDbEntity
  8
0
100
AcDbVertex
100
AcDb2dVertex
 10
602.932251
 20
349.492767
 30
0.0
  0
VERTEX
  5
22B
100
AcDbEntity
  8
0
100
AcDbVertex
100
AcDb2dVertex
 10
602.700317
 20
349.618866
 30
0.0
  0
VERTEX
  5
22C
100
AcDbEntity
  8
0
100
AcDbVertex
100
AcDb2dVertex
 10
602.992798
 20
349.89624
 30
0.0
  0
VERTEX
  5
22D
100
AcDbEntity
  8
0
100
AcDbVertex
100
AcDb2dVertex
 10
603.093689
 20
350.360229
 30
0.0
  0
VERTEX
  5
22E
100
AcDbEntity
  8
0
100
AcDbVertex
100
AcDb2dVertex
 10
603.018005
 20
350.728363
 30
0.0
  0
VERTEX
  5
22F
100
AcDbEntity
  8
0
100
AcDbVertex
100
AcDb2dVertex
 10
602.82135
 20
351.020874
 30
0.0
  0
VERTEX
  5
230
100
AcDbEntity
  8
0
100
AcDbVertex
100
AcDb2dVertex
 10
602.503601
 20
351.202423
 30
0.0
  0
VERTEX
  5
231
100
AcDbEntity
  8
0
100
AcDbVertex
100
AcDb2dVertex
 10
602.100159
 20
351.273041
 30
0.0
  0
VERTEX
  5
232
100
AcDbEntity
  8
0
100
AcDbVertex
100
AcDb2dVertex
 10
601.656311
 20
351.202423
 30
0.0
  0
VERTEX
  5
233
100
AcDbEntity
  8
0
100
AcDbVertex
100
AcDb2dVertex
 10
601.338623
 20
350.995667
 30
0.0
  0
VERTEX
  5
234
100
AcDbEntity
  8
0
100
AcDbVertex
100
AcDb2dVertex
 10
601.141907
 20
350.65271
 30
0.0
  0
VERTEX
  5
235
100
AcDbEntity
  8
0
100
AcDbVertex
100
AcDb2dVertex
 10
601.076355
 20
350.17865
 30
0.0
  0
SEQEND
  5
236
100
AcDbEntity
  8
0
  0
POLYLINE
  5
237
100
AcDbEntity
  8
0
 62
     7
100
AcDb2dPolyline
 66
     1
 10
0.0
 20
0.0
 30
0.0
 70
     1
 71
    50
  0
VERTEX
  5
238
100
AcDbEntity
  8
0
100
AcDbVertex
100
AcDb2dVertex
 10
605.408508
 20
349.175049
 30
0.0
  0
VERTEX
  5
239
100
AcDbEntity
  8
0
100
AcDbVertex
100
AcDb2dVertex
 10
604.979797
 20
349.275909
 30
0.0
  0
VERTEX
  5
23A
100
AcDbEntity
  8
0
100
AcDbVertex
100
AcDb2dVertex
 10
604.662109
 20
349.391907
 30
0.0
  0
VERTEX
  5
23B
100
AcDbEntity
  8
0
100
AcDbVertex
100
AcDb2dVertex
 10
604.556213
 20
349.628937
 30
0.0
  0
VERTEX
  5
23C
100
AcDbEntity
  8
0
100
AcDbVertex
100
AcDb2dVertex
 10
604.586426
 20
349.79538
 30
0.0
  0
VERTEX
  5
23D
100
AcDbEntity
  8
0
100
AcDbVertex
100
AcDb2dVertex
 10
604.692383
 20
349.916412
 30
0.0
  0
VERTEX
  5
23E
100
AcDbEntity
  8
0
100
AcDbVertex
100
AcDb2dVertex
 10
604.863831
 20
349.992065
 30
0.0
  0
VERTEX
  5
23F
100
AcDbEntity
  8
0
100
AcDbVertex
100
AcDb2dVertex
 10
605.110962
 20
350.022308
 30
0.0
  0
VERTEX
  5
240
100
AcDbEntity
  8
0
100
AcDbVertex
100
AcDb2dVertex
 10
605.347961
 20
349.992065
 30
0.0
  0
VERTEX
  5
241
100
AcDbEntity
  8
0
100
AcDbVertex
100
AcDb2dVertex
 10
605.534607
 20
349.901276
 30
0.0
  0
VERTEX
  5
242
100
AcDbEntity
  8
0
100
AcDbVertex
100
AcDb2dVertex
 10
605.65564
 20
349.765106
 30
0.0
  0
VERTEX
  5
243
100
AcDbEntity
  8
0
100
AcDbVertex
100
AcDb2dVertex
 10
605.706055
 20
349.583557
 30
0.0
  0
VERTEX
  5
244
100
AcDbEntity
  8
0
100
AcDbVertex
100
AcDb2dVertex
 10
606.139771
 20
349.583557
 30
0.0
  0
VERTEX
  5
245
100
AcDbEntity
  8
0
100
AcDbVertex
100
AcDb2dVertex
 10
606.139771
 20
349.593658
 30
0.0
  0
VERTEX
  5
246
100
AcDbEntity
  8
0
100
AcDbVertex
100
AcDb2dVertex
 10
606.064148
 20
349.921448
 30
0.0
  0
VERTEX
  5
247
100
AcDbEntity
  8
0
100
AcDbVertex
100
AcDb2dVertex
 10
605.857361
 20
350.17865
 30
0.0
  0
VERTEX
  5
248
100
AcDbEntity
  8
0
100
AcDbVertex
100
AcDb2dVertex
 10
605.534607
 20
350.340057
 30
0.0
  0
VERTEX
  5
249
100
AcDbEntity
  8
0
100
AcDbVertex
100
AcDb2dVertex
 10
605.110962
 20
350.400574
 30
0.0
  0
VERTEX
  5
24A
100
AcDbEntity
  8
0
100
AcDbVertex
100
AcDb2dVertex
 10
604.682251
 20
350.340057
 30
0.0
  0
VERTEX
  5
24B
100
AcDbEntity
  8
0
100
AcDbVertex
100
AcDb2dVertex
 10
604.369568
 20
350.173615
 30
0.0
  0
VERTEX
  5
24C
100
AcDbEntity
  8
0
100
AcDbVertex
100
AcDb2dVertex
 10
604.172913
 20
349.926483
 30
0.0
  0
VERTEX
  5
24D
100
AcDbEntity
  8
0
100
AcDbVertex
100
AcDb2dVertex
 10
604.112366
 20
349.613831
 30
0.0
  0
VERTEX
  5
24E
100
AcDbEntity
  8
0
100
AcDbVertex
100
AcDb2dVertex
 10
604.157776
 20
349.311218
 30
0.0
  0
VERTEX
  5
24F
100
AcDbEntity
  8
0
100
AcDbVertex
100
AcDb2dVertex
 10
604.299011
 20
349.099396
 30
0.0
  0
VERTEX
  5
250
100
AcDbEntity
  8
0
100
AcDbVertex
100
AcDb2dVertex
 10
604.531006
 20
348.94812
 30
0.0
  0
VERTEX
  5
251
100
AcDbEntity
  8
0
100
AcDbVertex
100
AcDb2dVertex
 10
604.868896
 20
348.842194
 30
0.0
  0
VERTEX
  5
252
100
AcDbEntity
  8
0
100
AcDbVertex
100
AcDb2dVertex
 10
605.363098
 20
348.721161
 30
0.0
  0
VERTEX
  5
253
100
AcDbEntity
  8
0
100
AcDbVertex
100
AcDb2dVertex
 10
605.66571
 20
348.595093
 30
0.0
  0
VERTEX
  5
254
100
AcDbEntity
  8
0
100
AcDbVertex
100
AcDb2dVertex
 10
605.746399
 20
348.494232
 30
0.0
  0
VERTEX
  5
255
100
AcDbEntity
  8
0
100
AcDbVertex
100
AcDb2dVertex
 10
605.776672
 20
348.342926
 30
0.0
  0
VERTEX
  5
256
100
AcDbEntity
  8
0
100
AcDbVertex
100
AcDb2dVertex
 10
605.731262
 20
348.156311
 30
0.0
  0
VERTEX
  5
257
100
AcDbEntity
  8
0
100
AcDbVertex
100
AcDb2dVertex
 10
605.610229
 20
348.015106
 30
0.0
  0
VERTEX
  5
258
100
AcDbEntity
  8
0
100
AcDbVertex
100
AcDb2dVertex
 10
605.413574
 20
347.924347
 30
0.0
  0
VERTEX
  5
259
100
AcDbEntity
  8
0
100
AcDbVertex
100
AcDb2dVertex
 10
605.151306
 20
347.894073
 30
0.0
  0
VERTEX
  5
25A
100
AcDbEntity
  8
0
100
AcDbVertex
100
AcDb2dVertex
 10
604.873901
 20
347.924347
 30
0.0
  0
VERTEX
  5
25B
100
AcDbEntity
  8
0
100
AcDbVertex
100
AcDb2dVertex
 10
604.67218
 20
348.030243
 30
0.0
  0
VERTEX
  5
25C
100
AcDbEntity
  8
0
100
AcDbVertex
100
AcDb2dVertex
 10
604.536011
 20
348.201721
 30
0.0
  0
VERTEX
  5
25D
100
AcDbEntity
  8
0
100
AcDbVertex
100
AcDb2dVertex
 10
604.48053
 20
348.438751
 30
0.0
  0
VERTEX
  5
25E
100
AcDbEntity
  8
0
100
AcDbVertex
100
AcDb2dVertex
 10
604.05188
 20
348.438751
 30
0.0
  0
VERTEX
  5
25F
100
AcDbEntity
  8
0
100
AcDbVertex
100
AcDb2dVertex
 10
604.122498
 20
348.035278
 30
0.0
  0
VERTEX
  5
260
100
AcDbEntity
  8
0
100
AcDbVertex
100
AcDb2dVertex
 10
604.329224
 20
347.742767
 30
0.0
  0
VERTEX
  5
261
100
AcDbEntity
  8
0
100
AcDbVertex
100
AcDb2dVertex
 10
604.657043
 20
347.566254
 30
0.0
  0
VERTEX
  5
262
100
AcDbEntity
  8
0
100
AcDbVertex
100
AcDb2dVertex
 10
605.110962
 20
347.500702
 30
0.0
  0
VERTEX
  5
263
100
AcDbEntity
  8
0
100
AcDbVertex
100
AcDb2dVertex
 10
605.585022
 20
347.566254
 30
0.0
  0
VERTEX
  5
264
100
AcDbEntity
  8
0
100
AcDbVertex
100
AcDb2dVertex
 10
605.932983
 20
347.742767
 30
0.0
  0
VERTEX
  5
265
100
AcDbEntity
  8
0
100
AcDbVertex
100
AcDb2dVertex
 10
606.144836
 20
348.025208
 30
0.0
  0
VERTEX
  5
266
100
AcDbEntity
  8
0
100
AcDbVertex
100
AcDb2dVertex
 10
606.220459
 20
348.393372
 30
0.0
  0
VERTEX
  5
267
100
AcDbEntity
  8
0
100
AcDbVertex
100
AcDb2dVertex
 10
606.164978
 20
348.71109
 30
0.0
  0
VERTEX
  5
268
100
AcDbEntity
  8
0
100
AcDbVertex
100
AcDb2dVertex
 10
606.008667
 20
348.927948
 30
0.0
  0
VERTEX
  5
269
100
AcDbEntity
  8
0
100
AcDbVertex
100
AcDb2dVertex
 10
605.751465
 20
349.069153
 30
0.0
  0
SEQEND
  5
26A
100
AcDbEntity
  8
0
  0
POLYLINE
  5
26B
100
AcDbEntity
  8
0
 62
     7
100
AcDb2dPolyline
 66
     1
 10
0.0
 20
0.0
 30
0.0
 70
     1
 71
    22
  0
VERTEX
  5
26C
100
AcDbEntity
  8
0
100
AcDbVertex
100
AcDb2dVertex
 10
607.713257
 20
349.835724
 30
0.0
  0
VERTEX
  5
26D
100
AcDbEntity
  8
0
100
AcDbVertex
100
AcDb2dVertex
 10
607.713257
 20
348.479095
 30
0.0
  0
VERTEX
  5
26E
100
AcDbEntity
  8
0
100
AcDbVertex
100
AcDb2dVertex
 10
607.74353
 20
348.040344
 30
0.0
  0
VERTEX
  5
26F
100
AcDbEntity
  8
0
100
AcDbVertex
100
AcDb2dVertex
 10
607.884705
 20
347.737732
 30
0.0
  0
VERTEX
  5
270
100
AcDbEntity
  8
0
100
AcDbVertex
100
AcDb2dVertex
 10
608.167175
 20
347.561218
 30
0.0
  0
VERTEX
  5
271
100
AcDbEntity
  8
0
100
AcDbVertex
100
AcDb2dVertex
 10
608.64624
 20
347.500702
 30
0.0
  0
VERTEX
  5
272
100
AcDbEntity
  8
0
100
AcDbVertex
100
AcDb2dVertex
 10
609.170776
 20
347.525909
 30
0.0
  0
VERTEX
  5
273
100
AcDbEntity
  8
0
100
AcDbVertex
100
AcDb2dVertex
 10
609.170776
 20
347.90921
 30
0.0
  0
VERTEX
  5
274
100
AcDbEntity
  8
0
100
AcDbVertex
100
AcDb2dVertex
 10
608.787476
 20
347.878937
 30
0.0
  0
VERTEX
  5
275
100
AcDbEntity
  8
0
100
AcDbVertex
100
AcDb2dVertex
 10
608.439453
 20
347.919281
 30
0.0
  0
VERTEX
  5
276
100
AcDbEntity
  8
0
100
AcDbVertex
100
AcDb2dVertex
 10
608.252869
 20
348.04538
 30
0.0
  0
VERTEX
  5
277
100
AcDbEntity
  8
0
100
AcDbVertex
100
AcDb2dVertex
 10
608.17218
 20
348.257202
 30
0.0
  0
VERTEX
  5
278
100
AcDbEntity
  8
0
100
AcDbVertex
100
AcDb2dVertex
 10
608.157043
 20
348.554749
 30
0.0
  0
VERTEX
  5
279
100
AcDbEntity
  8
0
100
AcDbVertex
100
AcDb2dVertex
 10
608.157043
 20
349.835724
 30
0.0
  0
VERTEX
  5
27A
100
AcDbEntity
  8
0
100
AcDbVertex
100
AcDb2dVertex
 10
609.170776
 20
349.835724
 30
0.0
  0
VERTEX
  5
27B
100
AcDbEntity
  8
0
100
AcDbVertex
100
AcDb2dVertex
 10
609.170776
 20
350.213959
 30
0.0
  0
VERTEX
  5
27C
100
AcDbEntity
  8
0
100
AcDbVertex
100
AcDb2dVertex
 10
608.157043
 20
350.213959
 30
0.0
  0
VERTEX
  5
27D
100
AcDbEntity
  8
0
100
AcDbVertex
100
AcDb2dVertex
 10
608.157043
 20
351.005737
 30
0.0
  0
VERTEX
  5
27E
100
AcDbEntity
  8
0
100
AcDbVertex
100
AcDb2dVertex
 10
607.713257
 20
351.005737
 30
0.0
  0
VERTEX
  5
27F
100
AcDbEntity
  8
0
100
AcDbVertex
100
AcDb2dVertex
 10
607.713257
 20
350.213959
 30
0.0
  0
VERTEX
  5
280
100
AcDbEntity
  8
0
100
AcDbVertex
100
AcDb2dVertex
 10
606.946655
 20
350.213959
 30
0.0
  0
VERTEX
  5
281
100
AcDbEntity
  8
0
100
AcDbVertex
100
AcDb2dVertex
 10
606.946655
 20
349.835724
 30
0.0
  0
SEQEND
  5
282
100
AcDbEntity
  8
0
  0
POLYLINE
  5
283
100
AcDbEntity
  8
0
 62
     7
100
AcDb2dPolyline
 66
     1
 10
0.0
 20
0.0
 30
0.0
 70
     1
 71
    42
  0
VERTEX
  5
284
100
AcDbEntity
  8
0
100
AcDbVertex
100
AcDb2dVertex
 10
611.762939
 20
347.949554
 30
0.0
  0
VERTEX
  5
285
100
AcDbEntity
  8
0
100
AcDbVertex
100
AcDb2dVertex
 10
611.762939
 20
347.934418
 30
0.0
  0
VERTEX
  5
286
100
AcDbEntity
  8
0
100
AcDbVertex
100
AcDb2dVertex
 10
611.788208
 20
347.762939
 30
0.0
  0
VERTEX
  5
287
100
AcDbEntity
  8
0
100
AcDbVertex
100
AcDb2dVertex
 10
611.863831
 20
347.641907
 30
0.0
  0
VERTEX
  5
288
100
AcDbEntity
  8
0
100
AcDbVertex
100
AcDb2dVertex
 10
612.18158
 20
347.546082
 30
0.0
  0
VERTEX
  5
289
100
AcDbEntity
  8
0
100
AcDbVertex
100
AcDb2dVertex
 10
612.42865
 20
347.586426
 30
0.0
  0
VERTEX
  5
28A
100
AcDbEntity
  8
0
100
AcDbVertex
100
AcDb2dVertex
 10
612.42865
 20
347.929382
 30
0.0
  0
VERTEX
  5
28B
100
AcDbEntity
  8
0
100
AcDbVertex
100
AcDb2dVertex
 10
612.322754
 20
347.914246
 30
0.0
  0
VERTEX
  5
28C
100
AcDbEntity
  8
0
100
AcDbVertex
100
AcDb2dVertex
 10
612.18158
 20
347.979797
 30
0.0
  0
VERTEX
  5
28D
100
AcDbEntity
  8
0
100
AcDbVertex
100
AcDb2dVertex
 10
612.156311
 20
348.181549
 30
0.0
  0
VERTEX
  5
28E
100
AcDbEntity
  8
0
100
AcDbVertex
100
AcDb2dVertex
 10
612.156311
 20
349.583557
 30
0.0
  0
VERTEX
  5
28F
100
AcDbEntity
  8
0
100
AcDbVertex
100
AcDb2dVertex
 10
612.095825
 20
349.94162
 30
0.0
  0
VERTEX
  5
290
100
AcDbEntity
  8
0
100
AcDbVertex
100
AcDb2dVertex
 10
611.919312
 20
350.193787
 30
0.0
  0
VERTEX
  5
291
100
AcDbEntity
  8
0
100
AcDbVertex
100
AcDb2dVertex
 10
611.611694
 20
350.345093
 30
0.0
  0
VERTEX
  5
292
100
AcDbEntity
  8
0
100
AcDbVertex
100
AcDb2dVertex
 10
611.177979
 20
350.400574
 30
0.0
  0
VERTEX
  5
293
100
AcDbEntity
  8
0
100
AcDbVertex
100
AcDb2dVertex
 10
610.754333
 20
350.340057
 30
0.0
  0
VERTEX
  5
294
100
AcDbEntity
  8
0
100
AcDbVertex
100
AcDb2dVertex
 10
610.44165
 20
350.168579
 30
0.0
  0
VERTEX
  5
295
100
AcDbEntity
  8
0
100
AcDbVertex
100
AcDb2dVertex
 10
610.244934
 20
349.901276
 30
0.0
  0
VERTEX
  5
296
100
AcDbEntity
  8
0
100
AcDbVertex
100
AcDb2dVertex
 10
610.179382
 20
349.548248
 30
0.0
  0
VERTEX
  5
297
100
AcDbEntity
  8
0
100
AcDbVertex
100
AcDb2dVertex
 10
610.179382
 20
349.518005
 30
0.0
  0
VERTEX
  5
298
100
AcDbEntity
  8
0
100
AcDbVertex
100
AcDb2dVertex
 10
610.57782
 20
349.518005
 30
0.0
  0
VERTEX
  5
299
100
AcDbEntity
  8
0
100
AcDbVertex
100
AcDb2dVertex
 10
610.613098
 20
349.729797
 30
0.0
  0
VERTEX
  5
29A
100
AcDbEntity
  8
0
100
AcDbVertex
100
AcDb2dVertex
 10
610.72406
 20
349.881104
 30
0.0
  0
VERTEX
  5
29B
100
AcDbEntity
  8
0
100
AcDbVertex
100
AcDb2dVertex
 10
610.90564
 20
349.971893
 30
0.0
  0
VERTEX
  5
29C
100
AcDbEntity
  8
0
100
AcDbVertex
100
AcDb2dVertex
 10
611.162842
 20
350.007202
 30
0.0
  0
VERTEX
  5
29D
100
AcDbEntity
  8
0
100
AcDbVertex
100
AcDb2dVertex
 10
611.409912
 20
349.981964
 30
0.0
  0
VERTEX
  5
29E
100
AcDbEntity
  8
0
100
AcDbVertex
100
AcDb2dVertex
 10
611.586426
 20
349.906311
 30
0.0
  0
VERTEX
  5
29F
100
AcDbEntity
  8
0
100
AcDbVertex
100
AcDb2dVertex
 10
611.692383
 20
349.775208
 30
0.0
  0
VERTEX
  5
2A0
100
AcDbEntity
  8
0
100
AcDbVertex
100
AcDb2dVertex
 10
611.727661
 20
349.593658
 30
0.0
  0
VERTEX
  5
2A1
100
AcDbEntity
  8
0
100
AcDbVertex
100
AcDb2dVertex
 10
611.70752
 20
349.381836
 30
0.0
  0
VERTEX
  5
2A2
100
AcDbEntity
  8
0
100
AcDbVertex
100
AcDb2dVertex
 10
611.626831
 20
349.275909
 30
0.0
  0
VERTEX
  5
2A3
100
AcDbEntity
  8
0
100
AcDbVertex
100
AcDb2dVertex
 10
611.425049
 20
349.225494
 30
0.0
  0
VERTEX
  5
2A4
100
AcDbEntity
  8
0
100
AcDbVertex
100
AcDb2dVertex
 10
611.046814
 20
349.18515
 30
0.0
  0
VERTEX
  5
2A5
100
AcDbEntity
  8
0
100
AcDbVertex
100
AcDb2dVertex
 10
610.613098
 20
349.09436
 30
0.0
  0
VERTEX
  5
2A6
100
AcDbEntity
  8
0
100
AcDbVertex
100
AcDb2dVertex
 10
610.305481
 20
348.932983
 30
0.0
  0
VERTEX
  5
2A7
100
AcDbEntity
  8
0
100
AcDbVertex
100
AcDb2dVertex
 10
610.123901
 20
348.680817
 30
0.0
  0
VERTEX
  5
2A8
100
AcDbEntity
  8
0
100
AcDbVertex
100
AcDb2dVertex
 10
610.06842
 20
348.307617
 30
0.0
  0
VERTEX
  5
2A9
100
AcDbEntity
  8
0
100
AcDbVertex
100
AcDb2dVertex
 10
610.118896
 20
347.974762
 30
0.0
  0
VERTEX
  5
2AA
100
AcDbEntity
  8
0
100
AcDbVertex
100
AcDb2dVertex
 10
610.275208
 20
347.727661
 30
0.0
  0
VERTEX
  5
2AB
100
AcDbEntity
  8
0
100
AcDbVertex
100
AcDb2dVertex
 10
610.527405
 20
347.57132
 30
0.0
  0
VERTEX
  5
2AC
100
AcDbEntity
  8
0
100
AcDbVertex
100
AcDb2dVertex
 10
610.875366
 20
347.515839
 30
0.0
  0
VERTEX
  5
2AD
100
AcDbEntity
  8
0
100
AcDbVertex
100
AcDb2dVertex
 10
611.34436
 20
347.621735
 30
0.0
  0
SEQEND
  5
2AE
100
AcDbEntity
  8
0
  0
POLYLINE
  5
2AF
100
AcDbEntity
  8
0
 62
     7
100
AcDb2dPolyline
 66
     1
 10
0.0
 20
0.0
 30
0.0
 70
     1
 71
    14
  0
VERTEX
  5
2B0
100
AcDbEntity
  8
0
100
AcDbVertex
100
AcDb2dVertex
 10
611.712524
 20
348.544647
 30
0.0
  0
VERTEX
  5
2B1
100
AcDbEntity
  8
0
100
AcDbVertex
100
AcDb2dVertex
 10
611.652039
 20
348.28241
 30
0.0
  0
VERTEX
  5
2B2
100
AcDbEntity
  8
0
100
AcDbVertex
100
AcDb2dVertex
 10
611.490662
 20
348.080688
 30
0.0
  0
VERTEX
  5
2B3
100
AcDbEntity
  8
0
100
AcDbVertex
100
AcDb2dVertex
 10
611.248535
 20
347.949554
 30
0.0
  0
VERTEX
  5
2B4
100
AcDbEntity
  8
0
100
AcDbVertex
100
AcDb2dVertex
 10
610.950989
 20
347.904175
 30
0.0
  0
VERTEX
  5
2B5
100
AcDbEntity
  8
0
100
AcDbVertex
100
AcDb2dVertex
 10
610.759338
 20
347.929382
 30
0.0
  0
VERTEX
  5
2B6
100
AcDbEntity
  8
0
100
AcDbVertex
100
AcDb2dVertex
 10
610.623169
 20
348.010071
 30
0.0
  0
VERTEX
  5
2B7
100
AcDbEntity
  8
0
100
AcDbVertex
100
AcDb2dVertex
 10
610.537476
 20
348.151276
 30
0.0
  0
VERTEX
  5
2B8
100
AcDbEntity
  8
0
100
AcDbVertex
100
AcDb2dVertex
 10
610.512268
 20
348.347961
 30
0.0
  0
VERTEX
  5
2B9
100
AcDbEntity
  8
0
100
AcDbVertex
100
AcDb2dVertex
 10
610.53241
 20
348.524475
 30
0.0
  0
VERTEX
  5
2BA
100
AcDbEntity
  8
0
100
AcDbVertex
100
AcDb2dVertex
 10
610.613098
 20
348.650574
 30
0.0
  0
VERTEX
  5
2BB
100
AcDbEntity
  8
0
100
AcDbVertex
100
AcDb2dVertex
 10
610.935852
 20
348.791779
 30
0.0
  0
VERTEX
  5
2BC
100
AcDbEntity
  8
0
100
AcDbVertex
100
AcDb2dVertex
 10
611.34436
 20
348.852295
 30
0.0
  0
VERTEX
  5
2BD
100
AcDbEntity
  8
0
100
AcDbVertex
100
AcDb2dVertex
 10
611.712524
 20
348.973328
 30
0.0
  0
SEQEND
  5
2BE
100
AcDbEntity
  8
0
  0
POLYLINE
  5
2BF
100
AcDbEntity
  8
0
 62
     7
100
AcDb2dPolyline
 66
     1
 10
0.0
 20
0.0
 30
0.0
 70
     1
 71
    18
  0
VERTEX
  5
2C0
100
AcDbEntity
  8
0
100
AcDbVertex
100
AcDb2dVertex
 10
613.608765
 20
348.015106
 30
0.0
  0
VERTEX
  5
2C1
100
AcDbEntity
  8
0
100
AcDbVertex
100
AcDb2dVertex
 10
613.936584
 20
347.626801
 30
0.0
  0
VERTEX
  5
2C2
100
AcDbEntity
  8
0
100
AcDbVertex
100
AcDb2dVertex
 10
614.385437
 20
347.500702
 30
0.0
  0
VERTEX
  5
2C3
100
AcDbEntity
  8
0
100
AcDbVertex
100
AcDb2dVertex
 10
614.809082
 20
347.596527
 30
0.0
  0
VERTEX
  5
2C4
100
AcDbEntity
  8
0
100
AcDbVertex
100
AcDb2dVertex
 10
615.146973
 20
347.884003
 30
0.0
  0
VERTEX
  5
2C5
100
AcDbEntity
  8
0
100
AcDbVertex
100
AcDb2dVertex
 10
615.358765
 20
348.342926
 30
0.0
  0
VERTEX
  5
2C6
100
AcDbEntity
  8
0
100
AcDbVertex
100
AcDb2dVertex
 10
615.439453
 20
348.953156
 30
0.0
  0
VERTEX
  5
2C7
100
AcDbEntity
  8
0
100
AcDbVertex
100
AcDb2dVertex
 10
615.358765
 20
349.563385
 30
0.0
  0
VERTEX
  5
2C8
100
AcDbEntity
  8
0
100
AcDbVertex
100
AcDb2dVertex
 10
615.141907
 20
350.017273
 30
0.0
  0
VERTEX
  5
2C9
100
AcDbEntity
  8
0
100
AcDbVertex
100
AcDb2dVertex
 10
614.809082
 20
350.299683
 30
0.0
  0
VERTEX
  5
2CA
100
AcDbEntity
  8
0
100
AcDbVertex
100
AcDb2dVertex
 10
614.385437
 20
350.400574
 30
0.0
  0
VERTEX
  5
2CB
100
AcDbEntity
  8
0
100
AcDbVertex
100
AcDb2dVertex
 10
613.94165
 20
350.26944
 30
0.0
  0
VERTEX
  5
2CC
100
AcDbEntity
  8
0
100
AcDbVertex
100
AcDb2dVertex
 10
613.760071
 20
350.108063
 30
0.0
  0
VERTEX
  5
2CD
100
AcDbEntity
  8
0
100
AcDbVertex
100
AcDb2dVertex
 10
613.608765
 20
349.891205
 30
0.0
  0
VERTEX
  5
2CE
100
AcDbEntity
  8
0
100
AcDbVertex
100
AcDb2dVertex
 10
613.608765
 20
351.21756
 30
0.0
  0
VERTEX
  5
2CF
100
AcDbEntity
  8
0
100
AcDbVertex
100
AcDb2dVertex
 10
613.164978
 20
351.21756
 30
0.0
  0
VERTEX
  5
2D0
100
AcDbEntity
  8
0
100
AcDbVertex
100
AcDb2dVertex
 10
613.164978
 20
347.596527
 30
0.0
  0
VERTEX
  5
2D1
100
AcDbEntity
  8
0
100
AcDbVertex
100
AcDb2dVertex
 10
613.608765
 20
347.596527
 30
0.0
  0
SEQEND
  5
2D2
100
AcDbEntity
  8
0
  0
POLYLINE
  5
2D3
100
AcDbEntity
  8
0
 62
     7
100
AcDb2dPolyline
 66
     1
 10
0.0
 20
0.0
 30
0.0
 70
     1
 71
    16
  0
VERTEX
  5
2D4
100
AcDbEntity
  8
0
100
AcDbVertex
100
AcDb2dVertex
 10
614.985596
 20
348.953156
 30
0.0
  0
VERTEX
  5
2D5
100
AcDbEntity
  8
0
100
AcDbVertex
100
AcDb2dVertex
 10
614.935181
 20
348.499268
 30
0.0
  0
VERTEX
  5
2D6
100
AcDbEntity
  8
0
100
AcDbVertex
100
AcDb2dVertex
 10
614.799011
 20
348.166412
 30
0.0
  0
VERTEX
  5
2D7
100
AcDbEntity
  8
0
100
AcDbVertex
100
AcDb2dVertex
 10
614.582153
 20
347.964691
 30
0.0
  0
VERTEX
  5
2D8
100
AcDbEntity
  8
0
100
AcDbVertex
100
AcDb2dVertex
 10
614.309814
 20
347.899109
 30
0.0
  0
VERTEX
  5
2D9
100
AcDbEntity
  8
0
100
AcDbVertex
100
AcDb2dVertex
 10
614.012268
 20
347.964691
 30
0.0
  0
VERTEX
  5
2DA
100
AcDbEntity
  8
0
100
AcDbVertex
100
AcDb2dVertex
 10
613.79541
 20
348.166412
 30
0.0
  0
VERTEX
  5
2DB
100
AcDbEntity
  8
0
100
AcDbVertex
100
AcDb2dVertex
 10
613.659241
 20
348.494232
 30
0.0
  0
VERTEX
  5
2DC
100
AcDbEntity
  8
0
100
AcDbVertex
100
AcDb2dVertex
 10
613.613831
 20
348.953156
 30
0.0
  0
VERTEX
  5
2DD
100
AcDbEntity
  8
0
100
AcDbVertex
100
AcDb2dVertex
 10
613.659241
 20
349.407043
 30
0.0
  0
VERTEX
  5
2DE
100
AcDbEntity
  8
0
100
AcDbVertex
100
AcDb2dVertex
 10
613.79541
 20
349.734863
 30
0.0
  0
VERTEX
  5
2DF
100
AcDbEntity
  8
0
100
AcDbVertex
100
AcDb2dVertex
 10
614.012268
 20
349.931549
 30
0.0
  0
VERTEX
  5
2E0
100
AcDbEntity
  8
0
100
AcDbVertex
100
AcDb2dVertex
 10
614.309814
 20
350.002136
 30
0.0
  0
VERTEX
  5
2E1
100
AcDbEntity
  8
0
100
AcDbVertex
100
AcDb2dVertex
 10
614.582153
 20
349.931549
 30
0.0
  0
VERTEX
  5
2E2
100
AcDbEntity
  8
0
100
AcDbVertex
100
AcDb2dVertex
 10
614.799011
 20
349.729797
 30
0.0
  0
VERTEX
  5
2E3
100
AcDbEntity
  8
0
100
AcDbVertex
100
AcDb2dVertex
 10
614.935181
 20
349.402008
 30
0.0
  0
SEQEND
  5
2E4
100
AcDbEntity
  8
0
  0
POLYLINE
  5
2E5
100
AcDbEntity
  8
0
 62
     7
100
AcDb2dPolyline
 66
     1
 10
0.0
 20
0.0
 30
0.0
 70
     1
 71
     4
  0
VERTEX
  5
2E6
100
AcDbEntity
  8
0
100
AcDbVertex
100
AcDb2dVertex
 10
616.92218
 20
347.596527
 30
0.0
  0
VERTEX
  5
2E7
100
AcDbEntity
  8
0
100
AcDbVertex
100
AcDb2dVertex
 10
617.618164
 20
347.596527
 30
0.0
  0
VERTEX
  5
2E8
100
AcDbEntity
  8
0
100
AcDbVertex
100
AcDb2dVertex
 10
617.618164
 20
348.347961
 30
0.0
  0
VERTEX
  5
2E9
100
AcDbEntity
  8
0
100
AcDbVertex
100
AcDb2dVertex
 10
616.92218
 20
348.347961
 30
0.0
  0
SEQEND
  5
2EA
100
AcDbEntity
  8
0
  0
POLYLINE
  5
2EB
100
AcDbEntity
  8
0
 62
     7
100
AcDb2dPolyline
 66
     1
 10
0.0
 20
0.0
 30
0.0
 70
     1
 71
     4
  0
VERTEX
  5
2EC
100
AcDbEntity
  8
0
100
AcDbVertex
100
AcDb2dVertex
 10
616.92218
 20
349.553314
 30
0.0
  0
VERTEX
  5
2ED
100
AcDbEntity
  8
0
100
AcDbVertex
100
AcDb2dVertex
 10
617.618164
 20
349.553314
 30
0.0
  0
VERTEX
  5
2EE
100
AcDbEntity
  8
0
100
AcDbVertex
100
AcDb2dVertex
 10
617.618164
 20
350.304749
 30
0.0
  0
VERTEX
  5
2EF
100
AcDbEntity
  8
0
100
AcDbVertex
100
AcDb2dVertex
 10
616.92218
 20
350.304749
 30
0.0
  0
SEQEND
  5
2F0
100
AcDbEntity
  8
0
  0
POLYLINE
  5
2F1
100
AcDbEntity
  8
0
 62
     7
100
AcDb2dPolyline
 66
     1
 10
0.0
 20
0.0
 30
0.0
 70
     1
 71
    10
  0
VERTEX
  5
2F2
100
AcDbEntity
  8
0
100
AcDbVertex
100
AcDb2dVertex
 10
626.287476
 20
347.596527
 30
0.0
  0
VERTEX
  5
2F3
100
AcDbEntity
  8
0
100
AcDbVertex
100
AcDb2dVertex
 10
626.746399
 20
347.596527
 30
0.0
  0
VERTEX
  5
2F4
100
AcDbEntity
  8
0
100
AcDbVertex
100
AcDb2dVertex
 10
626.746399
 20
351.121735
 30
0.0
  0
VERTEX
  5
2F5
100
AcDbEntity
  8
0
100
AcDbVertex
100
AcDb2dVertex
 10
626.403442
 20
351.121735
 30
0.0
  0
VERTEX
  5
2F6
100
AcDbEntity
  8
0
100
AcDbVertex
100
AcDb2dVertex
 10
626.312683
 20
350.814117
 30
0.0
  0
VERTEX
  5
2F7
100
AcDbEntity
  8
0
100
AcDbVertex
100
AcDb2dVertex
 10
626.131104
 20
350.60733
 30
0.0
  0
VERTEX
  5
2F8
100
AcDbEntity
  8
0
100
AcDbVertex
100
AcDb2dVertex
 10
625.85376
 20
350.486298
 30
0.0
  0
VERTEX
  5
2F9
100
AcDbEntity
  8
0
100
AcDbVertex
100
AcDb2dVertex
 10
625.470459
 20
350.445953
 30
0.0
  0
VERTEX
  5
2FA
100
AcDbEntity
  8
0
100
AcDbVertex
100
AcDb2dVertex
 10
625.470459
 20
350.087891
 30
0.0
  0
VERTEX
  5
2FB
100
AcDbEntity
  8
0
100
AcDbVertex
100
AcDb2dVertex
 10
626.287476
 20
350.087891
 30
0.0
  0
SEQEND
  5
2FC
100
AcDbEntity
  8
0
  0
POLYLINE
  5
2FD
100
AcDbEntity
  8
0
 62
     7
100
AcDb2dPolyline
 66
     1
 10
0.0
 20
0.0
 30
0.0
 70
     1
 71
     4
  0
VERTEX
  5
2FE
100
AcDbEntity
  8
0
100
AcDbVertex
100
AcDb2dVertex
 10
629.066284
 20
347.596527
 30
0.0
  0
VERTEX
  5
2FF
100
AcDbEntity
  8
0
100
AcDbVertex
100
AcDb2dVertex
 10
629.762268
 20
347.596527
 30
0.0
  0
VERTEX
  5
300
100
AcDbEntity
  8
0
100
AcDbVertex
100
AcDb2dVertex
 10
629.762268
 20
348.347961
 30
0.0
  0
VERTEX
  5
301
100
AcDbEntity
  8
0
100
AcDbVertex
100
AcDb2dVertex
 10
629.066284
 20
348.347961
 30
0.0
  0
SEQEND
  5
302
100
AcDbEntity
  8
0
  0
POLYLINE
  5
303
100
AcDbEntity
  8
0
 62
     7
100
AcDb2dPolyline
 66
     1
 10
0.0
 20
0.0
 30
0.0
 70
     1
 71
     4
  0
VERTEX
  5
304
100
AcDbEntity
  8
0
100
AcDbVertex
100
AcDb2dVertex
 10
629.066284
 20
349.553314
 30
0.0
  0
VERTEX
  5
305
100
AcDbEntity
  8
0
100
AcDbVertex
100
AcDb2dVertex
 10
629.762268
 20
349.553314
 30
0.0
  0
VERTEX
  5
306
100
AcDbEntity
  8
0
100
AcDbVertex
100
AcDb2dVertex
 10
629.762268
 20
350.304749
 30
0.0
  0
VERTEX
  5
307
100
AcDbEntity
  8
0
100
AcDbVertex
100
AcDb2dVertex
 10
629.066284
 20
350.304749
 30
0.0
  0
SEQEND
  5
308
100
AcDbEntity
  8
0
  0
POLYLINE
  5
309
100
AcDbEntity
  8
0
 62
     7
100
AcDb2dPolyline
 66
     1
 10
0.0
 20
0.0
 30
0.0
 70
     1
 71
    10
  0
VERTEX
  5
30A
100
AcDbEntity
  8
0
100
AcDbVertex
100
AcDb2dVertex
 10
632.359497
 20
347.596527
 30
0.0
  0
VERTEX
  5
30B
100
AcDbEntity
  8
0
100
AcDbVertex
100
AcDb2dVertex
 10
632.81842
 20
347.596527
 30
0.0
  0
VERTEX
  5
30C
100
AcDbEntity
  8
0
100
AcDbVertex
100
AcDb2dVertex
 10
632.81842
 20
351.121735
 30
0.0
  0
VERTEX
  5
30D
100
AcDbEntity
  8
0
100
AcDbVertex
100
AcDb2dVertex
 10
632.475525
 20
351.121735
 30
0.0
  0
VERTEX
  5
30E
100
AcDbEntity
  8
0
100
AcDbVertex
100
AcDb2dVertex
 10
632.384705
 20
350.814117
 30
0.0
  0
VERTEX
  5
30F
100
AcDbEntity
  8
0
100
AcDbVertex
100
AcDb2dVertex
 10
632.203186
 20
350.60733
 30
0.0
  0
VERTEX
  5
310
100
AcDbEntity
  8
0
100
AcDbVertex
100
AcDb2dVertex
 10
631.925781
 20
350.486298
 30
0.0
  0
VERTEX
  5
311
100
AcDbEntity
  8
0
100
AcDbVertex
100
AcDb2dVertex
 10
631.54248
 20
350.445953
 30
0.0
  0
VERTEX
  5
312
100
AcDbEntity
  8
0
100
AcDbVertex
100
AcDb2dVertex
 10
631.54248
 20
350.087891
 30
0.0
  0
VERTEX
  5
313
100
AcDbEntity
  8
0
100
AcDbVertex
100
AcDb2dVertex
 10
632.359497
 20
350.087891
 30
0.0
  0
SEQEND
  5
314
100
AcDbEntity
  8
0
  0
POLYLINE
  5
315
100
AcDbEntity
  8
0
 62
     7
100
AcDb2dPolyline
 66
     1
 10
0.0
 20
0.0
 30
0.0
 71
    15
  0
VERTEX
  5
316
100
AcDbEntity
  8
0
100
AcDbVertex
100
AcDb2dVertex
 10
577.0
 20
413.5
 30
0.0
  0
VERTEX
  5
317
100
AcDbEntity
  8
0
100
AcDbVertex
100
AcDb2dVertex
 10
576.954163
 20
415.027466
 30
0.0
  0
VERTEX
  5
318
100
AcDbEntity
  8
0
100
AcDbVertex
100
AcDb2dVertex
 10
576.903137
 20
415.574402
 30
0.0
  0
VERTEX
  5
319
100
AcDbEntity
  8
0
100
AcDbVertex
100
AcDb2dVertex
 10
576.822815
 20
416.09964
 30
0.0
  0
VERTEX
  5
31A
100
AcDbEntity
  8
0
100
AcDbVertex
100
AcDb2dVertex
 10
576.731628
 20
416.493835
 30
0.0
  0
VERTEX
  5
31B
100
AcDbEntity
  8
0
100
AcDbVertex
100
AcDb2dVertex
 10
576.609131
 20
416.862396
 30
0.0
  0
VERTEX
  5
31C
100
AcDbEntity
  8
0
100
AcDbVertex
100
AcDb2dVertex
 10
576.475403
 20
417.150146
 30
0.0
  0
VERTEX
  5
31D
100
AcDbEntity
  8
0
100
AcDbVertex
100
AcDb2dVertex
 10
576.310547
 20
417.409698
 30
0.0
  0
VERTEX
  5
31E
100
AcDbEntity
  8
0
100
AcDbVertex
100
AcDb2dVertex
 10
575.919678
 20
417.803131
 30
0.0
  0
VERTEX
  5
31F
100
AcDbEntity
  8
0
100
AcDbVertex
100
AcDb2dVertex
 10
575.422791
 20
418.084412
 30
0.0
  0
VERTEX
  5
320
100
AcDbEntity
  8
0
100
AcDbVertex
100
AcDb2dVertex
 10
574.797607
 20
418.281128
 30
0.0
  0
VERTEX
  5
321
100
AcDbEntity
  8
0
100
AcDbVertex
100
AcDb2dVertex
 10
574.228516
 20
418.383331
 30
0.0
  0
VERTEX
  5
322
100
AcDbEntity
  8
0
100
AcDbVertex
100
AcDb2dVertex
 10
573.629578
 20
418.446564
 30
0.0
  0
VERTEX
  5
323
100
AcDbEntity
  8
0
100
AcDbVertex
100
AcDb2dVertex
 10
573.011353
 20
418.482056
 30
0.0
  0
VERTEX
  5
324
100
AcDbEntity
  8
0
100
AcDbVertex
100
AcDb2dVertex
 10
572.0
 20
418.5
 30
0.0
  0
SEQEND
  5
325
100
AcDbEntity
  8
0
  0
LINE
  5
326
100
AcDbEntity
  8
0
 62
     7
 48
0.1375
100
AcDbLine
 10
577.0
 20
413.5
 30
0.0
 11
577.0
 21
408.0
 31
0.0
210
0.0
220
0.0
230
1.0
  0
POLYLINE
  5
327
100
AcDbEntity
  8
0
 62
     7
100
AcDb2dPolyline
 66
     1
 10
0.0
 20
0.0
 30
0.0
 71
    12
  0
VERTEX
  5
328
100
AcDbEntity
  8
0
100
AcDbVertex
100
AcDb2dVertex
 10
582.0
 20
403.0
 30
0.0
  0
VERTEX
  5
329
100
AcDbEntity
  8
0
100
AcDbVertex
100
AcDb2dVertex
 10
581.079956
 20
403.046722
 30
0.0
  0
VERTEX
  5
32A
100
AcDbEntity
  8
0
100
AcDbVertex
100
AcDb2dVertex
 10
580.192139
 20
403.201965
 30
0.0
  0
VERTEX
  5
32B
100
AcDbEntity
  8
0
100
AcDbVertex
100
AcDb2dVertex
 10
579.76825
 20
403.327484
 30
0.0
  0
VERTEX
  5
32C
100
AcDbEntity
  8
0
100
AcDbVertex
100
AcDb2dVertex
 10
579.362915
 20
403.488464
 30
0.0
  0
VERTEX
  5
32D
100
AcDbEntity
  8
0
100
AcDbVertex
100
AcDb2dVertex
 10
578.718323
 20
403.856018
 30
0.0
  0
VERTEX
  5
32E
100
AcDbEntity
  8
0
100
AcDbVertex
100
AcDb2dVertex
 10
578.164978
 20
404.338013
 30
0.0
  0
VERTEX
  5
32F
100
AcDbEntity
  8
0
100
AcDbVertex
100
AcDb2dVertex
 10
577.72113
 20
404.923401
 30
0.0
  0
VERTEX
  5
330
100
AcDbEntity
  8
0
100
AcDbVertex
100
AcDb2dVertex
 10
577.391907
 20
405.592316
 30
0.0
  0
VERTEX
  5
331
100
AcDbEntity
  8
0
100
AcDbVertex
100
AcDb2dVertex
 10
577.171082
 20
406.321198
 30
0.0
  0
VERTEX
  5
332
100
AcDbEntity
  8
0
100
AcDbVertex
100
AcDb2dVertex
 10
577.039856
 20
407.147003
 30
0.0
  0
VERTEX
  5
333
100
AcDbEntity
  8
0
100
AcDbVertex
100
AcDb2dVertex
 10
577.0
 20
408.0
 30
0.0
  0
SEQEND
  5
334
100
AcDbEntity
  8
0
  0
LINE
  5
335
100
AcDbEntity
  8
0
 62
     7
 48
0.1375
100
AcDbLine
 10
587.5
 20
403.0
 30
0.0
 11
582.0
 21
403.0
 31
0.0
210
0.0
220
0.0
230
1.0
  0
POLYLINE
  5
336
100
AcDbEntity
  8
0
 62
     7
100
AcDb2dPolyline
 66
     1
 10
0.0
 20
0.0
 30
0.0
 71
    15
  0
VERTEX
  5
337
100
AcDbEntity
  8
0
100
AcDbVertex
100
AcDb2dVertex
 10
592.5
 20
398.0
 30
0.0
  0
VERTEX
  5
338
100
AcDbEntity
  8
0
100
AcDbVertex
100
AcDb2dVertex
 10
592.454163
 20
399.527466
 30
0.0
  0
VERTEX
  5
339
100
AcDbEntity
  8
0
100
AcDbVertex
100
AcDb2dVertex
 10
592.403137
 20
400.074402
 30
0.0
  0
VERTEX
  5
33A
100
AcDbEntity
  8
0
100
AcDbVertex
100
AcDb2dVertex
 10
592.322815
 20
400.59964
 30
0.0
  0
VERTEX
  5
33B
100
AcDbEntity
  8
0
100
AcDbVertex
100
AcDb2dVertex
 10
592.231628
 20
400.993835
 30
0.0
  0
VERTEX
  5
33C
100
AcDbEntity
  8
0
100
AcDbVertex
100
AcDb2dVertex
 10
592.109131
 20
401.362396
 30
0.0
  0
VERTEX
  5
33D
100
AcDbEntity
  8
0
100
AcDbVertex
100
AcDb2dVertex
 10
591.975403
 20
401.650146
 30
0.0
  0
VERTEX
  5
33E
100
AcDbEntity
  8
0
100
AcDbVertex
100
AcDb2dVertex
 10
591.810547
 20
401.909698
 30
0.0
  0
VERTEX
  5
33F
100
AcDbEntity
  8
0
100
AcDbVertex
100
AcDb2dVertex
 10
591.419678
 20
402.303131
 30
0.0
  0
VERTEX
  5
340
100
AcDbEntity
  8
0
100
AcDbVertex
100
AcDb2dVertex
 10
590.922791
 20
402.584412
 30
0.0
  0
VERTEX
  5
341
100
AcDbEntity
  8
0
100
AcDbVertex
100
AcDb2dVertex
 10
590.297607
 20
402.781128
 30
0.0
  0
VERTEX
  5
342
100
AcDbEntity
  8
0
100
AcDbVertex
100
AcDb2dVertex
 10
589.728516
 20
402.883362
 30
0.0
  0
VERTEX
  5
343
100
AcDbEntity
  8
0
100
AcDbVertex
100
AcDb2dVertex
 10
589.129578
 20
402.946564
 30
0.0
  0
VERTEX
  5
344
100
AcDbEntity
  8
0
100
AcDbVertex
100
AcDb2dVertex
 10
588.511353
 20
402.982056
 30
0.0
  0
VERTEX
  5
345
100
AcDbEntity
  8
0
100
AcDbVertex
100
AcDb2dVertex
 10
587.5
 20
403.0
 30
0.0
  0
SEQEND
  5
346
100
AcDbEntity
  8
0
  0
POLYLINE
  5
347
100
AcDbEntity
  8
0
 62
     7
100
AcDb2dPolyline
 66
     1
 10
0.0
 20
0.0
 30
0.0
 71
    15
  0
VERTEX
  5
348
100
AcDbEntity
  8
0
100
AcDbVertex
100
AcDb2dVertex
 10
601.5
 20
403.0
 30
0.0
  0
VERTEX
  5
349
100
AcDbEntity
  8
0
100
AcDbVertex
100
AcDb2dVertex
 10
599.972534
 20
402.954163
 30
0.0
  0
VERTEX
  5
34A
100
AcDbEntity
  8
0
100
AcDbVertex
100
AcDb2dVertex
 10
599.425598
 20
402.903107
 30
0.0
  0
VERTEX
  5
34B
100
AcDbEntity
  8
0
100
AcDbVertex
100
AcDb2dVertex
 10
598.900391
 20
402.822784
 30
0.0
  0
VERTEX
  5
34C
100
AcDbEntity
  8
0
100
AcDbVertex
100
AcDb2dVertex
 10
598.506165
 20
402.731628
 30
0.0
  0
VERTEX
  5
34D
100
AcDbEntity
  8
0
100
AcDbVertex
100
AcDb2dVertex
 10
598.137573
 20
402.609161
 30
0.0
  0
VERTEX
  5
34E
100
AcDbEntity
  8
0
100
AcDbVertex
100
AcDb2dVertex
 10
597.849854
 20
402.475433
 30
0.0
  0
VERTEX
  5
34F
100
AcDbEntity
  8
0
100
AcDbVertex
100
AcDb2dVertex
 10
597.590332
 20
402.310577
 30
0.0
  0
VERTEX
  5
350
100
AcDbEntity
  8
0
100
AcDbVertex
100
AcDb2dVertex
 10
597.196838
 20
401.919647
 30
0.0
  0
VERTEX
  5
351
100
AcDbEntity
  8
0
100
AcDbVertex
100
AcDb2dVertex
 10
596.915588
 20
401.422791
 30
0.0
  0
VERTEX
  5
352
100
AcDbEntity
  8
0
100
AcDbVertex
100
AcDb2dVertex
 10
596.718872
 20
400.797577
 30
0.0
  0
VERTEX
  5
353
100
AcDbEntity
  8
0
100
AcDbVertex
100
AcDb2dVertex
 10
596.616638
 20
400.228516
 30
0.0
  0
VERTEX
  5
354
100
AcDbEntity
  8
0
100
AcDbVertex
100
AcDb2dVertex
 10
596.553406
 20
399.629547
 30
0.0
  0
VERTEX
  5
355
100
AcDbEntity
  8
0
100
AcDbVertex
100
AcDb2dVertex
 10
596.517944
 20
399.011322
 30
0.0
  0
VERTEX
  5
356
100
AcDbEntity
  8
0
100
AcDbVertex
100
AcDb2dVertex
 10
596.5
 20
398.0
 30
0.0
  0
SEQEND
  5
357
100
AcDbEntity
  8
0
  0
LINE
  5
358
100
AcDbEntity
  8
0
 62
     7
 48
0.1375
100
AcDbLine
 10
607.0
 20
403.0
 30
0.0
 11
601.5
 21
403.0
 31
0.0
210
0.0
220
0.0
230
1.0
  0
ARC
  5
359
100
AcDbEntity
  8
0
 62
     7
100
AcDbCircle
 10
607.0
 20
408.0
 30
0.0
 40
5.0
210
0.0
220
0.0
230
1.0
100
AcDbArc
 50
269.999997
 51
360.0
  0
LINE
  5
35A
100
AcDbEntity
  8
0
 62
     7
 48
0.1375
100
AcDbLine
 10
612.0
 20
408.0
 30
0.0
 11
612.0
 21
413.5
 31
0.0
210
0.0
220
0.0
230
1.0
  0
POLYLINE
  5
35B
100
AcDbEntity
  8
0
 62
     7
100
AcDb2dPolyline
 66
     1
 10
0.0
 20
0.0
 30
0.0
 71
    15
  0
VERTEX
  5
35C
100
AcDbEntity
  8
0
100
AcDbVertex
100
AcDb2dVertex
 10
617.0
 20
418.5
 30
0.0
  0
VERTEX
  5
35D
100
AcDbEntity
  8
0
100
AcDbVertex
100
AcDb2dVertex
 10
615.472534
 20
418.454163
 30
0.0
  0
VERTEX
  5
35E
100
AcDbEntity
  8
0
100
AcDbVertex
100
AcDb2dVertex
 10
614.925598
 20
418.403107
 30
0.0
  0
VERTEX
  5
35F
100
AcDbEntity
  8
0
100
AcDbVertex
100
AcDb2dVertex
 10
614.400391
 20
418.322784
 30
0.0
  0
VERTEX
  5
360
100
AcDbEntity
  8
0
100
AcDbVertex
100
AcDb2dVertex
 10
614.006165
 20
418.231628
 30
0.0
  0
VERTEX
  5
361
100
AcDbEntity
  8
0
100
AcDbVertex
100
AcDb2dVertex
 10
613.637573
 20
418.109161
 30
0.0
  0
VERTEX
  5
362
100
AcDbEntity
  8
0
100
AcDbVertex
100
AcDb2dVertex
 10
613.349854
 20
417.975433
 30
0.0
  0
VERTEX
  5
363
100
AcDbEntity
  8
0
100
AcDbVertex
100
AcDb2dVertex
 10
613.090332
 20
417.810577
 30
0.0
  0
VERTEX
  5
364
100
AcDbEntity
  8
0
100
AcDbVertex
100
AcDb2dVertex
 10
612.696838
 20
417.419647
 30
0.0
  0
VERTEX
  5
365
100
AcDbEntity
  8
0
100
AcDbVertex
100
AcDb2dVertex
 10
612.415588
 20
416.922791
 30
0.0
  0
VERTEX
  5
366
100
AcDbEntity
  8
0
100
AcDbVertex
100
AcDb2dVertex
 10
612.218872
 20
416.297577
 30
0.0
  0
VERTEX
  5
367
100
AcDbEntity
  8
0
100
AcDbVertex
100
AcDb2dVertex
 10
612.116638
 20
415.728516
 30
0.0
  0
VERTEX
  5
368
100
AcDbEntity
  8
0
100
AcDbVertex
100
AcDb2dVertex
 10
612.053406
 20
415.129547
 30
0.0
  0
VERTEX
  5
369
100
AcDbEntity
  8
0
100
AcDbVertex
100
AcDb2dVertex
 10
612.017944
 20
414.511322
 30
0.0
  0
VERTEX
  5
36A
100
AcDbEntity
  8
0
100
AcDbVertex
100
AcDb2dVertex
 10
612.0
 20
413.5
 30
0.0
  0
SEQEND
  5
36B
100
AcDbEntity
  8
0
  0
POLYLINE
  5
36C
100
AcDbEntity
  8
0
 62
     7
100
AcDb2dPolyline
 66
     1
 10
0.0
 20
0.0
 30
0.0
 71
    15
  0
VERTEX
  5
36D
100
AcDbEntity
  8
0
100
AcDbVertex
100
AcDb2dVertex
 10
596.5
 20
443.0
 30
0.0
  0
VERTEX
  5
36E
100
AcDbEntity
  8
0
100
AcDbVertex
100
AcDb2dVertex
 10
596.545837
 20
441.472534
 30
0.0
  0
VERTEX
  5
36F
100
AcDbEntity
  8
0
100
AcDbVertex
100
AcDb2dVertex
 10
596.596863
 20
440.925598
 30
0.0
  0
VERTEX
  5
370
100
AcDbEntity
  8
0
100
AcDbVertex
100
AcDb2dVertex
 10
596.677185
 20
440.40036
 30
0.0
  0
VERTEX
  5
371
100
AcDbEntity
  8
0
100
AcDbVertex
100
AcDb2dVertex
 10
596.768372
 20
440.006165
 30
0.0
  0
VERTEX
  5
372
100
AcDbEntity
  8
0
100
AcDbVertex
100
AcDb2dVertex
 10
596.890869
 20
439.637604
 30
0.0
  0
VERTEX
  5
373
100
AcDbEntity
  8
0
100
AcDbVertex
100
AcDb2dVertex
 10
597.024597
 20
439.349854
 30
0.0
  0
VERTEX
  5
374
100
AcDbEntity
  8
0
100
AcDbVertex
100
AcDb2dVertex
 10
597.189453
 20
439.090302
 30
0.0
  0
VERTEX
  5
375
100
AcDbEntity
  8
0
100
AcDbVertex
100
AcDb2dVertex
 10
597.580322
 20
438.696869
 30
0.0
  0
VERTEX
  5
376
100
AcDbEntity
  8
0
100
AcDbVertex
100
AcDb2dVertex
 10
598.077209
 20
438.415588
 30
0.0
  0
VERTEX
  5
377
100
AcDbEntity
  8
0
100
AcDbVertex
100
AcDb2dVertex
 10
598.702393
 20
438.218872
 30
0.0
  0
VERTEX
  5
378
100
AcDbEntity
  8
0
100
AcDbVertex
100
AcDb2dVertex
 10
599.271484
 20
438.116638
 30
0.0
  0
VERTEX
  5
379
100
AcDbEntity
  8
0
100
AcDbVertex
100
AcDb2dVertex
 10
599.870422
 20
438.053436
 30
0.0
  0
VERTEX
  5
37A
100
AcDbEntity
  8
0
100
AcDbVertex
100
AcDb2dVertex
 10
600.488647
 20
438.017944
 30
0.0
  0
VERTEX
  5
37B
100
AcDbEntity
  8
0
100
AcDbVertex
100
AcDb2dVertex
 10
601.5
 20
438.0
 30
0.0
  0
SEQEND
  5
37C
100
AcDbEntity
  8
0
  0
POLYLINE
  5
37D
100
AcDbEntity
  8
0
 62
     7
100
AcDb2dPolyline
 66
     1
 10
0.0
 20
0.0
 30
0.0
 71
    12
  0
VERTEX
  5
37E
100
AcDbEntity
  8
0
100
AcDbVertex
100
AcDb2dVertex
 10
577.0
 20
433.0
 30
0.0
  0
VERTEX
  5
37F
100
AcDbEntity
  8
0
100
AcDbVertex
100
AcDb2dVertex
 10
577.046753
 20
433.920044
 30
0.0
  0
VERTEX
  5
380
100
AcDbEntity
  8
0
100
AcDbVertex
100
AcDb2dVertex
 10
577.201965
 20
434.807831
 30
0.0
  0
VERTEX
  5
381
100
AcDbEntity
  8
0
100
AcDbVertex
100
AcDb2dVertex
 10
577.327454
 20
435.23172
 30
0.0
  0
VERTEX
  5
382
100
AcDbEntity
  8
0
100
AcDbVertex
100
AcDb2dVertex
 10
577.488464
 20
435.637085
 30
0.0
  0
VERTEX
  5
383
100
AcDbEntity
  8
0
100
AcDbVertex
100
AcDb2dVertex
 10
577.856018
 20
436.281677
 30
0.0
  0
VERTEX
  5
384
100
AcDbEntity
  8
0
100
AcDbVertex
100
AcDb2dVertex
 10
578.338013
 20
436.835022
 30
0.0
  0
VERTEX
  5
385
100
AcDbEntity
  8
0
100
AcDbVertex
100
AcDb2dVertex
 10
578.923401
 20
437.27887
 30
0.0
  0
VERTEX
  5
386
100
AcDbEntity
  8
0
100
AcDbVertex
100
AcDb2dVertex
 10
579.592346
 20
437.608124
 30
0.0
  0
VERTEX
  5
387
100
AcDbEntity
  8
0
100
AcDbVertex
100
AcDb2dVertex
 10
580.321228
 20
437.828888
 30
0.0
  0
VERTEX
  5
388
100
AcDbEntity
  8
0
100
AcDbVertex
100
AcDb2dVertex
 10
581.146973
 20
437.960144
 30
0.0
  0
VERTEX
  5
389
100
AcDbEntity
  8
0
100
AcDbVertex
100
AcDb2dVertex
 10
582.0
 20
438.0
 30
0.0
  0
SEQEND
  5
38A
100
AcDbEntity
  8
0
  0
LINE
  5
38B
100
AcDbEntity
  8
0
 62
     7
 48
0.1375
100
AcDbLine
 10
577.0
 20
433.0
 30
0.0
 11
577.0
 21
427.5
 31
0.0
210
0.0
220
0.0
230
1.0
  0
POLYLINE
  5
38C
100
AcDbEntity
  8
0
 62
     7
100
AcDb2dPolyline
 66
     1
 10
0.0
 20
0.0
 30
0.0
 71
    15
  0
VERTEX
  5
38D
100
AcDbEntity
  8
0
100
AcDbVertex
100
AcDb2dVertex
 10
572.0
 20
422.5
 30
0.0
  0
VERTEX
  5
38E
100
AcDbEntity
  8
0
100
AcDbVertex
100
AcDb2dVertex
 10
573.527466
 20
422.545837
 30
0.0
  0
VERTEX
  5
38F
100
AcDbEntity
  8
0
100
AcDbVertex
100
AcDb2dVertex
 10
574.074402
 20
422.596893
 30
0.0
  0
VERTEX
  5
390
100
AcDbEntity
  8
0
100
AcDbVertex
100
AcDb2dVertex
 10
574.599609
 20
422.677216
 30
0.0
  0
VERTEX
  5
391
100
AcDbEntity
  8
0
100
AcDbVertex
100
AcDb2dVertex
 10
574.993835
 20
422.768372
 30
0.0
  0
VERTEX
  5
392
100
AcDbEntity
  8
0
100
AcDbVertex
100
AcDb2dVertex
 10
575.362427
 20
422.890839
 30
0.0
  0
VERTEX
  5
393
100
AcDbEntity
  8
0
100
AcDbVertex
100
AcDb2dVertex
 10
575.650146
 20
423.024567
 30
0.0
  0
VERTEX
  5
394
100
AcDbEntity
  8
0
100
AcDbVertex
100
AcDb2dVertex
 10
575.909668
 20
423.189423
 30
0.0
  0
VERTEX
  5
395
100
AcDbEntity
  8
0
100
AcDbVertex
100
AcDb2dVertex
 10
576.303162
 20
423.580353
 30
0.0
  0
VERTEX
  5
396
100
AcDbEntity
  8
0
100
AcDbVertex
100
AcDb2dVertex
 10
576.584412
 20
424.077209
 30
0.0
  0
VERTEX
  5
397
100
AcDbEntity
  8
0
100
AcDbVertex
100
AcDb2dVertex
 10
576.781128
 20
424.702423
 30
0.0
  0
VERTEX
  5
398
100
AcDbEntity
  8
0
100
AcDbVertex
100
AcDb2dVertex
 10
576.883362
 20
425.271484
 30
0.0
  0
VERTEX
  5
399
100
AcDbEntity
  8
0
100
AcDbVertex
100
AcDb2dVertex
 10
576.946594
 20
425.870453
 30
0.0
  0
VERTEX
  5
39A
100
AcDbEntity
  8
0
100
AcDbVertex
100
AcDb2dVertex
 10
576.982056
 20
426.488678
 30
0.0
  0
VERTEX
  5
39B
100
AcDbEntity
  8
0
100
AcDbVertex
100
AcDb2dVertex
 10
577.0
 20
427.5
 30
0.0
  0
SEQEND
  5
39C
100
AcDbEntity
  8
0
  0
CIRCLE
  5
39D
100
AcDbEntity
  8
0
 62
     7
100
AcDbCircle
 10
644.5
 20
420.5
 30
0.0
 40
3.0
210
0.0
220
0.0
230
1.0
  0
CIRCLE
  5
39E
100
AcDbEntity
  8
0
 62
     7
100
AcDbCircle
 10
594.5
 20
470.5
 30
0.0
 40
3.0
210
0.0
220
0.0
230
1.0
  0
CIRCLE
  5
39F
100
AcDbEntity
  8
0
 62
     7
100
AcDbCircle
 10
594.5
 20
370.5
 30
0.0
 40
3.0
210
0.0
220
0.0
230
1.0
  0
CIRCLE
  5
3A0
100
AcDbEntity
  8
0
 62
     7
100
AcDbCircle
 10
544.5
 20
420.5
 30
0.0
 40
3.0
210
0.0
220
0.0
230
1.0
  0
LINE
  5
3A1
100
AcDbEntity
  8
0
 62
     7
100
AcDbLine
 10
572.0
 20
418.5
 30
0.0
 11
551.641418
 21
418.5
 31
0.0
210
0.0
220
0.0
230
1.0
  0
ARC
  5
3A2
100
AcDbEntity
  8
0
 62
     7
100
AcDbCircle
 10
544.5
 20
420.5
 30
0.0
 40
5.0
210
0.0
220
0.0
230
1.0
100
AcDbArc
 50
44.427003
 51
315.572997
  0
POLYLINE
  5
3A3
100
AcDbEntity
  8
0
 62
     7
100
AcDb2dPolyline
 66
     1
 10
0.0
 20
0.0
 30
0.0
 71
     8
  0
VERTEX
  5
3A4
100
AcDbEntity
  8
0
100
AcDbVertex
100
AcDb2dVertex
 10
551.641418
 20
418.5
 30
0.0
  0
VERTEX
  5
3A5
100
AcDbEntity
  8
0
100
AcDbVertex
100
AcDb2dVertex
 10
551.166382
 20
418.480133
 30
0.0
  0
VERTEX
  5
3A6
100
AcDbEntity
  8
0
100
AcDbVertex
100
AcDb2dVertex
 10
550.703003
 20
418.419678
 30
0.0
  0
VERTEX
  5
3A7
100
AcDbEntity
  8
0
100
AcDbVertex
100
AcDb2dVertex
 10
550.106628
 20
418.274261
 30
0.0
  0
VERTEX
  5
3A8
100
AcDbEntity
  8
0
100
AcDbVertex
100
AcDb2dVertex
 10
549.538513
 20
418.054169
 30
0.0
  0
VERTEX
  5
3A9
100
AcDbEntity
  8
0
100
AcDbVertex
100
AcDb2dVertex
 10
549.00238
 20
417.760406
 30
0.0
  0
VERTEX
  5
3AA
100
AcDbEntity
  8
0
100
AcDbVertex
100
AcDb2dVertex
 10
548.51947
 20
417.410919
 30
0.0
  0
VERTEX
  5
3AB
100
AcDbEntity
  8
0
100
AcDbVertex
100
AcDb2dVertex
 10
548.07074
 20
417.0
 30
0.0
  0
SEQEND
  5
3AC
100
AcDbEntity
  8
0
  0
LINE
  5
3AD
100
AcDbEntity
  8
0
 62
     7
100
AcDbLine
 10
551.641418
 20
422.5
 30
0.0
 11
572.0
 21
422.5
 31
0.0
210
0.0
220
0.0
230
1.0
  0
POLYLINE
  5
3AE
100
AcDbEntity
  8
0
 62
     7
100
AcDb2dPolyline
 66
     1
 10
0.0
 20
0.0
 30
0.0
 71
     8
  0
VERTEX
  5
3AF
100
AcDbEntity
  8
0
100
AcDbVertex
100
AcDb2dVertex
 10
548.07074
 20
424.0
 30
0.0
  0
VERTEX
  5
3B0
100
AcDbEntity
  8
0
100
AcDbVertex
100
AcDb2dVertex
 10
548.417419
 20
423.674652
 30
0.0
  0
VERTEX
  5
3B1
100
AcDbEntity
  8
0
100
AcDbVertex
100
AcDb2dVertex
 10
548.784973
 20
423.386078
 30
0.0
  0
VERTEX
  5
3B2
100
AcDbEntity
  8
0
100
AcDbVertex
100
AcDb2dVertex
 10
549.306274
 20
423.061951
 30
0.0
  0
VERTEX
  5
3B3
100
AcDbEntity
  8
0
100
AcDbVertex
100
AcDb2dVertex
 10
549.861145
 20
422.810303
 30
0.0
  0
VERTEX
  5
3B4
100
AcDbEntity
  8
0
100
AcDbVertex
100
AcDb2dVertex
 10
550.446228
 20
422.633057
 30
0.0
  0
VERTEX
  5
3B5
100
AcDbEntity
  8
0
100
AcDbVertex
100
AcDb2dVertex
 10
551.033875
 20
422.532806
 30
0.0
  0
VERTEX
  5
3B6
100
AcDbEntity
  8
0
100
AcDbVertex
100
AcDb2dVertex
 10
551.641418
 20
422.5
 30
0.0
  0
SEQEND
  5
3B7
100
AcDbEntity
  8
0
  0
POLYLINE
  5
3B8
100
AcDbEntity
  8
0
 62
     7
100
AcDb2dPolyline
 66
     1
 10
0.0
 20
0.0
 30
0.0
 71
    15
  0
VERTEX
  5
3B9
100
AcDbEntity
  8
0
100
AcDbVertex
100
AcDb2dVertex
 10
612.0
 20
427.5
 30
0.0
  0
VERTEX
  5
3BA
100
AcDbEntity
  8
0
100
AcDbVertex
100
AcDb2dVertex
 10
612.045837
 20
425.972534
 30
0.0
  0
VERTEX
  5
3BB
100
AcDbEntity
  8
0
100
AcDbVertex
100
AcDb2dVertex
 10
612.096863
 20
425.425598
 30
0.0
  0
VERTEX
  5
3BC
100
AcDbEntity
  8
0
100
AcDbVertex
100
AcDb2dVertex
 10
612.177185
 20
424.90036
 30
0.0
  0
VERTEX
  5
3BD
100
AcDbEntity
  8
0
100
AcDbVertex
100
AcDb2dVertex
 10
612.268372
 20
424.506165
 30
0.0
  0
VERTEX
  5
3BE
100
AcDbEntity
  8
0
100
AcDbVertex
100
AcDb2dVertex
 10
612.390869
 20
424.137604
 30
0.0
  0
VERTEX
  5
3BF
100
AcDbEntity
  8
0
100
AcDbVertex
100
AcDb2dVertex
 10
612.524597
 20
423.849854
 30
0.0
  0
VERTEX
  5
3C0
100
AcDbEntity
  8
0
100
AcDbVertex
100
AcDb2dVertex
 10
612.689453
 20
423.590302
 30
0.0
  0
VERTEX
  5
3C1
100
AcDbEntity
  8
0
100
AcDbVertex
100
AcDb2dVertex
 10
613.080322
 20
423.196869
 30
0.0
  0
VERTEX
  5
3C2
100
AcDbEntity
  8
0
100
AcDbVertex
100
AcDb2dVertex
 10
613.577209
 20
422.915588
 30
0.0
  0
VERTEX
  5
3C3
100
AcDbEntity
  8
0
100
AcDbVertex
100
AcDb2dVertex
 10
614.202393
 20
422.718872
 30
0.0
  0
VERTEX
  5
3C4
100
AcDbEntity
  8
0
100
AcDbVertex
100
AcDb2dVertex
 10
614.771484
 20
422.616669
 30
0.0
  0
VERTEX
  5
3C5
100
AcDbEntity
  8
0
100
AcDbVertex
100
AcDb2dVertex
 10
615.370422
 20
422.553436
 30
0.0
  0
VERTEX
  5
3C6
100
AcDbEntity
  8
0
100
AcDbVertex
100
AcDb2dVertex
 10
615.988647
 20
422.517944
 30
0.0
  0
VERTEX
  5
3C7
100
AcDbEntity
  8
0
100
AcDbVertex
100
AcDb2dVertex
 10
617.0
 20
422.5
 30
0.0
  0
SEQEND
  5
3C8
100
AcDbEntity
  8
0
  0
LINE
  5
3C9
100
AcDbEntity
  8
0
 62
     7
 48
0.1375
100
AcDbLine
 10
582.0
 20
438.0
 30
0.0
 11
587.5
 21
438.0
 31
0.0
210
0.0
220
0.0
230
1.0
  0
POLYLINE
  5
3CA
100
AcDbEntity
  8
0
 62
     7
100
AcDb2dPolyline
 66
     1
 10
0.0
 20
0.0
 30
0.0
 71
    15
  0
VERTEX
  5
3CB
100
AcDbEntity
  8
0
100
AcDbVertex
100
AcDb2dVertex
 10
587.5
 20
438.0
 30
0.0
  0
VERTEX
  5
3CC
100
AcDbEntity
  8
0
100
AcDbVertex
100
AcDb2dVertex
 10
589.027466
 20
438.045837
 30
0.0
  0
VERTEX
  5
3CD
100
AcDbEntity
  8
0
100
AcDbVertex
100
AcDb2dVertex
 10
589.574402
 20
438.096893
 30
0.0
  0
VERTEX
  5
3CE
100
AcDbEntity
  8
0
100
AcDbVertex
100
AcDb2dVertex
 10
590.099609
 20
438.177216
 30
0.0
  0
VERTEX
  5
3CF
100
AcDbEntity
  8
0
100
AcDbVertex
100
AcDb2dVertex
 10
590.493835
 20
438.268372
 30
0.0
  0
VERTEX
  5
3D0
100
AcDbEntity
  8
0
100
AcDbVertex
100
AcDb2dVertex
 10
590.862427
 20
438.390839
 30
0.0
  0
VERTEX
  5
3D1
100
AcDbEntity
  8
0
100
AcDbVertex
100
AcDb2dVertex
 10
591.150146
 20
438.524567
 30
0.0
  0
VERTEX
  5
3D2
100
AcDbEntity
  8
0
100
AcDbVertex
100
AcDb2dVertex
 10
591.409668
 20
438.689423
 30
0.0
  0
VERTEX
  5
3D3
100
AcDbEntity
  8
0
100
AcDbVertex
100
AcDb2dVertex
 10
591.803162
 20
439.080353
 30
0.0
  0
VERTEX
  5
3D4
100
AcDbEntity
  8
0
100
AcDbVertex
100
AcDb2dVertex
 10
592.084412
 20
439.577209
 30
0.0
  0
VERTEX
  5
3D5
100
AcDbEntity
  8
0
100
AcDbVertex
100
AcDb2dVertex
 10
592.281128
 20
440.202423
 30
0.0
  0
VERTEX
  5
3D6
100
AcDbEntity
  8
0
100
AcDbVertex
100
AcDb2dVertex
 10
592.383362
 20
440.771484
 30
0.0
  0
VERTEX
  5
3D7
100
AcDbEntity
  8
0
100
AcDbVertex
100
AcDb2dVertex
 10
592.446594
 20
441.370453
 30
0.0
  0
VERTEX
  5
3D8
100
AcDbEntity
  8
0
100
AcDbVertex
100
AcDb2dVertex
 10
592.482056
 20
441.988678
 30
0.0
  0
VERTEX
  5
3D9
100
AcDbEntity
  8
0
100
AcDbVertex
100
AcDb2dVertex
 10
592.5
 20
443.0
 30
0.0
  0
SEQEND
  5
3DA
100
AcDbEntity
  8
0
  0
LINE
  5
3DB
100
AcDbEntity
  8
0
 62
     7
 48
0.085723
100
AcDbLine
 10
612.0
 20
427.5
 30
0.0
 11
612.0
 21
430.928925
 31
0.0
210
0.0
220
0.0
230
1.0
  0
POLYLINE
  5
3DC
100
AcDbEntity
  8
0
 62
     7
100
AcDb2dPolyline
 66
     1
 10
0.0
 20
0.0
 30
0.0
 71
     8
  0
VERTEX
  5
3DD
100
AcDbEntity
  8
0
100
AcDbVertex
100
AcDb2dVertex
 10
610.535522
 20
434.464478
 30
0.0
  0
VERTEX
  5
3DE
100
AcDbEntity
  8
0
100
AcDbVertex
100
AcDb2dVertex
 10
610.853333
 20
434.119202
 30
0.0
  0
VERTEX
  5
3DF
100
AcDbEntity
  8
0
100
AcDbVertex
100
AcDb2dVertex
 10
611.135071
 20
433.753906
 30
0.0
  0
VERTEX
  5
3E0
100
AcDbEntity
  8
0
100
AcDbVertex
100
AcDb2dVertex
 10
611.451416
 20
433.236816
 30
0.0
  0
VERTEX
  5
3E1
100
AcDbEntity
  8
0
100
AcDbVertex
100
AcDb2dVertex
 10
611.697021
 20
432.6875
 30
0.0
  0
VERTEX
  5
3E2
100
AcDbEntity
  8
0
100
AcDbVertex
100
AcDb2dVertex
 10
611.870056
 20
432.10907
 30
0.0
  0
VERTEX
  5
3E3
100
AcDbEntity
  8
0
100
AcDbVertex
100
AcDb2dVertex
 10
611.967896
 20
431.528687
 30
0.0
  0
VERTEX
  5
3E4
100
AcDbEntity
  8
0
100
AcDbVertex
100
AcDb2dVertex
 10
612.0
 20
430.928925
 30
0.0
  0
SEQEND
  5
3E5
100
AcDbEntity
  8
0
  0
LINE
  5
3E6
100
AcDbEntity
  8
0
 62
     7
 48
0.085724
100
AcDbLine
 10
601.5
 20
438.0
 30
0.0
 11
604.928955
 21
438.0
 31
0.0
210
0.0
220
0.0
230
1.0
  0
LINE
  5
3E7
100
AcDbEntity
  8
0
 62
     7
 48
0.073222
100
AcDbLine
 10
608.464478
 20
436.535522
 30
0.0
 11
610.535522
 21
434.464478
 31
0.0
210
0.0
220
0.0
230
1.0
  0
POLYLINE
  5
3E8
100
AcDbEntity
  8
0
 62
     7
100
AcDb2dPolyline
 66
     1
 10
0.0
 20
0.0
 30
0.0
 71
     8
  0
VERTEX
  5
3E9
100
AcDbEntity
  8
0
100
AcDbVertex
100
AcDb2dVertex
 10
604.928955
 20
438.0
 30
0.0
  0
VERTEX
  5
3EA
100
AcDbEntity
  8
0
100
AcDbVertex
100
AcDb2dVertex
 10
605.397766
 20
437.980591
 30
0.0
  0
VERTEX
  5
3EB
100
AcDbEntity
  8
0
100
AcDbVertex
100
AcDb2dVertex
 10
605.855286
 20
437.921509
 30
0.0
  0
VERTEX
  5
3EC
100
AcDbEntity
  8
0
100
AcDbVertex
100
AcDb2dVertex
 10
606.444641
 20
437.779572
 30
0.0
  0
VERTEX
  5
3ED
100
AcDbEntity
  8
0
100
AcDbVertex
100
AcDb2dVertex
 10
607.006714
 20
437.564789
 30
0.0
  0
VERTEX
  5
3EE
100
AcDbEntity
  8
0
100
AcDbVertex
100
AcDb2dVertex
 10
607.538086
 20
437.278137
 30
0.0
  0
VERTEX
  5
3EF
100
AcDbEntity
  8
0
100
AcDbVertex
100
AcDb2dVertex
 10
608.0177
 20
436.936951
 30
0.0
  0
VERTEX
  5
3F0
100
AcDbEntity
  8
0
100
AcDbVertex
100
AcDb2dVertex
 10
608.464478
 20
436.535522
 30
0.0
  0
SEQEND
  5
3F1
100
AcDbEntity
  8
0
  0
ARC
  5
3F2
100
AcDbEntity
  8
0
 62
     7
100
AcDbCircle
 10
594.5
 20
370.5
 30
0.0
 40
5.0
210
0.0
220
0.0
230
1.0
100
AcDbArc
 50
134.427002
 51
45.572996
  0
LINE
  5
3F3
100
AcDbEntity
  8
0
 62
     7
100
AcDbLine
 10
596.5
 20
377.641418
 30
0.0
 11
596.5
 21
398.0
 31
0.0
210
0.0
220
0.0
230
1.0
  0
POLYLINE
  5
3F4
100
AcDbEntity
  8
0
 62
     7
100
AcDb2dPolyline
 66
     1
 10
0.0
 20
0.0
 30
0.0
 71
     8
  0
VERTEX
  5
3F5
100
AcDbEntity
  8
0
100
AcDbVertex
100
AcDb2dVertex
 10
596.5
 20
377.641418
 30
0.0
  0
VERTEX
  5
3F6
100
AcDbEntity
  8
0
100
AcDbVertex
100
AcDb2dVertex
 10
596.519836
 20
377.166382
 30
0.0
  0
VERTEX
  5
3F7
100
AcDbEntity
  8
0
100
AcDbVertex
100
AcDb2dVertex
 10
596.580322
 20
376.703033
 30
0.0
  0
VERTEX
  5
3F8
100
AcDbEntity
  8
0
100
AcDbVertex
100
AcDb2dVertex
 10
596.725708
 20
376.106628
 30
0.0
  0
VERTEX
  5
3F9
100
AcDbEntity
  8
0
100
AcDbVertex
100
AcDb2dVertex
 10
596.945801
 20
375.538513
 30
0.0
  0
VERTEX
  5
3FA
100
AcDbEntity
  8
0
100
AcDbVertex
100
AcDb2dVertex
 10
597.239563
 20
375.00238
 30
0.0
  0
VERTEX
  5
3FB
100
AcDbEntity
  8
0
100
AcDbVertex
100
AcDb2dVertex
 10
597.58905
 20
374.51947
 30
0.0
  0
VERTEX
  5
3FC
100
AcDbEntity
  8
0
100
AcDbVertex
100
AcDb2dVertex
 10
598.0
 20
374.070709
 30
0.0
  0
SEQEND
  5
3FD
100
AcDbEntity
  8
0
  0
ARC
  5
3FE
100
AcDbEntity
  8
0
 62
     7
100
AcDbCircle
 10
594.5
 20
470.5
 30
0.0
 40
5.0
210
0.0
220
0.0
230
1.0
100
AcDbArc
 50
314.427004
 51
225.572998
  0
LINE
  5
3FF
100
AcDbEntity
  8
0
 62
     7
100
AcDbLine
 10
596.5
 20
463.358582
 30
0.0
 11
596.5
 21
443.0
 31
0.0
210
0.0
220
0.0
230
1.0
  0
POLYLINE
  5
400
100
AcDbEntity
  8
0
 62
     7
100
AcDb2dPolyline
 66
     1
 10
0.0
 20
0.0
 30
0.0
 71
     8
  0
VERTEX
  5
401
100
AcDbEntity
  8
0
100
AcDbVertex
100
AcDb2dVertex
 10
598.0
 20
466.929291
 30
0.0
  0
VERTEX
  5
402
100
AcDbEntity
  8
0
100
AcDbVertex
100
AcDb2dVertex
 10
597.674683
 20
466.582581
 30
0.0
  0
VERTEX
  5
403
100
AcDbEntity
  8
0
100
AcDbVertex
100
AcDb2dVertex
 10
597.386108
 20
466.215027
 30
0.0
  0
VERTEX
  5
404
100
AcDbEntity
  8
0
100
AcDbVertex
100
AcDb2dVertex
 10
597.061951
 20
465.693726
 30
0.0
  0
VERTEX
  5
405
100
AcDbEntity
  8
0
100
AcDbVertex
100
AcDb2dVertex
 10
596.810303
 20
465.138855
 30
0.0
  0
VERTEX
  5
406
100
AcDbEntity
  8
0
100
AcDbVertex
100
AcDb2dVertex
 10
596.633057
 20
464.553772
 30
0.0
  0
VERTEX
  5
407
100
AcDbEntity
  8
0
100
AcDbVertex
100
AcDb2dVertex
 10
596.532837
 20
463.966156
 30
0.0
  0
VERTEX
  5
408
100
AcDbEntity
  8
0
100
AcDbVertex
100
AcDb2dVertex
 10
596.5
 20
463.358582
 30
0.0
  0
SEQEND
  5
409
100
AcDbEntity
  8
0
  0
ARC
  5
40A
100
AcDbEntity
  8
0
 62
     7
100
AcDbCircle
 10
644.5
 20
420.5
 30
0.0
 40
5.0
210
0.0
220
0.0
230
1.0
100
AcDbArc
 50
224.427001
 51
135.572999
  0
LINE
  5
40B
100
AcDbEntity
  8
0
 62
     7
100
AcDbLine
 10
617.0
 20
422.5
 30
0.0
 11
637.358582
 21
422.5
 31
0.0
210
0.0
220
0.0
230
1.0
  0
POLYLINE
  5
40C
100
AcDbEntity
  8
0
 62
     7
100
AcDb2dPolyline
 66
     1
 10
0.0
 20
0.0
 30
0.0
 71
     8
  0
VERTEX
  5
40D
100
AcDbEntity
  8
0
100
AcDbVertex
100
AcDb2dVertex
 10
637.358582
 20
422.5
 30
0.0
  0
VERTEX
  5
40E
100
AcDbEntity
  8
0
100
AcDbVertex
100
AcDb2dVertex
 10
637.833618
 20
422.519867
 30
0.0
  0
VERTEX
  5
40F
100
AcDbEntity
  8
0
100
AcDbVertex
100
AcDb2dVertex
 10
638.296997
 20
422.580322
 30
0.0
  0
VERTEX
  5
410
100
AcDbEntity
  8
0
100
AcDbVertex
100
AcDb2dVertex
 10
638.893372
 20
422.725739
 30
0.0
  0
VERTEX
  5
411
100
AcDbEntity
  8
0
100
AcDbVertex
100
AcDb2dVertex
 10
639.461487
 20
422.945831
 30
0.0
  0
VERTEX
  5
412
100
AcDbEntity
  8
0
100
AcDbVertex
100
AcDb2dVertex
 10
639.99762
 20
423.239594
 30
0.0
  0
VERTEX
  5
413
100
AcDbEntity
  8
0
100
AcDbVertex
100
AcDb2dVertex
 10
640.48053
 20
423.589081
 30
0.0
  0
VERTEX
  5
414
100
AcDbEntity
  8
0
100
AcDbVertex
100
AcDb2dVertex
 10
640.92926
 20
424.0
 30
0.0
  0
SEQEND
  5
415
100
AcDbEntity
  8
0
  0
LINE
  5
416
100
AcDbEntity
  8
0
 62
     7
100
AcDbLine
 10
637.358582
 20
418.5
 30
0.0
 11
617.0
 21
418.5
 31
0.0
210
0.0
220
0.0
230
1.0
  0
POLYLINE
  5
417
100
AcDbEntity
  8
0
 62
     7
100
AcDb2dPolyline
 66
     1
 10
0.0
 20
0.0
 30
0.0
 71
     8
  0
VERTEX
  5
418
100
AcDbEntity
  8
0
100
AcDbVertex
100
AcDb2dVertex
 10
640.92926
 20
417.0
 30
0.0
  0
VERTEX
  5
419
100
AcDbEntity
  8
0
100
AcDbVertex
100
AcDb2dVertex
 10
640.582581
 20
417.325348
 30
0.0
  0
VERTEX
  5
41A
100
AcDbEntity
  8
0
100
AcDbVertex
100
AcDb2dVertex
 10
640.215027
 20
417.613922
 30
0.0
  0
VERTEX
  5
41B
100
AcDbEntity
  8
0
100
AcDbVertex
100
AcDb2dVertex
 10
639.693726
 20
417.938049
 30
0.0
  0
VERTEX
  5
41C
100
AcDbEntity
  8
0
100
AcDbVertex
100
AcDb2dVertex
 10
639.138855
 20
418.189697
 30
0.0
  0
VERTEX
  5
41D
100
AcDbEntity
  8
0
100
AcDbVertex
100
AcDb2dVertex
 10
638.553772
 20
418.366943
 30
0.0
  0
VERTEX
  5
41E
100
AcDbEntity
  8
0
100
AcDbVertex
100
AcDb2dVertex
 10
637.966125
 20
418.467194
 30
0.0
  0
VERTEX
  5
41F
100
AcDbEntity
  8
0
100
AcDbVertex
100
AcDb2dVertex
 10
637.358582
 20
418.5
 30
0.0
  0
SEQEND
  5
420
100
AcDbEntity
  8
0
  0
LINE
  5
421
100
AcDbEntity
  8
0
 62
     7
100
AcDbLine
 10
592.5
 20
398.0
 30
0.0
 11
592.5
 21
377.641418
 31
0.0
210
0.0
220
0.0
230
1.0
  0
POLYLINE
  5
422
100
AcDbEntity
  8
0
 62
     7
100
AcDb2dPolyline
 66
     1
 10
0.0
 20
0.0
 30
0.0
 71
     8
  0
VERTEX
  5
423
100
AcDbEntity
  8
0
100
AcDbVertex
100
AcDb2dVertex
 10
591.0
 20
374.070709
 30
0.0
  0
VERTEX
  5
424
100
AcDbEntity
  8
0
100
AcDbVertex
100
AcDb2dVertex
 10
591.325317
 20
374.417419
 30
0.0
  0
VERTEX
  5
425
100
AcDbEntity
  8
0
100
AcDbVertex
100
AcDb2dVertex
 10
591.613892
 20
374.784973
 30
0.0
  0
VERTEX
  5
426
100
AcDbEntity
  8
0
100
AcDbVertex
100
AcDb2dVertex
 10
591.938049
 20
375.306274
 30
0.0
  0
VERTEX
  5
427
100
AcDbEntity
  8
0
100
AcDbVertex
100
AcDb2dVertex
 10
592.189697
 20
375.861145
 30
0.0
  0
VERTEX
  5
428
100
AcDbEntity
  8
0
100
AcDbVertex
100
AcDb2dVertex
 10
592.366943
 20
376.446228
 30
0.0
  0
VERTEX
  5
429
100
AcDbEntity
  8
0
100
AcDbVertex
100
AcDb2dVertex
 10
592.467163
 20
377.033844
 30
0.0
  0
VERTEX
  5
42A
100
AcDbEntity
  8
0
100
AcDbVertex
100
AcDb2dVertex
 10
592.5
 20
377.641418
 30
0.0
  0
SEQEND
  5
42B
100
AcDbEntity
  8
0
  0
POLYLINE
  5
42C
100
AcDbEntity
  8
0
 62
     7
100
AcDb2dPolyline
 66
     1
 10
0.0
 20
0.0
 30
0.0
 71
     8
  0
VERTEX
  5
42D
100
AcDbEntity
  8
0
100
AcDbVertex
100
AcDb2dVertex
 10
592.5
 20
463.358582
 30
0.0
  0
VERTEX
  5
42E
100
AcDbEntity
  8
0
100
AcDbVertex
100
AcDb2dVertex
 10
592.480164
 20
463.833618
 30
0.0
  0
VERTEX
  5
42F
100
AcDbEntity
  8
0
100
AcDbVertex
100
AcDb2dVertex
 10
592.419678
 20
464.296967
 30
0.0
  0
VERTEX
  5
430
100
AcDbEntity
  8
0
100
AcDbVertex
100
AcDb2dVertex
 10
592.274292
 20
464.893372
 30
0.0
  0
VERTEX
  5
431
100
AcDbEntity
  8
0
100
AcDbVertex
100
AcDb2dVertex
 10
592.054199
 20
465.461487
 30
0.0
  0
VERTEX
  5
432
100
AcDbEntity
  8
0
100
AcDbVertex
100
AcDb2dVertex
 10
591.760437
 20
465.99762
 30
0.0
  0
VERTEX
  5
433
100
AcDbEntity
  8
0
100
AcDbVertex
100
AcDb2dVertex
 10
591.41095
 20
466.48053
 30
0.0
  0
VERTEX
  5
434
100
AcDbEntity
  8
0
100
AcDbVertex
100
AcDb2dVertex
 10
591.0
 20
466.929291
 30
0.0
  0
SEQEND
  5
435
100
AcDbEntity
  8
0
  0
LINE
  5
436
100
AcDbEntity
  8
0
 62
     7
100
AcDbLine
 10
592.5
 20
443.0
 30
0.0
 11
592.5
 21
463.358582
 31
0.0
210
0.0
220
0.0
230
1.0
  0
ENDSEC
  0
SECTION
  2
OBJECTS
  0
DICTIONARY
  5
19
100
AcDbDictionary
  3
ACAD_GROUP
350
1A
  3
ACAD_MLINESTYLE
350
1B
  0
DICTIONARY
  5
1A
102
{ACAD_REACTORS
330
19
102
}
100
AcDbDictionary
  0
DICTIONARY
  5
1B
102
{ACAD_REACTORS
330
19
102
}
100
AcDbDictionary
  3
STANDARD
350
1C
  0
MLINESTYLE
  5
1C
102
{ACAD_REACTORS
330
1B
102
}
100
AcDbMlineStyle
  2
STANDARD
 70
     0
  3

 62
     0
 51
90.0
 52
90.0
 71
     2
 49
0.5
 62
   256
  6
BYLAYER
 49
-0.5
 62
   256
  6
BYLAYER
  0
ENDSEC
  0
EOF
